<svg xmlns="http://www.w3.org/2000/svg" viewBox="0 0 64 64" width="64" height="64">
  <style>
    .st0{fill:#fff}.st1{fill:#666}.st2{fill:#f43737}
  </style>
  <path fill="#fff" d="M6.2 14.9l7 12.9 4.7-1.2 5 5.5 3.4-3.3-4-4.2-.8-.9L9.5 11z" />
  <path fill="#fff" d="M55.5 47.7l-8.3-5.8-2.3-24.7h10.6z" />
  <path fill="#666" d="M16.3 28.2L13.5 31C4 21.5 4 13.7 6.2 7l24.6 24.6-5.6 5.6-8.9-9zm0-4.5l8.9 8.9 1.1-1.1L8.2 13.4c-.2 4.3 1.4 8.5 5.4 13.1l2.7-2.8z" />
  <path fill="#666" d="M56.2 48.9c-6.3-.2-11.4-5.4-11.3-11.8V21h7.3v-9.5c0-1.2 1-2.2 2.2-2.2 1.2 0 2.2 1 2.2 2.2l-.1 37.4h-.3zM53.7 24h-5.9v13.6c.1 3.5 2.4 6.6 5.7 7.9l.2.1V24z"/>
  <path fill="#f43737" transform="rotate(45 31.77025608 32.41464007)" d="M22.4 7.2h18.8v50.5H22.4z"/>
  <circle fill="#f43737" cx="14.8" cy="49.4" r="9.4"/>
  <circle fill="#f43737" cx="49.6" cy="14.6" r="9.4"/>
  <path class="st0" d="M49.6 24.5l-3.3-3.3 3.3-3.3-3.3-3.3-3.3 3.3-3.3-3.3-3.4 3.3 3.4 3.3-3.4 3.3 3.4 3.4 3.3-3.4 3.3 3.4z" />
</svg>
