<svg width="254" height="199" viewBox="0 0 254 199" fill="none" preserveAspectRatio="none" xmlns="http://www.w3.org/2000/svg">
<path d="M8.40278 8.80864C8.43274 7.1852 9.77309 5.89343 11.3965 5.92339L244.491 10.2255C246.115 10.2555 247.407 11.5958 247.377 13.2193L244.127 189.315C244.097 190.938 242.756 192.23 241.133 192.2L8.03791 187.898C6.41447 187.868 5.1227 186.527 5.15267 184.904L8.40278 8.80864Z" fill="transparent"/>
<path d="M145.799 8.12105L144.811 13.5316L145.799 8.12105ZM248.347 33.9878L253.847 33.9213L248.347 33.9878ZM246.157 75.3144L240.673 75.7384L246.157 75.3144ZM247.228 96.0177L252.726 95.8744L247.228 96.0177ZM245.926 116.677L240.488 115.849L245.926 116.677ZM215.012 191.803L214.029 197.214L215.012 191.803ZM194.357 190.274L194.54 195.771L194.357 190.274ZM173.664 190.757L173.738 196.257L173.664 190.757ZM152.976 191.037L152.901 185.538L152.976 191.037ZM90.9429 190.073L91.2348 184.581L90.9429 190.073ZM49.6052 188.484L49.4966 182.985L49.6052 188.484ZM28.9369 187.659L28.3915 193.132L28.9369 187.659ZM21.7449 5.56638L21.9345 11.0631C28.4931 10.8368 35.042 11.2167 41.5855 12.2043L42.4063 6.76589L43.2271 1.32748C36.0199 0.239712 28.7945 -0.180102 21.5552 0.0696494L21.7449 5.56638ZM42.4063 6.76589L41.5855 12.2043C48.8624 13.3026 56.1609 13.5869 63.4734 13.0557L63.0749 7.57017L62.6765 2.08462C56.1815 2.55643 49.7008 2.30455 43.2271 1.32748L42.4063 6.76589ZM63.0749 7.57017L63.4734 13.0557C70.362 12.5553 77.25 12.0837 84.1375 11.6409L83.7846 6.15221L83.4317 0.663545C76.5138 1.10833 69.5954 1.58202 62.6765 2.08462L63.0749 7.57017ZM83.7846 6.15221L84.1375 11.6409C90.8024 11.2124 97.4578 11.2179 104.105 11.6574L104.468 6.16937L104.831 0.68135C97.7057 0.210317 90.5722 0.204453 83.4317 0.663545L83.7846 6.15221ZM104.468 6.16937L104.105 11.6574C111.166 12.1242 118.234 12.2528 125.307 12.0432L125.144 6.54559L124.982 1.048C118.259 1.24724 111.542 1.12502 104.831 0.68135L104.468 6.16937ZM125.144 6.54559L125.307 12.0432C131.815 11.8503 138.314 12.3453 144.811 13.5316L145.799 8.12105L146.787 2.71052C139.541 1.38732 132.27 0.832008 124.982 1.048L125.144 6.54559ZM145.799 8.12105L144.811 13.5316C152.072 14.8575 159.358 15.3842 166.663 15.1082L166.455 9.61217L166.247 4.11609C159.753 4.36144 153.269 3.89411 146.787 2.71052L145.799 8.12105ZM166.455 9.61217L166.663 15.1082C173.655 14.8441 180.65 14.4016 187.648 13.7809L187.163 8.30244L186.677 2.82395C179.863 3.42826 173.053 3.85895 166.247 4.11609L166.455 9.61217ZM187.163 8.30244L187.648 13.7809C194.155 13.2039 200.645 13.3386 207.126 14.1855L207.838 8.73183L208.551 3.27819C201.276 2.32754 193.982 2.17603 186.677 2.82395L187.163 8.30244ZM207.838 8.73183L207.126 14.1855C214.067 15.0925 221.011 15.8769 227.957 16.5387L228.479 11.0635L229 5.58829C222.182 4.93869 215.365 4.16867 208.551 3.27819L207.838 8.73183ZM228.479 11.0635L227.957 16.5387C233.953 17.11 237.346 18.9773 239.243 21.3131L243.512 17.8454L247.781 14.3777C243.399 8.98233 236.769 6.3284 229 5.58829L228.479 11.0635ZM243.512 17.8454L239.243 21.3131C241.349 23.9053 242.773 27.9277 242.848 34.0543L248.347 33.9878L253.847 33.9213C253.754 26.2559 251.956 19.5167 247.781 14.3777L243.512 17.8454ZM248.347 33.9878L242.848 34.0543C242.927 40.6507 242.471 47.2395 241.476 53.8233L246.914 54.6449L252.353 55.4665C253.435 48.2997 253.934 41.117 253.847 33.9213L248.347 33.9878ZM246.914 54.6449L241.476 53.8233C240.375 61.1091 240.107 68.4168 240.673 75.7384L246.157 75.3144L251.641 74.8905C251.139 68.4034 251.376 61.9314 252.353 55.4665L246.914 54.6449ZM246.157 75.3144L240.673 75.7384C241.2 82.5497 241.552 89.3572 241.729 96.161L247.228 96.0177L252.726 95.8744C252.543 88.8826 252.182 81.8879 251.641 74.8905L246.157 75.3144ZM247.228 96.0177L241.729 96.161C241.901 102.731 241.488 109.292 240.488 115.849L245.926 116.677L251.363 117.506C252.459 110.312 252.914 103.1 252.726 95.8744L247.228 96.0177ZM245.926 116.677L240.488 115.849C239.38 123.123 239.08 130.418 239.59 137.728L245.077 137.345L250.563 136.962C250.11 130.465 250.376 123.982 251.363 117.506L245.926 116.677ZM245.077 137.345L239.59 137.728C240.062 144.489 240.27 151.245 240.214 157.995L245.714 158.04L251.213 158.086C251.272 151.049 251.055 144.008 250.563 136.962L245.077 137.345ZM245.714 158.04L240.214 157.995C240.158 164.689 239.74 171.377 238.958 178.061L244.421 178.7L249.884 179.339C250.711 172.263 251.155 165.179 251.213 158.086L245.714 158.04ZM244.421 178.7L238.958 178.061C238.642 180.759 237.876 182.474 236.99 183.579C236.139 184.638 234.886 185.504 232.881 186.025L234.267 191.348L235.652 196.671C239.612 195.64 243.033 193.622 245.568 190.465C248.066 187.353 249.395 183.52 249.884 179.339L244.421 178.7ZM234.267 191.348L232.881 186.025C227.787 187.351 222.185 187.517 215.996 186.392L215.012 191.803L214.029 197.214C221.582 198.587 228.816 198.45 235.652 196.671L234.267 191.348ZM215.012 191.803L215.996 186.392C208.744 185.074 201.468 184.534 194.174 184.777L194.357 190.274L194.54 195.771C201.043 195.554 207.537 196.034 214.029 197.214L215.012 191.803ZM194.357 190.274L194.174 184.777C187.311 185.005 180.45 185.165 173.59 185.258L173.664 190.757L173.738 196.257C180.671 196.164 187.605 196.002 194.54 195.771L194.357 190.274ZM173.664 190.757L173.59 185.258C166.694 185.351 159.797 185.444 152.901 185.538L152.976 191.037L153.05 196.537C159.946 196.443 166.842 196.35 173.738 196.257L173.664 190.757ZM152.976 191.037L152.901 185.538C146.085 185.63 139.271 185.574 132.461 185.369L132.295 190.867L132.13 196.364C139.101 196.574 146.074 196.632 153.05 196.537L152.976 191.037ZM132.295 190.867L132.461 185.369C125.509 185.16 118.555 185.067 111.599 185.089L111.617 190.589L111.635 196.089C118.468 196.067 125.3 196.159 132.13 196.364L132.295 190.867ZM111.617 190.589L111.599 185.089C104.808 185.111 98.0195 184.941 91.2348 184.581L90.9429 190.073L90.651 195.565C97.6418 195.937 104.636 196.111 111.635 196.089L111.617 190.589ZM90.9429 190.073L91.2348 184.581C84.36 184.215 77.4856 183.826 70.6117 183.412L70.281 188.902L69.9503 194.392C76.8501 194.807 83.7503 195.198 90.651 195.565L90.9429 190.073ZM70.281 188.902L70.6117 183.412C63.5786 182.988 56.5401 182.846 49.4966 182.985L49.6052 188.484L49.7138 193.983C56.4644 193.849 63.2097 193.986 69.9503 194.392L70.281 188.902ZM49.6052 188.484L49.4966 182.985C42.8184 183.117 36.1474 182.851 29.4822 182.187L28.9369 187.659L28.3915 193.132C35.4901 193.84 42.5979 194.123 49.7138 193.983L49.6052 188.484ZM28.9369 187.659L29.4822 182.187C23.0428 181.545 18.583 180.144 15.6852 178.351L12.7914 183.028L9.89763 187.706C14.7634 190.716 21.0673 192.403 28.3915 193.132L28.9369 187.659ZM12.7914 183.028L15.6852 178.351C13.9911 177.303 12.204 174.821 11.8419 168.745L6.35169 169.073L0.861429 169.4C1.32199 177.128 3.82805 183.95 9.89763 187.706L12.7914 183.028ZM6.35169 169.073L11.8419 168.745C11.4349 161.916 11.1632 155.088 11.0267 148.264L5.52779 148.374L0.0288923 148.484C0.168282 155.454 0.445802 162.426 0.861429 169.4L6.35169 169.073ZM5.52779 148.374L11.0267 148.264C10.8942 141.641 11.2548 135.026 12.1092 128.416L6.65462 127.711L1.20001 127.006C0.276106 134.153 -0.114523 141.313 0.0288923 148.484L5.52779 148.374ZM6.65462 127.711L12.1092 128.416C13.0568 121.086 13.0904 113.736 12.2111 106.377L6.74999 107.029L1.28883 107.682C2.0607 114.142 2.03072 120.58 1.20001 127.006L6.65462 127.711ZM6.74999 107.029L12.2111 106.377C11.4186 99.7436 11.1362 93.1248 11.3627 86.5181L5.86596 86.3296L0.369186 86.1412C0.123252 93.3148 0.430239 100.496 1.28883 107.682L6.74999 107.029ZM5.86596 86.3296L11.3627 86.5181C11.5943 79.7622 12.0734 73.0102 12.7999 66.2619L7.33148 65.6731L1.86308 65.0844C1.10801 72.0978 0.610006 79.1168 0.369186 86.1412L5.86596 86.3296ZM7.33148 65.6731L12.7999 66.2619C13.5649 59.1558 13.8882 52.0398 13.7694 44.9152L8.27012 45.0069L2.77088 45.0987C2.88212 51.7673 2.57963 58.4288 1.86308 65.0844L7.33148 65.6731ZM8.27012 45.0069L13.7694 44.9152C13.6543 38.0194 13.5408 31.1236 13.4289 24.2278L7.92959 24.3171L2.43031 24.4064C2.54231 31.3038 2.65583 38.2012 2.77088 45.0987L8.27012 45.0069ZM7.92959 24.3171L13.4289 24.2278C13.3169 17.334 13.9352 13.6652 14.5916 12.2115L9.57907 9.94783L4.56652 7.68413C2.79972 11.5964 2.31829 17.5071 2.43031 24.4064L7.92959 24.3171ZM9.57907 9.94783L14.5916 12.2115C14.3489 12.7491 14.114 12.4755 15.3929 12.0149C16.6588 11.559 18.7564 11.1728 21.9345 11.0631L21.7449 5.56638L21.5552 0.0696494C17.8344 0.198016 14.455 0.661023 11.6656 1.66561C8.88928 2.66549 6.02093 4.46361 4.56652 7.68413L9.57907 9.94783Z" fill="#FFCD00"/>
</svg>