<svg width="26" height="26" viewBox="0 0 26 26" fill="none" xmlns="http://www.w3.org/2000/svg">
<path d="M12.9981 14.6001L2.34413 25.2541C2.12113 25.4771 1.85779 25.5917 1.55412 25.5981C1.25012 25.6044 0.980125 25.4897 0.744125 25.2541C0.508458 25.0181 0.390625 24.7514 0.390625 24.4541C0.390625 24.1564 0.508458 23.8897 0.744125 23.6541L11.3981 13.0001L0.744125 2.34608C0.521125 2.12308 0.406458 1.85975 0.400124 1.55608C0.393791 1.25208 0.508458 0.982078 0.744125 0.746078C0.980125 0.510412 1.24679 0.392578 1.54412 0.392578C1.84179 0.392578 2.10846 0.510412 2.34413 0.746078L12.9981 11.4001L23.6521 0.746078C23.8751 0.523078 24.1385 0.408412 24.4421 0.402078C24.7461 0.395745 25.0161 0.510412 25.2521 0.746078C25.4878 0.982078 25.6056 1.24875 25.6056 1.54608C25.6056 1.84375 25.4878 2.11041 25.2521 2.34608L14.5981 13.0001L25.2521 23.6541C25.4751 23.8771 25.5898 24.1404 25.5961 24.4441C25.6025 24.7481 25.4878 25.0181 25.2521 25.2541C25.0161 25.4897 24.7495 25.6076 24.4521 25.6076C24.1545 25.6076 23.8878 25.4897 23.6521 25.2541L12.9981 14.6001Z" fill="black"/>
</svg>
