<svg width="12" height="7" viewBox="0 0 12 7" fill="none" xmlns="http://www.w3.org/2000/svg">
<path d="M6.00024 0.323476C6.12074 0.323476 6.23291 0.342726 6.33674 0.381226C6.44058 0.419726 6.53933 0.485726 6.63299 0.579226L11.1272 5.07348C11.2656 5.21198 11.3364 5.38606 11.3397 5.59573C11.3429 5.80523 11.2721 5.98248 11.1272 6.12748C10.9822 6.27231 10.8066 6.34473 10.6002 6.34473C10.3939 6.34473 10.2182 6.27231 10.0732 6.12748L6.00024 2.05423L1.92724 6.12748C1.78874 6.26581 1.61466 6.33664 1.40499 6.33998C1.19549 6.34314 1.01824 6.27231 0.873241 6.12748C0.728408 5.98248 0.655992 5.80681 0.655992 5.60048C0.655992 5.39414 0.728408 5.21848 0.873241 5.07348L5.36749 0.579226C5.46116 0.485726 5.55991 0.419726 5.66374 0.381226C5.76758 0.342726 5.87974 0.323476 6.00024 0.323476Z" fill="black"/>
</svg>
