<svg width="12" height="7" viewBox="0 0 12 7" fill="none" xmlns="http://www.w3.org/2000/svg">
<path d="M5.99976 6.67652C5.87926 6.67652 5.76709 6.65727 5.66326 6.61877C5.55942 6.58027 5.46067 6.51427 5.36701 6.42077L0.872758 1.92652C0.734425 1.78802 0.663591 1.61394 0.660258 1.40427C0.657091 1.19477 0.727925 1.01752 0.872758 0.872524C1.01776 0.72769 1.19342 0.655273 1.39976 0.655273C1.60609 0.655273 1.78176 0.72769 1.92676 0.872524L5.99976 4.94577L10.0728 0.872524C10.2113 0.73419 10.3853 0.663357 10.595 0.660023C10.8045 0.656857 10.9818 0.72769 11.1268 0.872524C11.2716 1.01752 11.344 1.19319 11.344 1.39952C11.344 1.60586 11.2716 1.78152 11.1268 1.92652L6.63251 6.42077C6.53884 6.51427 6.44009 6.58027 6.33626 6.61877C6.23242 6.65727 6.12026 6.67652 5.99976 6.67652Z" fill="black"/>
</svg>
