<svg width="12" height="15" viewBox="0 0 12 15" fill="none" xmlns="http://www.w3.org/2000/svg">
<path d="M5.21916 0.0313946C2.17559 0.346626 -0.336447 2.96524 0.0373273 6.57405C0.276003 8.87848 2.33213 11.4048 6.19921 14.1611C6.49935 14.3717 6.9124 14.3289 7.16301 14.0613C10.3759 10.5717 11.8706 7.67759 11.6319 5.37317C11.2581 1.76436 8.26274 -0.283837 5.21916 0.0313946ZM4.7366 7.88913L3.609 6.97318C3.53496 6.91304 3.47349 6.8389 3.4281 6.75501C3.38272 6.67111 3.3543 6.57909 3.34447 6.48421C3.33464 6.38933 3.3436 6.29345 3.37083 6.20203C3.39806 6.11061 3.44303 6.02545 3.50317 5.95141C3.56331 5.87737 3.63745 5.8159 3.72135 5.77051C3.80524 5.72513 3.89726 5.69671 3.99214 5.68688C4.08702 5.67705 4.18291 5.68601 4.27433 5.71324C4.36574 5.74047 4.4509 5.78544 4.52494 5.84558L5.09274 6.3068L6.93113 4.04361C6.99127 3.96957 7.0654 3.9081 7.1493 3.86271C7.2332 3.81732 7.32521 3.7889 7.4201 3.77908C7.51497 3.76925 7.61086 3.77821 7.70228 3.80544C7.7937 3.83267 7.87886 3.87764 7.9529 3.93778C8.02694 3.99792 8.08841 4.07206 8.13379 4.15595C8.17918 4.23985 8.2076 4.33187 8.21743 4.42675C8.22725 4.52163 8.2183 4.61751 8.19107 4.70893C8.16384 4.80035 8.11887 4.88551 8.05873 4.95955L5.75912 7.79055C5.51227 8.09444 5.04849 8.14247 4.7366 7.88913Z" fill="white"/>
</svg>
