<svg width="29" height="29" viewBox="0 0 29 29" fill="none" xmlns="http://www.w3.org/2000/svg">
<path d="M7.62753 15.6723L12.9921 27.7424C14.0591 27.7424 15.0825 27.3185 15.837 26.564C16.5916 25.8095 17.0154 24.7861 17.0154 23.719V18.3545H24.6062C24.9951 18.3589 25.3802 18.2787 25.7349 18.1195C26.0896 17.9603 26.4055 17.7259 26.6607 17.4325C26.9158 17.1391 27.1041 16.7937 27.2125 16.4203C27.3209 16.0469 27.3469 15.6543 27.2885 15.2699L25.4377 3.19974C25.3408 2.56014 25.0159 1.97715 24.523 1.55818C24.0301 1.13921 23.4024 0.912499 22.7555 0.919812H7.62753M7.62753 15.6723V0.919812M7.62753 15.6723H3.60414C2.89276 15.6723 2.21051 15.3897 1.70749 14.8866C1.20447 14.3836 0.921875 13.7014 0.921875 12.99V3.60207C0.921875 2.89069 1.20447 2.20845 1.70749 1.70543C2.21051 1.20241 2.89276 0.919812 3.60414 0.919812H7.62753" stroke="white" stroke-width="1.83927" stroke-linecap="round" stroke-linejoin="round"/>
</svg>
