<svg width="12" height="19" viewBox="0 0 12 19" fill="none" xmlns="http://www.w3.org/2000/svg">
<path d="M6.12865 18.7083C6.51395 18.7083 6.84128 18.5766 7.11064 18.3133C7.38 18.0496 7.51468 17.7343 7.51468 17.3674C7.51468 17.0106 7.37927 16.7013 7.10846 16.4393C6.83765 16.1773 6.50959 16.0463 6.12429 16.0463C5.73899 16.0463 5.4089 16.178 5.13402 16.4414C4.85914 16.7048 4.7217 17.0148 4.7217 17.3715C4.7217 17.7385 4.85986 18.0531 5.1362 18.3153C5.41253 18.5773 5.74335 18.7083 6.12865 18.7083ZM6.0563 2.23854C6.96811 2.23854 7.7666 2.50385 8.45177 3.03449C9.13665 3.56512 9.47909 4.24142 9.47909 5.0634C9.47909 5.75993 9.26858 6.37198 8.84754 6.89957C8.4265 7.42687 7.94647 7.92261 7.40746 8.38677C6.77459 8.90466 6.22178 9.47615 5.74902 10.1012C5.27654 10.7263 5.02346 11.4277 4.98975 12.2053C4.97871 12.446 5.06835 12.6378 5.25867 12.7807C5.44929 12.9233 5.67143 12.9946 5.9251 12.9946C6.19563 12.9946 6.42024 12.9104 6.59894 12.7421C6.77735 12.5739 6.88806 12.361 6.93106 12.1031C7.02957 11.5429 7.25651 11.0326 7.61188 10.5723C7.96725 10.1123 8.38378 9.69258 8.86148 9.31316C9.53706 8.75096 10.1046 8.11287 10.5639 7.3989C11.0231 6.68465 11.2526 5.90394 11.2526 5.05676C11.2526 3.75732 10.7525 2.67307 9.75238 1.80401C8.75223 0.934669 7.56045 0.5 6.17703 0.5C5.20013 0.5 4.26579 0.707711 3.37402 1.12313C2.48196 1.53855 1.74769 2.12651 1.17119 2.88701C1.01254 3.10026 0.943672 3.32957 0.964594 3.57495C0.985805 3.82032 1.09186 4.01682 1.28277 4.16443C1.5591 4.33337 1.83588 4.38433 2.11308 4.31731C2.39029 4.25001 2.6194 4.09603 2.80043 3.85536C3.19328 3.35962 3.67041 2.96622 4.23179 2.67515C4.79318 2.38408 5.40135 2.23854 6.0563 2.23854Z" fill="white"/>
</svg>
