<svg width="38" height="38" viewBox="0 0 38 38" fill="none" xmlns="http://www.w3.org/2000/svg">
<path d="M19.2025 29.977C19.6445 29.977 20.02 29.8185 20.329 29.5015C20.638 29.1842 20.7925 28.8047 20.7925 28.363C20.7925 27.9337 20.6372 27.5613 20.3265 27.246C20.0158 26.9307 19.6395 26.773 19.1975 26.773C18.7555 26.773 18.3768 26.9315 18.0615 27.2485C17.7462 27.5655 17.5885 27.9387 17.5885 28.368C17.5885 28.8097 17.747 29.1883 18.064 29.504C18.381 29.8193 18.7605 29.977 19.2025 29.977ZM19.0165 38C16.3848 38 13.92 37.5013 11.622 36.504C9.32367 35.5067 7.311 34.1448 5.584 32.4185C3.857 30.6922 2.4945 28.6792 1.4965 26.3795C0.498833 24.0802 0 21.6132 0 18.9785C0 16.3565 0.498667 13.892 1.496 11.585C2.49333 9.278 3.85517 7.26933 5.5815 5.559C7.30783 3.84867 9.32083 2.4945 11.6205 1.4965C13.9198 0.498833 16.3868 0 19.0215 0C21.6435 0 24.108 0.498666 26.415 1.496C28.722 2.49333 30.7307 3.84683 32.441 5.5565C34.1513 7.26617 35.5055 9.27667 36.5035 11.588C37.5012 13.8993 38 16.3645 38 18.9835C38 21.6152 37.5013 24.08 36.504 26.378C35.5067 28.6763 34.1532 30.6858 32.4435 32.4065C30.7338 34.1275 28.7233 35.49 26.412 36.494C24.1007 37.498 21.6355 38 19.0165 38ZM19.025 35.7305C23.6647 35.7305 27.6088 34.1012 30.8575 30.8425C34.1062 27.5835 35.7305 23.6277 35.7305 18.975C35.7305 14.3353 34.1093 10.3912 30.867 7.1425C27.6247 3.89383 23.669 2.2695 19 2.2695C14.364 2.2695 10.4165 3.89067 7.1575 7.133C3.89883 10.3753 2.2695 14.331 2.2695 19C2.2695 23.636 3.89883 27.5835 7.1575 30.8425C10.4165 34.1012 14.3723 35.7305 19.025 35.7305ZM19.1195 10.154C20.1655 10.154 21.0815 10.4733 21.8675 11.112C22.6532 11.7507 23.046 12.5647 23.046 13.554C23.046 14.3923 22.8045 15.129 22.3215 15.764C21.8385 16.3987 21.2878 16.9953 20.6695 17.554C19.9435 18.1773 19.3093 18.8652 18.767 19.6175C18.225 20.3698 17.9347 21.214 17.896 22.15C17.8833 22.4397 17.9862 22.6705 18.2045 22.8425C18.4232 23.0142 18.678 23.1 18.969 23.1C19.2793 23.1 19.537 22.9987 19.742 22.796C19.9467 22.5937 20.0737 22.3373 20.123 22.027C20.236 21.3527 20.4963 20.7385 20.904 20.1845C21.3117 19.6308 21.7895 19.1257 22.3375 18.669C23.1125 17.9923 23.7635 17.2243 24.2905 16.365C24.8172 15.5053 25.0805 14.5657 25.0805 13.546C25.0805 11.982 24.5068 10.677 23.3595 9.631C22.2122 8.58467 20.845 8.0615 19.258 8.0615C18.1373 8.0615 17.0655 8.3115 16.0425 8.8115C15.0192 9.3115 14.1768 10.0192 13.5155 10.9345C13.3335 11.1912 13.2545 11.4672 13.2785 11.7625C13.3028 12.0578 13.4245 12.2943 13.6435 12.472C13.9605 12.6753 14.278 12.7367 14.596 12.656C14.914 12.575 15.1768 12.3897 15.3845 12.1C15.8352 11.5033 16.3825 11.0298 17.0265 10.6795C17.6705 10.3292 18.3682 10.154 19.1195 10.154Z" fill="white"/>
</svg>
