<svg width="30" height="29" viewBox="0 0 30 29" fill="none" xmlns="http://www.w3.org/2000/svg">
<path d="M15 13.3545C13.075 13.3545 11.488 12.73 10.239 11.481C8.99 10.2316 8.3655 8.64129 8.3655 6.70996C8.3655 4.77863 8.99 3.19163 10.239 1.94896C11.488 0.706293 13.075 0.0849609 15 0.0849609C16.925 0.0849609 18.512 0.706293 19.761 1.94896C21.01 3.19163 21.6345 4.77863 21.6345 6.70996C21.6345 8.64129 21.01 10.2316 19.761 11.481C18.512 12.73 16.925 13.3545 15 13.3545ZM0 26.308V24.8195C0 23.7451 0.284667 22.8093 0.854 22.012C1.42333 21.2146 2.163 20.6018 3.073 20.1735C5.17833 19.2378 7.20767 18.5326 9.161 18.058C11.1143 17.5836 13.0605 17.3465 14.9995 17.3465C16.9382 17.3465 18.8793 17.5888 20.823 18.0735C22.7667 18.5581 24.7868 19.2626 26.8835 20.187C27.8295 20.6143 28.5853 21.2246 29.151 22.018C29.717 22.8113 30 23.7451 30 24.8195V26.308C30 26.9406 29.7735 27.4835 29.3205 27.9365C28.8678 28.3895 28.3252 28.616 27.6925 28.616H2.3075C1.67483 28.616 1.13217 28.3895 0.6795 27.9365C0.2265 27.4835 0 26.9406 0 26.308ZM2.2695 26.3465H27.7305V24.8195C27.7305 24.2991 27.5658 23.8005 27.2365 23.3235C26.9072 22.8465 26.477 22.4721 25.946 22.2005C23.9793 21.2441 22.1243 20.5743 20.381 20.191C18.6377 19.8076 16.844 19.616 15 19.616C13.156 19.616 11.3488 19.8076 9.5785 20.191C7.80817 20.5743 5.95633 21.2441 4.023 22.2005C3.49233 22.4721 3.06733 22.8465 2.748 23.3235C2.429 23.8005 2.2695 24.2991 2.2695 24.8195V26.3465ZM15 11.085C16.2487 11.085 17.2883 10.6696 18.119 9.83896C18.95 9.0083 19.3655 7.96863 19.3655 6.71996C19.3655 5.47096 18.95 4.43113 18.119 3.60046C17.2883 2.76979 16.2487 2.35446 15 2.35446C13.7513 2.35446 12.7117 2.76979 11.881 3.60046C11.05 4.43113 10.6345 5.47096 10.6345 6.71996C10.6345 7.96863 11.05 9.0083 11.881 9.83896C12.7117 10.6696 13.7513 11.085 15 11.085Z" fill="white"/>
</svg>
