<svg width="29" height="29" viewBox="0 0 29 29" fill="none" xmlns="http://www.w3.org/2000/svg">
<path d="M7.62753 12.9899L12.9921 0.919678C14.0591 0.919678 15.0825 1.34357 15.837 2.0981C16.5916 2.85263 17.0154 3.876 17.0154 4.94307V10.3076H24.6062C24.9951 10.3032 25.3802 10.3834 25.7349 10.5426C26.0896 10.7018 26.4055 10.9362 26.6607 11.2296C26.9158 11.5231 27.1041 11.8684 27.2125 12.2418C27.3209 12.6153 27.3469 13.0078 27.2885 13.3922L25.4377 25.4624C25.3408 26.102 25.0159 26.685 24.523 27.1039C24.0301 27.5229 23.4024 27.7496 22.7555 27.7423H7.62753M7.62753 12.9899V27.7423M7.62753 12.9899H3.60414C2.89276 12.9899 2.21051 13.2725 1.70749 13.7755C1.20447 14.2785 0.921875 14.9607 0.921875 15.6721V25.06C0.921875 25.7714 1.20447 26.4537 1.70749 26.9567C2.21051 27.4597 2.89276 27.7423 3.60414 27.7423H7.62753" stroke="white" stroke-width="1.83927" stroke-linecap="round" stroke-linejoin="round"/>
</svg>
