<svg width="42" height="29" viewBox="0 0 42 29" fill="none" xmlns="http://www.w3.org/2000/svg">
<path d="M32.1 9.56996L39.8 1.86996C40.0217 1.64663 40.2847 1.53496 40.589 1.53496C40.8937 1.53496 41.164 1.64813 41.4 1.87446C41.636 2.10046 41.7507 2.37229 41.744 2.68996C41.7377 3.00729 41.623 3.27746 41.4 3.50046L33.1115 11.7695C32.8222 12.0568 32.4845 12.2005 32.0985 12.2005C31.7122 12.2005 31.3755 12.0568 31.0885 11.7695L27.05 7.73096C26.827 7.50396 26.7123 7.23763 26.706 6.93196C26.6993 6.62629 26.815 6.35563 27.053 6.11996C27.2823 5.89663 27.55 5.78496 27.856 5.78496C28.1623 5.78496 28.427 5.89663 28.65 6.11996L32.1 9.56996ZM15 13.3545C13.075 13.3545 11.488 12.73 10.239 11.481C8.99 10.2316 8.3655 8.64129 8.3655 6.70996C8.3655 4.77863 8.99 3.19163 10.239 1.94896C11.488 0.706293 13.075 0.0849609 15 0.0849609C16.925 0.0849609 18.512 0.706293 19.761 1.94896C21.01 3.19163 21.6345 4.77863 21.6345 6.70996C21.6345 8.64129 21.01 10.2316 19.761 11.481C18.512 12.73 16.925 13.3545 15 13.3545ZM0 26.308V24.819C0 23.8193 0.266 22.9023 0.798 22.068C1.33 21.2333 2.08833 20.6018 3.073 20.1735C5.368 19.1631 7.45217 18.4395 9.3255 18.0025C11.1988 17.5651 13.0872 17.3465 14.9905 17.3465C16.8942 17.3465 18.7807 17.5651 20.65 18.0025C22.5193 18.4395 24.6013 19.1631 26.896 20.1735C27.8807 20.6351 28.6442 21.275 29.1865 22.093C29.7288 22.9106 30 23.8193 30 24.819V26.308C30 26.9406 29.7735 27.4835 29.3205 27.9365C28.8678 28.3895 28.3252 28.616 27.6925 28.616H2.3075C1.67483 28.616 1.13217 28.3895 0.6795 27.9365C0.2265 27.4835 0 26.9406 0 26.308ZM2.2695 26.3465H27.7305V24.8195C27.7305 24.2991 27.571 23.8005 27.252 23.3235C26.9327 22.8465 26.4973 22.4721 25.946 22.2005C23.8103 21.2031 21.9213 20.523 20.279 20.16C18.637 19.7973 16.8773 19.616 15 19.616C13.1227 19.616 11.3547 19.7973 9.696 20.16C8.037 20.523 6.146 21.2031 4.023 22.2005C3.459 22.4721 3.02567 22.8465 2.723 23.3235C2.42067 23.8005 2.2695 24.2991 2.2695 24.8195V26.3465ZM15 11.085C16.2487 11.085 17.2883 10.6696 18.119 9.83896C18.95 9.0083 19.3655 7.96863 19.3655 6.71996C19.3655 5.47096 18.95 4.43113 18.119 3.60046C17.2883 2.76979 16.2487 2.35446 15 2.35446C13.7513 2.35446 12.7117 2.76979 11.881 3.60046C11.05 4.43113 10.6345 5.47096 10.6345 6.71996C10.6345 7.96863 11.05 9.0083 11.881 9.83896C12.7117 10.6696 13.7513 11.085 15 11.085Z" fill="white"/>
</svg>
