<svg width="17" height="17" viewBox="0 0 17 17" fill="none" xmlns="http://www.w3.org/2000/svg">
<path d="M1.16723 11.8613C1.05667 11.9718 0.980136 12.1079 0.946119 12.2525L0.0276609 15.9433C-0.0488773 16.2325 0.0361652 16.5386 0.248771 16.7512C0.410352 16.9128 0.631462 16.9979 0.852572 16.9979C0.920606 16.9979 0.98864 16.9979 1.05667 16.9723L4.74752 16.0454C4.90059 16.0114 5.03666 15.9348 5.13871 15.8243L13.7705 7.19246L9.79903 3.22098L1.16723 11.8613ZM15.0206 0.516633C14.3318 -0.172211 13.2007 -0.172211 12.5119 0.516633L10.9981 2.03039L14.9696 6.00187L16.4834 4.48811C17.1722 3.79927 17.1722 2.67671 16.4834 1.97936L15.0206 0.516633Z" fill="#1E2055"/>
</svg>
