<svg width="20" height="20" viewBox="0 0 20 20" fill="none" xmlns="http://www.w3.org/2000/svg">
<path d="M10 0C4.47727 0 0 4.47727 0 10C0 12.42 0.86 14.64 2.29091 16.3691L0.272727 20H10C15.5227 20 20 15.5227 20 10C20 4.47727 15.5227 0 10 0ZM8.28545 7.12091L7.98182 7.97818L6.26818 7.37273L6.57091 6.51545C6.75859 5.98322 7.06755 5.50197 7.47334 5.10976C7.87913 4.71755 8.37062 4.42514 8.90893 4.25567C9.44724 4.08621 10.0176 4.04433 10.5749 4.13335C11.1322 4.22237 11.6611 4.43985 12.1198 4.76858C12.5786 5.09731 12.9545 5.52828 13.2179 6.02739C13.4813 6.5265 13.625 7.08006 13.6375 7.64427C13.6501 8.20849 13.5311 8.76788 13.2902 9.2782C13.0492 9.78852 12.6928 10.2358 12.2491 10.5845C11.8564 10.8936 11.5064 11.19 11.2527 11.5018C11.0027 11.8091 10.9091 12.0564 10.9091 12.2727V13.4091H9.09091V12.2727C9.09091 11.4845 9.44545 10.8427 9.84182 10.3545C10.2345 9.87273 10.7273 9.46909 11.1236 9.15636C11.3449 8.98186 11.5226 8.75832 11.6427 8.50336C11.7628 8.24841 11.8219 7.96904 11.8155 7.6873C11.8091 7.40556 11.7373 7.12917 11.6058 6.87994C11.4742 6.63072 11.2865 6.41548 11.0575 6.25123C10.8285 6.08698 10.5645 5.97821 10.2862 5.9335C10.008 5.8888 9.72316 5.90939 9.45424 5.99364C9.18532 6.0779 8.93966 6.22351 8.73666 6.41898C8.53367 6.61446 8.37889 6.85445 8.28455 7.12M10.9118 14.3173V16.1391H9.09091V14.3182L10.9118 14.3173Z" fill="#1E2055"/>
</svg>
