<svg width="15" height="14" viewBox="0 0 15 14" fill="none" xmlns="http://www.w3.org/2000/svg">
<path d="M9.55996 5.65677C9.56957 5.8152 9.53665 5.97237 9.46578 6.10642C9.3949 6.24047 9.2896 6.34474 9.1645 6.40474L6.59903 7.6608L5.81005 10.776C5.77099 10.9265 5.69318 11.0586 5.58707 11.1547C5.48095 11.2507 5.35162 11.3061 5.21644 11.3134C5.08126 11.3207 4.94671 11.2796 4.83087 11.1955C4.71503 11.1114 4.62344 10.9884 4.56841 10.8431L3.448 7.82754L0.762792 6.85838C0.633098 6.81032 0.518462 6.71738 0.434286 6.59203C0.350109 6.46669 0.300425 6.31494 0.291907 6.15718C0.283389 5.99943 0.316446 5.84321 0.386637 5.70953C0.456827 5.57585 0.560789 5.4711 0.684556 5.40936L3.25251 4.15317L4.03901 1.03808C4.07807 0.887644 4.15588 0.755516 4.26199 0.65945C4.36811 0.563383 4.49744 0.507978 4.63262 0.50068C4.7678 0.493381 4.90235 0.534537 5.01819 0.61862C5.13403 0.702703 5.22562 0.825684 5.28064 0.971041L6.40106 3.98656L9.08627 4.95573C9.2171 5.00191 9.33302 5.09424 9.41791 5.21988C9.5028 5.34552 9.55245 5.49823 9.55996 5.65677Z" fill="white"/>
<path d="M14.4061 9.26828C14.4116 9.3588 14.3889 9.44883 14.341 9.52582C14.2931 9.60282 14.2224 9.66298 14.1387 9.69792L12.4226 10.4292L11.8809 12.2142C11.8541 12.3004 11.8016 12.3764 11.7304 12.4318C11.6592 12.4873 11.5727 12.5196 11.4826 12.5245C11.3925 12.5294 11.303 12.5065 11.2262 12.459C11.1495 12.4116 11.0891 12.3417 11.0531 12.2589L10.322 10.5407L8.53755 10.0003C8.45137 9.97354 8.37545 9.92099 8.32 9.84976C8.26455 9.77853 8.23222 9.69203 8.22735 9.60188C8.22248 9.51174 8.24531 9.42226 8.29277 9.34547C8.34023 9.26869 8.41005 9.20827 8.49284 9.17234L10.2105 8.441L10.7506 6.65605C10.7774 6.56985 10.83 6.49391 10.9012 6.43844C10.9724 6.38298 11.0588 6.35064 11.149 6.34577C11.2391 6.34091 11.3285 6.36375 11.4053 6.41123C11.4821 6.4587 11.5425 6.52854 11.5784 6.61136L12.3096 8.32961L14.094 8.86992C14.1809 8.89565 14.2577 8.94784 14.3136 9.01923C14.3696 9.09063 14.4019 9.17767 14.4061 9.26828Z" fill="white"/>
</svg>