<svg width="154" 
     height="154" 
     viewBox="0 0 154 154" 
     fill="none" 
     xmlns="http://www.w3.org/2000/svg"
>
    <mask id="path-1-inside-1_3975_42144" 
          fill="white"
    >
        <path d="M77 0C119.526 2.47398e-05 154 34.4741 154 77C154 119.526 119.526 154 77 154C62.6032 154 49.1297 150.048 37.6038 143.171C36.851 142.722 35.9292 142.649 35.1236 142.994L16.2432 151.087C14.0168 152.041 11.7656 149.79 12.7198 147.563L19.8414 130.947C20.2591 129.972 20.0604 128.845 19.357 128.052C7.31314 114.463 1.13956e-05 96.5858 0 77C0 34.4741 34.4741 0 77 0Z"/>
    </mask>
    <path d="M77 0C119.526 2.47398e-05 154 34.4741 154 77C154 119.526 119.526 154 77 154C62.6032 154 49.1297 150.048 37.6038 143.171C36.851 142.722 35.9292 142.649 35.1236 142.994L16.2432 151.087C14.0168 152.041 11.7656 149.79 12.7198 147.563L19.8414 130.947C20.2591 129.972 20.0604 128.845 19.357 128.052C7.31314 114.463 1.13956e-05 96.5858 0 77C0 34.4741 34.4741 0 77 0Z" 
          fill="currentColor"
    />
    <path d="M77 0L77 -8.94427H77V0ZM154 77L162.944 77V77H154ZM77 154V162.944H77L77 154ZM0 77H-8.94427V77L0 77ZM19.8414 130.947L11.6203 127.423L19.8414 130.947ZM19.357 128.052L26.0506 122.119L19.357 128.052ZM16.2432 151.087L12.7196 142.866L16.2432 151.087ZM12.7198 147.563L4.49874 144.04L12.7198 147.563ZM37.6038 143.171L42.1867 135.49L37.6038 143.171ZM35.1236 142.994L31.6 134.773L35.1236 142.994ZM77 0L77 8.94427C114.586 8.94429 145.056 39.4139 145.056 77H154H162.944C162.944 29.5343 124.466 -8.94424 77 -8.94427L77 0ZM154 77L145.056 77C145.056 114.586 114.586 145.056 77 145.056L77 154L77 162.944C124.466 162.944 162.944 124.466 162.944 77L154 77ZM77 154V145.056C64.2615 145.056 52.3658 141.563 42.1867 135.49L37.6038 143.171L33.0208 150.852C45.8936 158.533 60.9449 162.944 77 162.944V154ZM35.1236 142.994L31.6 134.773L12.7196 142.866L16.2432 151.087L19.7668 159.308L38.6471 151.215L35.1236 142.994ZM12.7198 147.563L20.9409 151.087L28.0624 134.47L19.8414 130.947L11.6203 127.423L4.49874 144.04L12.7198 147.563ZM19.357 128.052L26.0506 122.119C15.4006 110.103 8.94428 94.3165 8.94427 77L0 77L-8.94427 77C-8.94426 98.8551 -0.774337 118.823 12.6635 133.984L19.357 128.052ZM0 77H8.94427C8.94427 39.4139 39.4139 8.94427 77 8.94427V0V-8.94427C29.5343 -8.94427 -8.94427 29.5343 -8.94427 77H0ZM19.8414 130.947L28.0624 134.47C29.8887 130.209 28.9739 125.417 26.0506 122.119L19.357 128.052L12.6635 133.984C11.1469 132.273 10.6295 129.735 11.6203 127.423L19.8414 130.947ZM16.2432 151.087L12.7196 142.866C17.9146 140.639 23.1673 145.892 20.9409 151.087L12.7198 147.563L4.49874 144.04C0.363927 153.688 10.1191 163.443 19.7668 159.308L16.2432 151.087ZM37.6038 143.171L42.1867 135.49C39.0506 133.619 35.1192 133.265 31.6 134.773L35.1236 142.994L38.6471 151.215C36.7392 152.033 34.6515 151.825 33.0208 150.852L37.6038 143.171Z" 
          fill="currentColor" 
          mask="url(#path-1-inside-1_3975_42144)"
    />
</svg>
