<svg width="551" height="551" viewBox="0 0 551 551" fill="none" xmlns="http://www.w3.org/2000/svg">
<path d="M287.381 441.133V415.522C287.381 406.987 294.3 400.068 302.835 400.068V400.068C311.371 400.068 318.29 406.987 318.29 415.522V437.6" stroke="white" stroke-width="16" stroke-linecap="round" stroke-linejoin="round"/>
<path d="M318.864 225.653V179.618L424.36 102.017V442.017H445.459H349.194M104.576 442.017H126.994M126.994 442.017V139.502H229.193V344.686H161.939M126.994 442.017H349.194M161.939 344.686V361.653M161.939 344.686H258.204V442.017V225.653H349.194V442.017" stroke="white" stroke-width="16" stroke-linecap="round" stroke-linejoin="round"/>
<circle cx="163.303" cy="380.64" r="12.8052" stroke="white" stroke-width="16" stroke-linecap="round" stroke-linejoin="round"/>
<circle cx="214.524" cy="375.341" r="12.8052" stroke="white" stroke-width="16" stroke-linecap="round" stroke-linejoin="round"/>
<circle cx="163.303" cy="406.25" r="12.8052" stroke="white" stroke-width="16" stroke-linecap="round" stroke-linejoin="round"/>
<circle cx="214.524" cy="400.951" r="12.8052" stroke="white" stroke-width="16" stroke-linecap="round" stroke-linejoin="round"/>
<circle cx="383.199" cy="398.302" r="19.0389" stroke="white" stroke-width="16" stroke-linecap="round" stroke-linejoin="round"/>
<path d="M151.381 166.484V185.029" stroke="white" stroke-width="16" stroke-linecap="round" stroke-linejoin="round"/>
<path d="M151.381 211.523V229.185" stroke="white" stroke-width="16" stroke-linecap="round" stroke-linejoin="round"/>
<path d="M151.381 255.679V274.224" stroke="white" stroke-width="16" stroke-linecap="round" stroke-linejoin="round"/>
<path d="M151.381 300.718V319.263" stroke="white" stroke-width="16" stroke-linecap="round" stroke-linejoin="round"/>
<path d="M206.135 166.484V185.029" stroke="white" stroke-width="16" stroke-linecap="round" stroke-linejoin="round"/>
<path d="M206.135 211.523V229.185" stroke="white" stroke-width="16" stroke-linecap="round" stroke-linejoin="round"/>
<path d="M206.135 255.679V274.224" stroke="white" stroke-width="16" stroke-linecap="round" stroke-linejoin="round"/>
<path d="M206.135 300.718V319.263" stroke="white" stroke-width="16" stroke-linecap="round" stroke-linejoin="round"/>
<path d="M400.42 196.51V205.341" stroke="white" stroke-width="16" stroke-linecap="round" stroke-linejoin="round"/>
<path d="M400.42 235.367V243.315" stroke="white" stroke-width="16" stroke-linecap="round" stroke-linejoin="round"/>
<path d="M400.42 273.341V282.172" stroke="white" stroke-width="16" stroke-linecap="round" stroke-linejoin="round"/>
<path d="M400.42 312.198V321.029" stroke="white" stroke-width="16" stroke-linecap="round" stroke-linejoin="round"/>
<path d="M400.42 351.055V359.886" stroke="white" stroke-width="16" stroke-linecap="round" stroke-linejoin="round"/>
<path d="M178.758 166.484V185.029" stroke="white" stroke-width="16" stroke-linecap="round" stroke-linejoin="round"/>
<path d="M178.758 211.523V229.185" stroke="white" stroke-width="16" stroke-linecap="round" stroke-linejoin="round"/>
<path d="M178.758 255.679V274.224" stroke="white" stroke-width="16" stroke-linecap="round" stroke-linejoin="round"/>
<path d="M178.758 300.718V319.263" stroke="white" stroke-width="16" stroke-linecap="round" stroke-linejoin="round"/>
<path d="M375.693 196.51V205.341" stroke="white" stroke-width="16" stroke-linecap="round" stroke-linejoin="round"/>
<path d="M375.693 235.367V243.315" stroke="white" stroke-width="16" stroke-linecap="round" stroke-linejoin="round"/>
<path d="M375.693 273.341V282.172" stroke="white" stroke-width="16" stroke-linecap="round" stroke-linejoin="round"/>
<path d="M375.693 312.198V321.029" stroke="white" stroke-width="16" stroke-linecap="round" stroke-linejoin="round"/>
<path d="M375.693 351.055V359.886" stroke="white" stroke-width="16" stroke-linecap="round" stroke-linejoin="round"/>
<path d="M382.758 420.821V439.367" stroke="white" stroke-width="16" stroke-linecap="round" stroke-linejoin="round"/>
<path d="M214.082 420.821V439.367" stroke="white" stroke-width="16" stroke-linecap="round" stroke-linejoin="round"/>
<path d="M287.381 362.536L320.939 362.536" stroke="white" stroke-width="16" stroke-linecap="round" stroke-linejoin="round"/>
<path d="M287.381 260.978L320.939 260.978" stroke="white" stroke-width="16" stroke-linecap="round" stroke-linejoin="round"/>
<path d="M287.381 329.86L320.939 329.86" stroke="white" stroke-width="16" stroke-linecap="round" stroke-linejoin="round"/>
<path d="M287.381 225.653L320.939 225.653" stroke="white" stroke-width="16" stroke-linecap="round" stroke-linejoin="round"/>
<path d="M287.381 295.419L320.939 295.419" stroke="white" stroke-width="16" stroke-linecap="round" stroke-linejoin="round"/>
<path d="M161.979 420.821V439.367" stroke="white" stroke-width="16" stroke-linecap="round" stroke-linejoin="round"/>
</svg>
