<svg width="551" height="551" viewBox="0 0 551 551" fill="none" xmlns="http://www.w3.org/2000/svg">
<circle cx="165.229" cy="212.456" r="52.9555" transform="rotate(-2.18764 165.229 212.456)" stroke="white" stroke-width="17"/>
<path d="M308.756 120.432C346.424 118.993 377.895 147.893 379.301 184.709C380.707 221.525 351.533 252.741 313.865 254.18C276.197 255.619 244.727 226.719 243.32 189.903C241.914 153.087 271.088 121.871 308.756 120.432Z" stroke="white" stroke-width="17"/>
<rect x="150.717" y="317.439" width="101.442" height="51.1598" rx="12.5" transform="rotate(-5.23975 150.717 317.439)" stroke="white" stroke-width="17"/>
<rect x="150.717" y="317.439" width="101.442" height="51.1598" rx="12.5" transform="rotate(-5.23975 150.717 317.439)" stroke="white" stroke-width="17"/>
<rect x="150.717" y="317.439" width="101.442" height="51.1598" rx="12.5" transform="rotate(-5.23975 150.717 317.439)" stroke="white" stroke-width="17"/>
<rect x="303.215" y="308.483" width="35.1973" height="9.49767" rx="4.74884" transform="rotate(-5.23975 303.215 308.483)" stroke="white" stroke-width="9.49767"/>
<rect x="303.215" y="308.483" width="35.1973" height="9.49767" rx="4.74884" transform="rotate(-5.23975 303.215 308.483)" stroke="white" stroke-width="9.49767"/>
<rect x="303.215" y="308.483" width="35.1973" height="9.49767" rx="4.74884" transform="rotate(-5.23975 303.215 308.483)" stroke="white" stroke-width="9.49767"/>
<rect x="306.174" y="340.749" width="35.1973" height="9.49767" rx="4.74884" transform="rotate(-5.23975 306.174 340.749)" stroke="white" stroke-width="9.49767"/>
<rect x="306.174" y="340.749" width="35.1973" height="9.49767" rx="4.74884" transform="rotate(-5.23975 306.174 340.749)" stroke="white" stroke-width="9.49767"/>
<rect x="306.174" y="340.749" width="35.1973" height="9.49767" rx="4.74884" transform="rotate(-5.23975 306.174 340.749)" stroke="white" stroke-width="9.49767"/>
<rect x="111.438" y="280.657" width="279.104" height="133.845" rx="12.5" transform="rotate(-5.23975 111.438 280.657)" stroke="white" stroke-width="17"/>
<rect x="111.438" y="280.657" width="279.104" height="133.845" rx="12.5" transform="rotate(-5.23975 111.438 280.657)" stroke="white" stroke-width="17"/>
<rect x="111.438" y="280.657" width="279.104" height="133.845" rx="12.5" transform="rotate(-5.23975 111.438 280.657)" stroke="white" stroke-width="17"/>
<path d="M396.272 286.243L428.174 257.045C431.224 254.253 436.152 256.159 436.529 260.276L444.418 346.299C444.768 350.112 440.877 352.887 437.386 351.315L400.726 334.805" stroke="white" stroke-width="17" stroke-linecap="round"/>
<path d="M296.078 147.399L301.671 162.008" stroke="white" stroke-width="17" stroke-linecap="round"/>
<path d="M321.244 213.141L326.837 227.75" stroke="white" stroke-width="17" stroke-linecap="round"/>
<path d="M271.281 202.954L285.891 197.361" stroke="white" stroke-width="17" stroke-linecap="round"/>
<path d="M337.023 177.79L351.633 172.197" stroke="white" stroke-width="17" stroke-linecap="round"/>
<path d="M173.27 180.829L170.24 192.576" stroke="white" stroke-width="17" stroke-linecap="round"/>
<path d="M159.639 233.696L156.609 245.443" stroke="white" stroke-width="17" stroke-linecap="round"/>
<path d="M132.637 204.813L144.384 207.842" stroke="white" stroke-width="17" stroke-linecap="round"/>
<path d="M185.498 218.438L197.245 221.467" stroke="white" stroke-width="17" stroke-linecap="round"/>
</svg>
