<svg width="551" height="551" viewBox="0 0 551 551" fill="none" xmlns="http://www.w3.org/2000/svg">
<path d="M174.032 254.659C149.655 254.659 102.018 261.384 102.018 312.377C102.018 367.853 146.12 371.215 174.032 371.215M174.032 371.215C195.618 371.776 246.382 358.439 276.751 300.609C314.712 228.322 339.833 219.917 373.887 219.917M174.032 371.215C228.555 372.149 344.857 374.017 373.887 374.017C410.173 374.017 447.018 349.921 447.018 300.609C447.018 251.297 407.94 219.917 373.887 219.917M373.887 219.917C373.887 181.252 333.581 128.017 268.377 128.017C210.877 128.017 176.823 167.803 176.823 214.313M216.459 202.546C216.459 185.735 233.095 167.803 252.746 167.803" stroke="white" stroke-width="17" stroke-linecap="round" stroke-linejoin="round"/>
</svg>
