<?xml version="1.0" encoding="UTF-8" standalone="no"?>
<svg
   xmlns:dc="http://purl.org/dc/elements/1.1/"
   xmlns:cc="http://creativecommons.org/ns#"
   xmlns:rdf="http://www.w3.org/1999/02/22-rdf-syntax-ns#"
   xmlns:svg="http://www.w3.org/2000/svg"
   xmlns="http://www.w3.org/2000/svg"
   xmlns:sodipodi="http://sodipodi.sourceforge.net/DTD/sodipodi-0.dtd"
   xmlns:inkscape="http://www.inkscape.org/namespaces/inkscape"
   width="167.11378"
   height="150.6579"
   viewBox="0 0 44.215998 39.860972"
   version="1.1"
   id="svg50"
   sodipodi:docname="logo.svg"
   inkscape:version="0.92.4 (5da689c313, 2019-01-14)">
  <metadata
     id="metadata56">
    <rdf:RDF>
      <cc:Work
         rdf:about="">
        <dc:format>image/svg+xml</dc:format>
        <dc:type
           rdf:resource="http://purl.org/dc/dcmitype/StillImage" />
        <dc:title></dc:title>
      </cc:Work>
    </rdf:RDF>
  </metadata>
  <defs
     id="defs54" />
  <sodipodi:namedview
     pagecolor="#ffffff"
     bordercolor="#666666"
     borderopacity="1"
     objecttolerance="10"
     gridtolerance="10"
     guidetolerance="10"
     inkscape:pageopacity="0"
     inkscape:pageshadow="2"
     inkscape:window-width="2880"
     inkscape:window-height="1659"
     id="namedview52"
     showgrid="false"
     fit-margin-top="0"
     fit-margin-left="0"
     fit-margin-right="0"
     fit-margin-bottom="0"
     inkscape:zoom="1.3479664"
     inkscape:cx="612.82799"
     inkscape:cy="-103.70186"
     inkscape:window-x="-13"
     inkscape:window-y="-13"
     inkscape:window-maximized="1"
     inkscape:current-layer="svg50" />
  <g
     id="g880"
     transform="translate(0,-5.1314594e-4)">
    <path
       id="path2"
       d="M 5.795,9.869 11.511,0.003 34.53,0 l 5.685,9.964 0.007,19.932 -5.691,9.958 -23.012,0.008 -5.782,-9.965 z"
       inkscape:connector-curvature="0"
       style="fill:#4d4d4d" />
    <path
       id="path4"
       d="M 5.738,29.894 H 16.112 L 10.414,19.853 15.048,9.871 5.796,9.869 0,19.934"
       inkscape:connector-curvature="0"
       style="fill:#ededed" />
    <path
       id="path6"
       d="m 19.258,29.894 h 7.583 L 33.546,20.121 26.958,9.965 h -8.92 l -5.373,9.814 z"
       inkscape:connector-curvature="0"
       style="fill:#e0e0e0" />
    <path
       id="path8"
       d="m 0,19.933 5.738,9.964 h 10.375 l -5.636,-9.93 z"
       inkscape:connector-curvature="0"
       style="fill:#acacac" />
    <path
       id="path10"
       d="m 12.774,19.935 6.485,9.962 h 7.582 l 6.6,-9.958 z"
       inkscape:connector-curvature="0"
       style="fill:#9e9e9e" />
    <path
       id="path12"
       d="m 15.342,19.94 -1.957,0.57 -1.878,-0.571 7.667,-13.29 1.918,3.318"
       inkscape:connector-curvature="0"
       style="fill:#00b8e3" />
    <path
       id="path14"
       d="m 21.084,29.894 -1.908,3.332 -5.093,-5.487 -2.58,-7.797 v -0.004 h 3.838"
       inkscape:connector-curvature="0"
       style="fill:#33c6e9" />
    <path
       id="path16"
       d="m 11.508,19.939 h -0.004 v 0.003 l -1.917,3.322 -1.925,-3.307 1.952,-3.386 5.728,-9.92 h 3.834"
       inkscape:connector-curvature="0"
       style="fill:#008aaa" />
    <path
       id="path18"
       d="M 32.604,29.894 H 44.216 L 44.209,9.964 H 32.604 Z"
       inkscape:connector-curvature="0"
       style="fill:#d4d4d4" />
    <path
       id="path20"
       d="m 32.604,19.966 v 9.93 h 11.591 v -9.93 z"
       inkscape:connector-curvature="0"
       style="fill:#919191" />
    <path
       id="path22"
       d="m 19.178,33.23 h -3.837 l -5.754,-9.967 1.917,-3.32 z"
       inkscape:connector-curvature="0"
       style="fill:#00b8e3" />
    <path
       id="path24"
       d="M 34.519,19.939 26.85,33.227 c -0.705,-1.036 -1.913,-3.33 -1.913,-3.33 l 5.753,-9.96 z"
       inkscape:connector-curvature="0"
       style="fill:#008aaa" />
    <path
       id="path26"
       d="m 30.68,33.227 -3.83,-10e-4 7.67,-13.288 1.916,-3.318 1.922,3.34 m -3.839,-0.021 h -3.828 l -5.755,-9.973 1.905,-3.314 4.658,5.922 z"
       inkscape:connector-curvature="0"
       style="fill:#00b8e3" />
    <path
       id="path28"
       d="m 36.436,16.618 v 0.003 l -1.917,3.318 -7.677,-13.286 3.841,0.002 z"
       inkscape:connector-curvature="0"
       style="fill:#33c6e9" />
  </g>
</svg>
