<svg width="339" height="279" viewBox="0 0 339 279" fill="none" xmlns="http://www.w3.org/2000/svg">
<path d="M212 1.00037C211.134 0.871835 210.254 0.877773 209.39 1.01797L107.39 17.518C106.284 17.6975 105.224 18.0939 104.272 18.6843C103.32 19.2747 102.494 20.0475 101.842 20.9582C101.189 21.869 100.724 22.8997 100.471 23.9911C100.218 25.0826 100.184 26.2132 100.37 27.318L103.51 45.918H82.7097C80.9425 45.9248 79.2214 46.4823 77.7857 47.5128C76.3501 48.5434 75.2714 49.9958 74.6997 51.668C74.6535 51.7151 74.6078 51.7628 74.5627 51.811L1.66269 164.811C1.40529 165.58 1.25913 166.381 1.22868 167.191C0.816168 167.887 0.505035 168.637 0.304688 169.421C0.393261 169.666 0.493029 169.906 0.603683 170.142C0.536108 170.393 0.48005 170.646 0.435684 170.902L18.2357 271.902C18.5835 273.869 19.6131 275.651 21.1436 276.935C22.6742 278.218 24.608 278.922 26.6057 278.922H312.606C314.615 278.921 316.56 278.209 318.094 276.911C319.628 275.613 320.652 273.814 320.986 271.832L337.986 170.832C337.989 170.729 337.99 170.626 337.99 170.523C338.019 170.218 338.031 169.911 338.027 169.605C338.053 169.544 338.078 169.483 338.103 169.421C338.078 169.214 338.045 169.008 338.005 168.804C337.993 168.492 337.964 168.181 337.917 167.872C337.871 167.644 337.815 167.418 337.749 167.194C337.652 166.867 337.535 166.546 337.399 166.233C337.293 165.944 337.171 165.661 337.034 165.385C336.998 165.287 336.96 165.19 336.919 165.094L271.719 55.094C271.212 54.4255 270.609 53.8358 269.929 53.344C269.592 51.366 268.565 49.5712 267.032 48.2773C265.498 46.9833 263.556 46.2737 261.549 46.274H225.949L218.559 8.17397C218.224 6.44649 217.361 4.86556 216.09 3.64935C214.818 2.43315 213.2 1.64161 211.459 1.38397L212 1.00037ZM203.98 19.1004L212.86 64.9004H124.26L118.87 32.9004L203.98 19.1004ZM87.9797 62.9004H106.68L107.75 69.2604C107.004 70.5153 106.594 71.9411 106.56 73.4004C106.56 75.6547 107.455 77.8167 109.049 79.4108C110.643 81.0048 112.805 81.9004 115.06 81.9004H225.06C227.314 81.9004 229.476 81.0048 231.07 79.4108C232.664 77.8167 233.56 75.6547 233.56 73.4004C233.557 72.0875 233.251 70.7931 232.665 69.6185C232.078 68.4439 231.228 67.4212 230.18 66.6304L229.457 62.9004H257.157C257.196 63.0606 257.241 63.2197 257.29 63.3774L314.99 160.877H220.79C219.4 160.878 218.031 161.219 216.804 161.871C215.577 162.523 214.528 163.466 213.75 164.617L190.55 198.917H152.25L123.75 164.017C122.952 163.039 121.947 162.251 120.808 161.709C119.668 161.168 118.422 160.887 117.16 160.887H24.4597L87.9797 62.9004ZM99.0797 95.9004C96.8253 95.9004 94.6633 96.7959 93.0693 98.39C91.4752 99.984 90.5797 102.146 90.5797 104.4C90.5797 106.655 91.4752 108.817 93.0693 110.411C94.6633 112.005 96.8253 112.9 99.0797 112.9H252.08C254.334 112.9 256.496 112.005 258.09 110.411C259.684 108.817 260.58 106.655 260.58 104.4C260.58 102.146 259.684 99.984 258.09 98.39C256.496 96.7959 254.334 95.9004 252.08 95.9004H99.0797ZM70.0797 128.9C67.8253 128.9 65.6633 129.796 64.0693 131.39C62.4752 132.984 61.5797 135.146 61.5797 137.4C61.5797 139.655 62.4752 141.817 64.0693 143.411C65.6633 145.005 67.8253 145.9 70.0797 145.9H278.08C280.334 145.9 282.496 145.005 284.09 143.411C285.684 141.817 286.58 139.655 286.58 137.4C286.58 135.146 285.684 132.984 284.09 131.39C282.496 129.796 280.334 128.9 278.08 128.9H70.0797ZM19.3797 177.9H113.48L141.98 212.8C142.777 213.779 143.782 214.567 144.922 215.108C146.062 215.65 147.308 215.931 148.57 215.93H195.37C196.759 215.931 198.126 215.591 199.354 214.941C200.581 214.291 201.63 213.35 202.41 212.2L225.61 177.9H320.21L306.11 261.8H34.1097L19.3797 177.9Z" fill="#000AFF"/>
</svg>
