<svg width="319" height="320" viewBox="0 0 319 320" fill="none" xmlns="http://www.w3.org/2000/svg">
<path d="M168.954 116.155C166.774 116.155 164.948 115.407 163.474 113.91C162.001 112.417 161.264 110.565 161.264 108.355C161.264 106.145 162.001 104.328 163.474 102.905C164.948 101.482 166.774 100.77 168.954 100.77H257.419C259.596 100.77 261.423 101.517 262.899 103.01C264.373 104.507 265.109 106.36 265.109 108.57C265.109 110.78 264.373 112.597 262.899 114.02C261.423 115.443 259.596 116.155 257.419 116.155H168.954ZM168.954 50C166.774 50 164.948 49.2517 163.474 47.755C162.001 46.2617 161.264 44.41 161.264 42.2C161.264 39.99 162.001 38.1733 163.474 36.75C164.948 35.3267 166.774 34.615 168.954 34.615H310.494C312.674 34.615 314.501 35.3633 315.974 36.86C317.448 38.3533 318.184 40.205 318.184 42.415C318.184 44.625 317.448 46.4417 315.974 47.865C314.501 49.2883 312.674 50 310.494 50H168.954ZM76.6044 319.885C55.5344 319.885 37.601 312.512 22.8044 297.765C8.00771 283.022 0.609375 265.062 0.609375 243.885C0.609375 229.858 4.35271 216.742 11.8394 204.535C19.326 192.332 29.686 182.41 42.9194 174.77V33.69C42.9194 23.99 46.131 15.95 52.5544 9.57001C58.981 3.19001 66.9294 0 76.3994 0C85.8727 0 93.8277 3.19001 100.264 9.57001C106.701 15.95 109.919 23.99 109.919 33.69V174.77C123.149 182.41 133.508 192.332 140.994 204.535C148.481 216.742 152.224 229.858 152.224 243.885C152.224 265.062 144.889 283.022 130.219 297.765C115.546 312.512 97.6744 319.885 76.6044 319.885ZM15.9944 243.885H136.839C136.839 232.345 133.673 221.453 127.339 211.21C121.006 200.967 112.249 192.487 101.069 185.77L94.5344 182.425V33.69C94.5344 28.6467 92.7444 24.335 89.1644 20.755C85.5844 17.175 81.336 15.385 76.4194 15.385C71.4994 15.385 67.2494 17.175 63.6694 20.755C60.0927 24.335 58.3044 28.6467 58.3044 33.69V182.425L52.1494 185.77C40.7127 192.487 31.8277 200.987 25.4944 211.27C19.161 221.55 15.9944 232.422 15.9944 243.885Z" fill="#000AFF"/>
</svg>
