<svg width="551" height="551" viewBox="0 0 551 551" fill="none" xmlns="http://www.w3.org/2000/svg">
<path d="M301.255 229.543C299.011 229.543 297.132 228.773 295.615 227.232C294.099 225.695 293.341 223.79 293.341 221.515C293.341 219.241 294.099 217.371 295.615 215.906C297.132 214.442 299.011 213.709 301.255 213.709H392.3C394.54 213.709 396.42 214.478 397.94 216.014C399.456 217.555 400.215 219.462 400.215 221.737C400.215 224.011 399.456 225.881 397.94 227.346C396.42 228.81 394.54 229.543 392.3 229.543H301.255ZM301.255 161.458C299.011 161.458 297.132 160.688 295.615 159.148C294.099 157.611 293.341 155.705 293.341 153.431C293.341 151.156 294.099 149.287 295.615 147.822C297.132 146.357 299.011 145.625 301.255 145.625H446.923C449.167 145.625 451.047 146.395 452.563 147.935C454.079 149.472 454.838 151.378 454.838 153.652C454.838 155.927 454.079 157.796 452.563 159.261C451.047 160.726 449.167 161.458 446.923 161.458H301.255ZM206.212 439.215C184.527 439.215 166.071 431.627 150.842 416.45C135.614 401.276 128 382.793 128 360.998C128 346.563 131.853 333.063 139.558 320.501C147.263 307.941 157.925 297.73 171.544 289.867V144.673C171.544 134.69 174.849 126.415 181.46 119.849C188.074 113.283 196.254 110 206.001 110C215.75 110 223.937 113.283 230.562 119.849C237.186 126.415 240.498 134.69 240.498 144.673V289.867C254.114 297.73 264.775 307.941 272.48 320.501C280.185 333.063 284.037 346.563 284.037 360.998C284.037 382.793 276.488 401.276 261.39 416.45C246.289 431.627 227.896 439.215 206.212 439.215ZM143.834 360.998H268.203C268.203 349.122 264.944 337.912 258.426 327.37C251.908 316.828 242.896 308.101 231.39 301.188L224.664 297.746V144.673C224.664 139.482 222.822 135.045 219.138 131.36C215.453 127.676 211.081 125.834 206.021 125.834C200.958 125.834 196.584 127.676 192.899 131.36C189.218 135.045 187.378 139.482 187.378 144.673V297.746L181.043 301.188C169.273 308.101 160.129 316.849 153.611 327.432C147.093 338.012 143.834 349.201 143.834 360.998Z" fill="white"/>
<path d="M301.255 229.543C299.011 229.543 297.132 228.773 295.615 227.232C294.099 225.695 293.341 223.79 293.341 221.515C293.341 219.241 294.099 217.371 295.615 215.906C297.132 214.442 299.011 213.709 301.255 213.709H392.3C394.54 213.709 396.42 214.478 397.94 216.014C399.456 217.555 400.215 219.462 400.215 221.737C400.215 224.011 399.456 225.881 397.94 227.346C396.42 228.81 394.54 229.543 392.3 229.543H301.255ZM301.255 161.458C299.011 161.458 297.132 160.688 295.615 159.148C294.099 157.611 293.341 155.705 293.341 153.431C293.341 151.156 294.099 149.287 295.615 147.822C297.132 146.357 299.011 145.625 301.255 145.625H446.923C449.167 145.625 451.047 146.395 452.563 147.935C454.079 149.472 454.838 151.378 454.838 153.652C454.838 155.927 454.079 157.796 452.563 159.261C451.047 160.726 449.167 161.458 446.923 161.458H301.255ZM206.212 439.215C184.527 439.215 166.071 431.627 150.842 416.45C135.614 401.276 128 382.793 128 360.998C128 346.563 131.853 333.063 139.558 320.501C147.263 307.941 157.925 297.73 171.544 289.867V144.673C171.544 134.69 174.849 126.415 181.46 119.849C188.074 113.283 196.254 110 206.001 110C215.75 110 223.937 113.283 230.562 119.849C237.186 126.415 240.498 134.69 240.498 144.673V289.867C254.114 297.73 264.775 307.941 272.48 320.501C280.185 333.063 284.037 346.563 284.037 360.998C284.037 382.793 276.488 401.276 261.39 416.45C246.289 431.627 227.896 439.215 206.212 439.215ZM143.834 360.998H268.203C268.203 349.122 264.944 337.912 258.426 327.37C251.908 316.828 242.896 308.101 231.39 301.188L224.664 297.746V144.673C224.664 139.482 222.822 135.045 219.138 131.36C215.453 127.676 211.081 125.834 206.021 125.834C200.958 125.834 196.584 127.676 192.899 131.36C189.218 135.045 187.378 139.482 187.378 144.673V297.746L181.043 301.188C169.273 308.101 160.129 316.849 153.611 327.432C147.093 338.012 143.834 349.201 143.834 360.998Z" fill="white"/>
</svg>
