<svg width="391" height="261" viewBox="0 0 391 261" fill="none" xmlns="http://www.w3.org/2000/svg">
<path d="M270.004 -0.000298808C268.888 -0.0472387 267.774 0.126108 266.725 0.509833C265.677 0.893558 264.714 1.48015 263.892 2.23608C263.07 2.992 262.405 3.90246 261.936 4.91543C261.466 5.92839 261.2 7.02402 261.154 8.1397L251.054 252.14C251.007 253.255 251.18 254.369 251.564 255.418C251.948 256.467 252.534 257.429 253.29 258.251C254.046 259.073 254.956 259.738 255.969 260.208C256.982 260.678 258.078 260.943 259.194 260.99C260.309 261.037 261.423 260.863 262.472 260.48C263.521 260.096 264.483 259.509 265.305 258.753C266.127 257.997 266.792 257.087 267.262 256.074C267.732 255.061 267.997 253.965 268.044 252.85L278.144 8.84971C278.191 7.73405 278.017 6.62007 277.634 5.57143C277.25 4.52279 276.663 3.56005 275.907 2.73818C275.151 1.91632 274.241 1.25145 273.228 0.781569C272.215 0.311691 271.119 0.0460072 270.004 -0.000298808ZM323.204 57.1997C320.955 57.349 318.859 58.3849 317.374 60.0797C316.637 60.9195 316.074 61.8961 315.715 62.9538C315.356 64.0116 315.21 65.1296 315.283 66.244C315.357 67.3585 315.65 68.4475 316.144 69.4488C316.639 70.4501 317.326 71.3441 318.167 72.0797L371.567 118.88L326.567 171.38C325.838 172.227 325.283 173.21 324.934 174.272C324.586 175.335 324.45 176.455 324.535 177.57C324.62 178.684 324.925 179.771 325.43 180.768C325.936 181.765 326.634 182.653 327.483 183.38C328.33 184.109 329.313 184.663 330.375 185.012C331.438 185.361 332.558 185.496 333.673 185.411C334.787 185.326 335.874 185.022 336.871 184.516C337.868 184.01 338.756 183.313 339.483 182.464L388.583 125.264L388.729 125.073C392.189 120.553 391.579 113.973 387.359 110.073L387.304 110.024L329.404 59.3239C327.709 57.838 325.493 57.0862 323.244 57.2339L323.204 57.1997ZM102.204 66.0197C101.104 65.8227 99.9754 65.8446 98.8837 66.0841C96.6852 66.5654 94.7674 67.899 93.5507 69.7924C92.3341 71.6858 91.918 73.9844 92.3937 76.1841L111.294 162.684C111.296 162.687 111.298 162.689 111.3 162.692C111.299 162.695 111.298 162.697 111.298 162.7L128.198 239.1C128.684 241.295 130.019 243.208 131.912 244.42C133.805 245.633 136.101 246.046 138.298 245.57C140.493 245.084 142.406 243.749 143.618 241.856C144.831 239.963 145.244 237.667 144.768 235.47L129.368 165.57C136.368 162.49 144.768 159.94 151.268 160.34C155.488 160.595 158.738 161.74 161.668 164.38C164.548 167.02 167.368 171.55 169.068 179.78C177.138 218.78 179.168 227.38 179.168 227.38C179.686 229.569 181.05 231.463 182.962 232.647C184.874 233.832 187.177 234.21 189.368 233.7C191.554 233.18 193.446 231.814 194.629 229.903C195.811 227.991 196.188 225.689 195.678 223.5C195.678 223.5 193.748 215.33 185.688 176.3C183.468 165.6 179.188 157.3 173.088 151.8C167.018 146.25 159.488 143.77 152.288 143.34C142.578 142.752 133.388 145.38 125.588 148.61L108.888 72.5101C108.529 70.8684 107.691 69.37 106.481 68.2041C105.27 67.0383 103.742 66.2574 102.088 65.9601L102.204 66.0197ZM191.504 68.4097C189.269 68.7058 187.244 69.8771 185.873 71.6661C184.503 73.4551 183.898 75.7153 184.194 77.9497L184.477 80.0997C184.773 82.334 185.944 84.3592 187.733 85.73C189.522 87.1008 191.782 87.705 194.017 87.4097C196.251 87.1136 198.276 85.9423 199.647 84.1533C201.018 82.3643 201.622 80.1041 201.327 77.8697L201.044 75.7197C200.748 73.4854 199.576 71.4602 197.787 70.0894C195.998 68.7186 193.738 68.1144 191.504 68.4097ZM46.5037 121.61C45.7611 121.582 45.0181 121.653 44.2937 121.819C42.0971 122.323 40.1907 123.679 38.9937 125.589L2.19372 184.189L2.07672 184.402C-0.61328 189.292 0.936722 195.602 5.58672 198.702L5.64532 198.741L65.0453 236.841C66.9386 238.045 69.2311 238.451 71.4228 237.971C73.6145 237.492 75.5277 236.165 76.7453 234.281C77.9491 232.387 78.3555 230.095 77.876 227.903C77.3964 225.712 76.0698 223.798 74.1853 222.581L19.9853 187.781L53.3853 134.581C54.5781 132.673 54.9658 130.37 54.4634 128.177C53.961 125.984 52.6096 124.079 50.7053 122.881C49.4397 122.088 47.9876 121.644 46.4953 121.591L46.5037 121.61ZM207.504 134.91C206.404 134.708 205.276 134.725 204.184 134.96C203.091 135.194 202.056 135.641 201.137 136.276C200.217 136.91 199.432 137.719 198.825 138.657C198.219 139.595 197.803 140.643 197.602 141.742C197.401 142.841 197.419 143.969 197.654 145.06L214.354 222.56C214.589 223.652 215.036 224.686 215.671 225.604C216.306 226.523 217.115 227.307 218.053 227.912C218.991 228.518 220.039 228.933 221.137 229.133C222.235 229.334 223.362 229.316 224.454 229.081C225.545 228.846 226.579 228.398 227.498 227.763C228.416 227.128 229.2 226.319 229.806 225.381C230.411 224.443 230.826 223.395 231.026 222.297C231.227 221.199 231.209 220.072 230.974 218.98L214.274 141.48C213.92 139.838 213.087 138.337 211.88 137.168C210.673 135.998 209.147 135.213 207.494 134.91L207.504 134.91Z" fill="#000AFF"/>
</svg>
