<svg width="551" height="551" viewBox="0 0 551 551" fill="none" xmlns="http://www.w3.org/2000/svg">
<path d="M178.475 200.7L197.405 287.17M214.28 363.598L197.405 287.17M197.405 287.17C214.06 278.169 247.299 266.461 255.141 304.388C263.209 343.403 265.188 351.773 265.188 351.773M300.315 347.134L283.653 269.602M270.368 203.152L270.652 205.301" stroke="white" stroke-width="17" stroke-linecap="round"/>
<path d="M347.408 134.802L337.291 378.436" stroke="white" stroke-width="17" stroke-linecap="round"/>
<path d="M123.744 256.431L87.1032 314.822C86.5039 315.91 86.8381 317.276 87.872 317.964L147.238 356.072" stroke="white" stroke-width="17" stroke-linecap="round"/>
<path d="M410.716 303.171L459.627 246.158C460.449 245.082 460.309 243.556 459.306 242.648L401.479 191.998" stroke="white" stroke-width="17" stroke-linecap="round"/>
</svg>
