<svg width="389" height="306" viewBox="0 0 389 306" fill="none" xmlns="http://www.w3.org/2000/svg">
<path d="M356.999 1.00016C356.363 0.97506 355.729 0.978964 355.089 1.01186C350.009 1.27586 344.989 3.39186 341.289 7.30186L289.689 61.4019C274.189 59.0019 258.889 56.7419 244.889 56.9419C231.889 57.1199 219.389 59.4419 209.989 66.8919C201.399 61.9819 191.089 60.5619 180.489 60.9319C166.989 61.4039 152.289 64.6119 137.389 68.3719C107.389 75.8919 75.689 85.2719 55.289 82.8719C55.0366 82.9308 54.787 83.0012 54.541 83.0829C54.3091 82.9898 54.0732 82.9071 53.834 82.8349C53.0239 83.0826 52.2555 83.4499 51.554 83.9249C50.5077 84.1994 49.5234 84.6712 48.654 85.3149C47.9784 86.1253 47.4595 87.0545 47.124 88.0549C46.5911 88.7395 46.1662 89.5016 45.864 90.3149C45.9225 90.5639 45.9923 90.8101 46.073 91.0529C45.9767 91.2912 45.8913 91.5338 45.817 91.7799L48.117 133.98L37.017 124.71C27.097 116.42 11.917 118.48 4.51701 129.11C-1.63299 137.99 -0.442983 150.21 7.31702 157.71L52.817 201.81L59.767 293.31C60.093 297.61 63.067 301.36 67.307 302.58C93.607 310.09 119.507 299.99 145.007 292.48C170.407 285.01 194.907 279.58 220.207 290.5C220.696 290.711 221.192 290.869 221.687 290.996C223.026 292.278 224.747 293.087 226.589 293.3C228.43 293.513 230.291 293.118 231.887 292.176C257.587 275.676 276.387 278.776 299.387 283.266C322.387 287.786 349.087 294.266 381.787 281.076L381.789 281.074H381.791C386.021 279.364 388.681 275.204 388.341 270.574V270.57L373.441 69.5699V69.5679C372.975 63.3279 366.601 58.5679 360.441 60.1979C356.211 61.2779 352.901 62.3079 349.441 63.2979L373.141 35.2979C380.371 26.7579 379.311 13.6979 370.801 6.49786V6.49586L369.451 5.34586H369.449C365.849 2.27586 361.439 0.675859 356.949 0.505859L356.999 1.00016ZM355.969 17.9002C356.818 17.8561 357.689 18.1462 358.429 18.7772H358.431L359.781 19.9272C361.321 21.2472 361.491 23.3072 360.181 24.8472L294.481 102.447L294.153 102.834C293.497 101.862 292.923 100.874 292.133 99.9242C289.873 97.1842 286.683 94.9042 283.083 93.0942L299.083 76.2942V76.2922L299.089 76.2862L353.689 18.9862C354.359 18.2822 355.189 17.9062 356.039 17.8662L355.969 17.9002ZM244.969 74.0002C253.739 73.8802 264.169 75.0802 275.069 76.5902L259.569 92.8902C259.484 93.0885 259.407 93.29 259.337 93.4942C259.032 93.9318 258.77 94.3972 258.552 94.8842C258.287 95.1271 258.038 95.3866 257.806 95.6612L242.906 133.861C241.296 138.001 242.753 142.881 245.696 145.461C248.639 148.041 253.656 148.991 257.596 146.921L294.396 127.521C294.803 127.268 295.188 126.98 295.546 126.662C295.674 126.571 295.8 126.477 295.923 126.379C296.227 126.129 296.514 125.857 296.78 125.567C296.827 125.544 296.874 125.519 296.921 125.495L332.721 83.2949C342.541 83.5669 349.921 81.4149 356.821 79.3149L370.721 267.315C344.821 276.385 324.621 271.465 302.321 267.079C281.821 263.049 259.221 260.039 233.921 271.939L219.821 80.9389C224.981 76.5789 233.221 74.4389 244.821 74.2789L244.969 74.0002ZM184.569 77.9602C192.679 78.0982 198.769 79.7802 203.069 82.9202L216.969 271.92C189.569 263.61 163.369 269.76 139.969 276.62C115.769 283.73 94.369 290.82 76.069 287.52L70.849 218.82L92.149 237.92C92.6868 238.175 93.2499 238.373 93.829 238.51C94.2377 238.94 94.6901 239.325 95.179 239.66L138.079 253.66L138.077 253.658C142.367 255.058 147.257 253.225 149.677 250.048C152.097 246.871 152.577 241.678 150.099 237.948L128.699 205.448C138.369 202.938 144.399 200.218 148.999 198.728C155.059 196.748 158.839 196.038 171.399 198.763C173.602 199.238 175.903 198.82 177.797 197.599C179.69 196.378 181.022 194.455 181.499 192.253C181.974 190.051 181.555 187.75 180.335 185.856C179.114 183.962 177.191 182.63 174.989 182.153C167.809 180.603 161.989 180.063 156.889 180.233C151.829 180.407 147.589 181.293 143.689 182.573C135.979 185.093 129.789 188.303 115.589 190.943L98.789 177.043C110.589 176.74 121.789 170.603 134.489 165.943C147.489 161.163 160.789 157.753 171.389 160.043C173.592 160.518 175.893 160.1 177.787 158.879C179.68 157.658 181.012 155.735 181.489 153.533C181.964 151.331 181.545 149.03 180.325 147.136C179.104 145.242 177.181 143.91 174.979 143.433C170.879 142.546 166.809 142.193 162.779 142.243C150.679 142.395 138.979 146.173 128.679 149.993C114.879 155.093 102.179 160.093 97.979 160.093C95.7247 160.093 93.5627 160.989 91.9686 162.583C90.3745 164.177 89.479 166.339 89.479 168.593C89.5082 168.852 89.5492 169.109 89.602 169.364L65.702 149.564L63.052 100.964C87.752 101.011 115.652 91.9243 141.352 85.4643C155.952 81.7943 169.752 78.9143 180.952 78.5243C182.192 78.4808 183.402 78.4694 184.562 78.4891L184.569 77.9602ZM271.769 106.86C275.159 107.151 277.069 108.71 278.809 110.82C279.889 112.12 280.629 113.84 281.149 115.39L265.149 123.81L271.769 106.86ZM162.769 108.03C150.669 108.182 138.969 111.96 128.669 115.78C114.869 120.88 102.169 125.88 97.969 125.88C95.7147 125.88 93.5527 126.776 91.9586 128.37C90.3646 129.964 89.469 132.126 89.469 134.38C89.469 136.634 90.3646 138.797 91.9586 140.391C93.5527 141.985 95.7147 142.88 97.969 142.88C110.069 142.878 121.569 136.53 134.569 131.78C147.569 127 160.869 123.59 171.469 125.88C173.672 126.355 175.973 125.937 177.867 124.716C179.76 123.495 181.092 121.572 181.569 119.37C182.044 117.168 181.625 114.867 180.405 112.973C179.184 111.079 177.261 109.747 175.059 109.27C170.959 108.383 166.889 108.03 162.859 108.08L162.769 108.03ZM22.769 136.63C23.809 136.712 24.859 137.13 25.779 137.9L51.879 159.7C51.8836 159.702 51.8881 159.703 51.8927 159.704C51.8954 159.709 51.898 159.715 51.9007 159.72L103.701 202.72C101.871 204.51 100.031 206.31 98.2607 208.56C96.5107 210.78 94.9007 213.3 93.4607 215.98L66.5607 191.88L18.8607 145.58C16.9907 143.77 16.7207 141.02 18.2067 138.87C19.1157 137.56 20.4067 136.79 21.7767 136.6C22.1197 136.553 22.4677 136.543 22.8167 136.57L22.769 136.63ZM281.769 184.83C279.909 184.808 278.019 184.84 276.099 184.943C268.419 185.357 260.299 186.903 251.899 190.563C250.873 191.008 249.945 191.65 249.168 192.454C248.391 193.258 247.78 194.208 247.37 195.248C246.96 196.288 246.76 197.399 246.78 198.517C246.801 199.635 247.042 200.738 247.489 201.763C247.934 202.789 248.576 203.717 249.38 204.494C250.184 205.272 251.134 205.882 252.174 206.292C253.214 206.702 254.325 206.902 255.443 206.882C256.561 206.861 257.664 206.621 258.689 206.173C271.589 200.583 282.889 201.353 295.489 202.973C308.089 204.603 321.789 207.453 336.789 203.176C338.955 202.557 340.787 201.104 341.882 199.135C342.977 197.166 343.246 194.843 342.629 192.676C342.01 190.51 340.557 188.678 338.588 187.583C336.619 186.488 334.296 186.219 332.129 186.836C321.929 189.756 310.929 187.834 297.729 186.119C292.759 185.476 287.429 184.909 281.829 184.849L281.769 184.83ZM114.769 215.33L125.269 231.33L107.369 225.49C108.293 223.37 109.629 221.16 111.299 219.04C112.369 217.68 113.589 216.53 114.789 215.34L114.769 215.33ZM284.769 221.88C282.909 221.858 281.019 221.89 279.099 221.993C271.419 222.407 263.299 223.953 254.899 227.613C253.873 228.058 252.945 228.7 252.168 229.504C251.391 230.308 250.78 231.258 250.37 232.298C249.96 233.338 249.76 234.45 249.78 235.567C249.801 236.685 250.042 237.788 250.489 238.813C250.934 239.839 251.576 240.767 252.38 241.544C253.184 242.322 254.134 242.933 255.174 243.342C256.214 243.752 257.325 243.952 258.443 243.932C259.561 243.911 260.664 243.671 261.689 243.223C274.589 237.633 285.889 238.403 298.489 240.023C311.089 241.653 324.789 244.503 339.789 240.226C341.955 239.607 343.787 238.154 344.882 236.185C345.977 234.216 346.246 231.893 345.629 229.726C345.008 227.562 343.553 225.732 341.585 224.639C339.616 223.546 337.294 223.279 335.129 223.896C324.929 226.816 313.929 224.892 300.729 223.177C295.759 222.534 290.429 221.967 284.829 221.907L284.769 221.88Z" fill="#000AFF"/>
</svg>
