<svg width="551" height="551" viewBox="0 0 551 551" fill="none" xmlns="http://www.w3.org/2000/svg">
<path d="M199.453 339.014C183.531 339.014 169.864 333.511 158.543 322.506C147.222 311.5 141.539 297.924 141.539 281.822V214.165C141.539 202.168 145.359 191.749 152.996 182.908C160.632 174.068 170.27 168.52 181.952 166.31C197.694 163.383 213.345 161.303 228.861 160.131C244.377 158.958 260.163 158.34 276.22 158.335C292.277 158.332 308.064 158.895 323.579 160.018C339.231 161.141 354.882 163.243 370.488 166.332C382.17 168.574 391.822 174.135 399.445 182.976C407.067 191.816 410.901 202.235 410.901 214.188V281.844C410.901 297.946 405.263 311.478 393.987 322.483C382.711 333.488 369.044 338.991 352.987 338.991H335.442C332.343 338.991 329.263 338.69 326.15 338.089C323.038 337.488 320.061 336.7 317.22 335.73L290.338 327.205C285.692 325.704 281.046 324.95 276.355 324.95C271.665 324.95 267.019 325.704 262.373 327.205L235.13 335.73C231.973 336.7 228.861 337.489 225.794 338.089C222.727 338.689 219.614 338.991 216.457 338.991L199.453 339.014ZM199.453 325.122H216.592C219.118 325.122 221.509 324.896 223.764 324.445C226.024 323.994 228.365 323.466 230.755 322.866C238.378 320.3 245.955 317.679 253.397 315.018C260.84 312.371 268.462 311.049 276.22 311.049C284.429 311.049 292.187 312.38 299.539 315.041C306.891 317.707 314.243 320.318 321.685 322.844C324.021 323.444 326.331 323.971 328.586 324.423C330.837 324.874 333.187 325.099 335.577 325.099H353.032C365.166 325.099 375.539 320.846 384.154 312.335C392.769 303.823 397.054 293.661 397.054 281.799V214.143C397.054 205.483 394.348 198.041 388.935 191.771C383.523 185.502 376.577 181.487 368.052 179.728C353.032 176.693 337.877 174.677 322.497 173.684C307.071 172.688 291.736 172.187 276.491 172.187C261.065 172.187 245.73 172.71 230.484 173.761C215.194 174.808 199.994 176.792 184.929 179.715C176.405 181.424 169.459 185.443 164.001 191.803C158.588 198.162 155.882 205.605 155.882 214.129V281.786C155.882 293.648 160.154 303.796 168.692 312.321C177.23 320.846 187.636 325.086 199.949 325.086L199.453 325.122Z" fill="white"/>
<path d="M368.594 362.919C367.723 362.734 366.825 362.723 365.949 362.886C365.074 363.049 364.24 363.383 363.494 363.869C362.748 364.355 362.106 364.983 361.603 365.718C361.101 366.453 360.748 367.28 360.566 368.151C360.566 368.151 357.602 382.134 345.952 396.432C334.315 410.73 314.605 425.073 279.198 425.073C243.52 425.073 221.915 411 208.835 396.928C195.665 382.855 191.38 369.234 191.38 369.234C190.838 367.526 189.641 366.103 188.051 365.277C186.462 364.451 184.609 364.289 182.9 364.827C181.193 365.369 179.77 366.566 178.944 368.156C178.118 369.746 177.956 371.598 178.494 373.307C178.494 373.307 183.771 389.95 198.971 406.188C214.171 422.425 239.79 438.618 279.256 438.618C318.632 438.618 342.853 421.839 356.836 404.97C370.547 388.146 374.201 370.961 374.201 370.961C374.386 370.091 374.397 369.192 374.234 368.317C374.071 367.441 373.737 366.607 373.251 365.861C372.765 365.115 372.137 364.473 371.402 363.97C370.667 363.468 369.84 363.115 368.969 362.933L368.594 362.919Z" fill="white"/>
<path d="M272.974 95C234.139 95 210.279 106.637 196.297 118.77C182.36 130.903 178.255 144.073 178.255 144.073C177.999 144.926 177.913 145.821 178.004 146.707C178.094 147.593 178.358 148.453 178.782 149.237C179.205 150.02 179.779 150.713 180.47 151.274C181.161 151.835 181.957 152.255 182.811 152.508C183.664 152.764 184.559 152.85 185.445 152.759C186.331 152.669 187.19 152.405 187.974 151.982C188.758 151.558 189.45 150.985 190.011 150.293C190.573 149.602 190.992 148.806 191.245 147.952C191.245 147.952 193.762 138.977 205.182 129.009C216.603 119.041 236.801 108.576 272.839 108.576C309.057 108.576 331.023 118.725 344.103 128.512C357.138 138.3 360.972 147.14 360.972 147.14C361.711 148.771 363.065 150.042 364.739 150.676C366.413 151.31 368.27 151.255 369.903 150.523C371.533 149.785 372.805 148.43 373.439 146.757C374.073 145.083 374.018 143.226 373.286 141.593C373.286 141.593 367.512 129.189 352.222 117.687C336.887 106.186 311.719 95.0451 272.839 95.0451L272.974 95Z" fill="white"/>
<path d="M100.766 205.054C98.9713 205.054 97.2504 205.767 95.9816 207.036C94.7128 208.305 94 210.025 94 211.82V279.927C94 281.721 94.7128 283.442 95.9816 284.711C97.2504 285.98 98.9713 286.693 100.766 286.693C102.56 286.693 104.281 285.98 105.55 284.711C106.818 283.442 107.531 281.721 107.531 279.927V211.82C107.531 210.025 106.818 208.305 105.55 207.036C104.281 205.767 102.56 205.054 100.766 205.054Z" fill="white"/>
<path d="M450.232 206.407C448.438 206.407 446.717 207.12 445.448 208.389C444.18 209.658 443.467 211.378 443.467 213.173V281.28C443.467 283.074 444.18 284.795 445.448 286.064C446.717 287.333 448.438 288.046 450.232 288.046C452.027 288.046 453.748 287.333 455.016 286.064C456.285 284.795 456.998 283.074 456.998 281.28V213.173C456.998 211.378 456.285 209.658 455.016 208.389C453.748 207.12 452.027 206.407 450.232 206.407Z" fill="white"/>
</svg>
