<svg width="775" height="727" viewBox="0 0 775 727" fill="none" xmlns="http://www.w3.org/2000/svg">
<path d="M389.191 134.947C423.445 134.941 457.121 136.129 490.219 138.501C523.597 140.873 556.975 145.312 590.258 151.837L590.261 151.838C615.082 156.554 635.579 168.25 651.77 186.845C667.955 205.433 676.094 227.333 676.094 252.473V395.441C676.094 429.335 664.116 457.799 640.152 480.959C616.186 504.122 587.147 515.702 553.009 515.702H515.567C508.988 515.702 502.445 515.069 495.834 513.805C489.214 512.538 482.884 510.879 476.843 508.838L476.833 508.834L419.468 490.82C409.508 487.632 399.544 486.031 389.48 486.031C379.731 486.031 370.074 487.533 360.424 490.526L359.495 490.819L301.362 508.833C294.64 510.878 288.016 512.542 281.489 513.806C274.976 515.067 268.366 515.702 261.66 515.702H261.659L225.373 515.749C191.524 515.749 162.486 504.171 138.422 481.006C114.362 457.845 102.289 429.286 102.289 395.394V252.425C102.289 227.19 110.4 205.29 126.613 186.702C142.833 168.107 163.301 156.44 188.121 151.79L188.12 151.789C221.694 145.606 255.075 141.216 288.166 138.739C321.264 136.262 354.939 134.957 389.191 134.947ZM389.769 163.218C356.84 163.218 324.103 164.323 291.56 166.545C258.911 168.758 226.454 172.955 194.287 179.135H194.284C175.989 182.768 161.066 191.315 149.344 204.842L149.343 204.844C137.714 218.375 131.897 234.217 131.896 252.349V395.317C131.896 420.522 141.068 442.095 159.38 460.2C177.45 478.066 199.429 487.072 225.37 487.311L225.374 487.394H261.949C267.368 487.394 272.502 486.915 277.35 485.955C282.18 485 287.183 483.883 292.292 482.613L292.312 482.608L292.33 482.603C308.599 477.179 324.771 471.639 340.655 466.015C356.484 460.438 372.694 457.656 389.191 457.656C406.654 457.656 423.152 460.459 438.784 466.062C454.475 471.696 470.167 477.216 486.053 482.555L486.07 482.561L486.088 482.565C491.082 483.835 496.019 484.952 500.841 485.907C505.677 486.867 510.724 487.347 515.856 487.347H553.105C579.126 487.347 601.389 478.308 619.867 460.23C638.344 442.154 647.545 420.552 647.545 395.347V252.378C647.545 233.962 641.73 218.117 630.098 204.773C618.472 191.438 603.549 182.902 585.257 179.164H585.255C553.182 172.745 520.819 168.481 487.976 166.383C455.048 164.276 422.312 163.218 389.769 163.218Z" fill="#000AFF" stroke="black"/>
<path d="M586.315 566.765C584.457 566.374 582.539 566.35 580.671 566.695C578.804 567.039 577.023 567.745 575.431 568.772C573.84 569.799 572.469 571.127 571.396 572.68C570.324 574.233 569.572 575.98 569.183 577.822C569.183 577.822 562.859 607.369 537.998 637.583C513.165 667.797 471.104 698.106 395.548 698.106C319.414 698.106 273.31 668.369 245.398 638.631C217.293 608.894 208.149 580.109 208.149 580.109C206.992 576.501 204.438 573.494 201.046 571.749C197.653 570.003 193.7 569.661 190.054 570.797C186.41 571.942 183.374 574.472 181.611 577.831C179.848 581.19 179.503 585.105 180.65 588.716C180.65 588.716 191.912 623.886 224.348 658.199C256.784 692.511 311.454 726.728 395.673 726.728C479.699 726.728 531.385 691.272 561.223 655.625C590.483 620.074 598.279 583.76 598.279 583.76C598.674 581.919 598.698 580.02 598.35 578.171C598.003 576.321 597.29 574.558 596.253 572.982C595.215 571.406 593.874 570.048 592.306 568.986C590.738 567.924 588.974 567.179 587.114 566.794L586.315 566.765Z" fill="#000AFF"/>
<path d="M382.26 0.609375C299.389 0.609375 248.472 25.2 218.635 50.8391C188.894 76.4781 180.135 104.309 180.135 104.309C179.588 106.112 179.405 108.003 179.598 109.876C179.791 111.748 180.355 113.564 181.258 115.22C182.161 116.876 183.386 118.339 184.861 119.525C186.337 120.712 188.034 121.598 189.856 122.133C191.676 122.675 193.586 122.855 195.477 122.665C197.368 122.474 199.202 121.915 200.874 121.021C202.546 120.126 204.024 118.914 205.222 117.453C206.42 115.992 207.315 114.311 207.855 112.506C207.855 112.506 213.226 93.5391 237.596 72.475C261.967 51.411 305.067 29.2984 381.971 29.2984C459.26 29.2984 506.134 50.7437 534.046 71.4266C561.862 92.1094 570.044 110.791 570.044 110.791C571.619 114.236 574.509 116.923 578.081 118.263C581.653 119.603 585.616 119.486 589.101 117.939C592.581 116.379 595.294 113.517 596.647 109.98C598 106.443 597.882 102.519 596.32 99.0672C596.32 99.0672 584 72.8562 551.371 48.5516C518.646 24.2469 464.939 0.704664 381.971 0.704664L382.26 0.609375Z" fill="#000AFF"/>
<path d="M14.7812 233.172C10.9522 233.172 7.27996 234.678 4.5724 237.359C1.86484 240.04 0.34375 243.677 0.34375 247.469V391.391C0.34375 395.182 1.86484 398.819 4.5724 401.5C7.27996 404.181 10.9522 405.688 14.7812 405.688C18.6103 405.688 22.2826 404.181 24.9901 401.5C27.6977 398.819 29.2187 395.182 29.2187 391.391V247.469C29.2187 243.677 27.6977 240.04 24.9901 237.359C22.2826 234.678 18.6103 233.172 14.7812 233.172Z" fill="#000AFF"/>
<path d="M760.523 236.031C756.694 236.031 753.022 237.537 750.315 240.219C747.607 242.9 746.086 246.536 746.086 250.328V394.25C746.086 398.042 747.607 401.678 750.315 404.359C753.022 407.041 756.694 408.547 760.523 408.547C764.353 408.547 768.025 407.041 770.732 404.359C773.44 401.678 774.961 398.042 774.961 394.25V250.328C774.961 246.536 773.44 242.9 770.732 240.219C768.025 237.537 764.353 236.031 760.523 236.031Z" fill="#000AFF"/>
</svg>
