<svg width="358" height="357" viewBox="0 0 358 357" fill="none" xmlns="http://www.w3.org/2000/svg">
<path d="M328.002 0.100333C326.032 -0.0992456 324.058 0.438776 322.462 1.61034L217.462 79.2103C216.452 79.9532 215.63 80.9231 215.064 82.0418C214.498 83.1604 214.202 84.3965 214.202 85.6503V123.65H161.502C159.38 123.65 157.345 124.493 155.845 125.993C154.344 127.494 153.502 129.529 153.502 131.65V242.65H140.502V45.6503C140.502 43.5286 139.659 41.4938 138.158 39.9935C136.658 38.4932 134.623 37.6503 132.502 37.6503H30.5016C28.3798 37.6503 26.345 38.4932 24.8447 39.9935C23.3444 41.4938 22.5016 43.5286 22.5016 45.6503V340.65H8.10156C5.97983 340.65 3.945 341.493 2.44471 342.993C0.944419 344.494 0.101562 346.529 0.101562 348.65C0.101562 350.772 0.944419 352.807 2.44471 354.307C3.945 355.807 5.97983 356.65 8.10156 356.65H349.102C351.223 356.65 353.258 355.807 354.758 354.307C356.259 352.807 357.102 350.772 357.102 348.65C357.102 346.529 356.259 344.494 354.758 342.993C353.258 341.493 351.223 340.65 349.102 340.65H336.002V8.65034C336.002 6.66709 335.265 4.75453 333.935 3.28371C332.604 1.81288 330.775 0.888662 328.802 0.690337L328.002 0.100333ZM319.202 23.9003V339.9H293.602V330.13C304.802 326.83 313.102 316.43 313.102 304.23C313.102 289.43 300.902 277.23 286.102 277.23C273.802 277.23 263.302 285.65 260.102 297.03V132.03C260.102 129.909 259.259 127.874 257.758 126.373C256.258 124.873 254.223 124.03 252.102 124.03H229.802V90.0303L319.202 23.9003ZM38.2016 53.6003H124.402V242.6H65.1016C64.0507 242.6 63.0099 242.806 62.0388 243.207C61.0676 243.609 60.1851 244.198 59.4416 244.94C58.6989 245.684 58.11 246.566 57.7085 247.538C57.307 248.509 57.1007 249.549 57.1016 250.6V267.6C57.1343 267.738 57.1706 267.875 57.2106 268.01C50.4006 271.45 45.6106 278.51 45.6106 286.61C45.6106 291.42 47.2906 295.87 50.0806 299.41C47.2906 302.95 45.6106 307.41 45.6106 312.21C45.6106 320.26 50.3206 327.31 57.1106 330.71V339.93H38.1106L38.2016 53.6003ZM54.6016 64.6003C52.4798 64.6003 50.445 65.4432 48.9447 66.9435C47.4444 68.4438 46.6016 70.4786 46.6016 72.6003V91.1003C46.6016 93.2221 47.4444 95.2569 48.9447 96.7572C50.445 98.2575 52.4798 99.1003 54.6016 99.1003C56.7233 99.1003 58.7581 98.2575 60.2584 96.7572C61.7587 95.2569 62.6016 93.2221 62.6016 91.1003V72.6003C62.6016 70.4786 61.7587 68.4438 60.2584 66.9435C58.7581 65.4432 56.7233 64.6003 54.6016 64.6003ZM82.0016 64.6003C79.8798 64.6003 77.845 65.4432 76.3447 66.9435C74.8444 68.4438 74.0016 70.4786 74.0016 72.6003V91.1003C74.0016 93.2221 74.8444 95.2569 76.3447 96.7572C77.845 98.2575 79.8798 99.1003 82.0016 99.1003C84.1233 99.1003 86.1581 98.2575 87.6584 96.7572C89.1587 95.2569 90.0016 93.2221 90.0016 91.1003V72.6003C90.0016 70.4786 89.1587 68.4438 87.6584 66.9435C86.1581 65.4432 84.1233 64.6003 82.0016 64.6003ZM109.402 64.6003C107.28 64.6003 105.245 65.4432 103.745 66.9435C102.244 68.4438 101.402 70.4786 101.402 72.6003V91.1003C101.402 93.2221 102.244 95.2569 103.745 96.7572C105.245 98.2575 107.28 99.1003 109.402 99.1003C111.523 99.1003 113.558 98.2575 115.058 96.7572C116.559 95.2569 117.402 93.2221 117.402 91.1003V72.6003C117.402 70.4786 116.559 68.4438 115.058 66.9435C113.558 65.4432 111.523 64.6003 109.402 64.6003ZM279.402 94.6003C277.28 94.6003 275.245 95.4432 273.745 96.9435C272.244 98.4438 271.402 100.479 271.402 102.6V111.43C271.402 113.552 272.244 115.587 273.745 117.087C275.245 118.587 277.28 119.43 279.402 119.43C281.523 119.43 283.558 118.587 285.058 117.087C286.559 115.587 287.402 113.552 287.402 111.43V102.6C287.402 100.479 286.559 98.4438 285.058 96.9435C283.558 95.4432 281.523 94.6003 279.402 94.6003ZM304.102 94.6003C301.98 94.6003 299.945 95.4432 298.445 96.9435C296.944 98.4438 296.102 100.479 296.102 102.6V111.43C296.102 113.552 296.944 115.587 298.445 117.087C299.945 118.587 301.98 119.43 304.102 119.43C306.223 119.43 308.258 118.587 309.758 117.087C311.259 115.587 312.102 113.552 312.102 111.43V102.6C312.102 100.479 311.259 98.4438 309.758 96.9435C308.258 95.4432 306.223 94.6003 304.102 94.6003ZM55.1016 109.6C52.9798 109.6 50.945 110.443 49.4447 111.943C47.9444 113.444 47.1016 115.479 47.1016 117.6V135.3C47.1016 137.422 47.9444 139.457 49.4447 140.957C50.945 142.457 52.9798 143.3 55.1016 143.3C57.2233 143.3 59.2581 142.457 60.7584 140.957C62.2587 139.457 63.1016 137.422 63.1016 135.3V117.6C63.1016 115.479 62.2587 113.444 60.7584 111.943C59.2581 110.443 57.2233 109.6 55.1016 109.6ZM82.5016 109.6C80.3798 109.6 78.345 110.443 76.8447 111.943C75.3444 113.444 74.5016 115.479 74.5016 117.6V135.3C74.5016 137.422 75.3444 139.457 76.8447 140.957C78.345 142.457 80.3798 143.3 82.5016 143.3C84.6233 143.3 86.6581 142.457 88.1584 140.957C89.6587 139.457 90.5016 137.422 90.5016 135.3V117.6C90.5016 115.479 89.6587 113.444 88.1584 111.943C86.6581 110.443 84.6233 109.6 82.5016 109.6ZM109.902 109.6C107.78 109.6 105.745 110.443 104.245 111.943C102.744 113.444 101.902 115.479 101.902 117.6V135.3C101.902 137.422 102.744 139.457 104.245 140.957C105.745 142.457 107.78 143.3 109.902 143.3C112.023 143.3 114.058 142.457 115.558 140.957C117.059 139.457 117.902 137.422 117.902 135.3V117.6C117.902 115.479 117.059 113.444 115.558 111.943C114.058 110.443 112.023 109.6 109.902 109.6ZM279.902 133.4C277.78 133.4 275.745 134.243 274.245 135.743C272.744 137.244 271.902 139.279 271.902 141.4V149.35C271.902 151.472 272.744 153.507 274.245 155.007C275.745 156.507 277.78 157.35 279.902 157.35C282.023 157.35 284.058 156.507 285.558 155.007C287.059 153.507 287.902 151.472 287.902 149.35V141.4C287.902 139.279 287.059 137.244 285.558 135.743C284.058 134.243 282.023 133.4 279.902 133.4ZM304.602 133.4C302.48 133.4 300.445 134.243 298.945 135.743C297.444 137.244 296.602 139.279 296.602 141.4V149.35C296.602 151.472 297.444 153.507 298.945 155.007C300.445 156.507 302.48 157.35 304.602 157.35C306.723 157.35 308.758 156.507 310.258 155.007C311.759 153.507 312.602 151.472 312.602 149.35V141.4C312.602 139.279 311.759 137.244 310.258 135.743C308.758 134.243 306.723 133.4 304.602 133.4ZM170.602 139.69H245.602V339.69H230.702V321.19C230.702 308.29 220.102 297.69 207.202 297.69C194.302 297.69 183.702 308.29 183.702 321.19V339.69H170.502V250.39L170.602 139.69ZM55.6016 153.69C53.4798 153.69 51.445 154.533 49.9447 156.033C48.4444 157.534 47.6016 159.569 47.6016 161.69V180.19C47.6016 182.312 48.4444 184.347 49.9447 185.847C51.445 187.347 53.4798 188.19 55.6016 188.19C57.7233 188.19 59.7581 187.347 61.2584 185.847C62.7587 184.347 63.6016 182.312 63.6016 180.19V161.69C63.6016 159.569 62.7587 157.534 61.2584 156.033C59.7581 154.533 57.7233 153.69 55.6016 153.69ZM83.0016 153.69C80.8798 153.69 78.845 154.533 77.3447 156.033C75.8444 157.534 75.0016 159.569 75.0016 161.69V180.19C75.0016 182.312 75.8444 184.347 77.3447 185.847C78.845 187.347 80.8798 188.19 83.0016 188.19C85.1233 188.19 87.1581 187.347 88.6584 185.847C90.1587 184.347 91.0016 182.312 91.0016 180.19V161.69C91.0016 159.569 90.1587 157.534 88.6584 156.033C87.1581 154.533 85.1233 153.69 83.0016 153.69ZM110.402 153.69C108.28 153.69 106.245 154.533 104.745 156.033C103.244 157.534 102.402 159.569 102.402 161.69V180.19C102.402 182.312 103.244 184.347 104.745 185.847C106.245 187.347 108.28 188.19 110.402 188.19C112.523 188.19 114.558 187.347 116.058 185.847C117.559 184.347 118.402 182.312 118.402 180.19V161.69C118.402 159.569 117.559 157.534 116.058 156.033C114.558 154.533 112.523 153.69 110.402 153.69ZM191.602 158.99C189.48 158.99 187.445 159.833 185.945 161.333C184.444 162.834 183.602 164.869 183.602 166.99C183.602 169.112 184.444 171.147 185.945 172.647C187.445 174.147 189.48 174.99 191.602 174.99H225.202C227.323 174.99 229.358 174.147 230.858 172.647C232.359 171.147 233.202 169.112 233.202 166.99C233.202 164.869 232.359 162.834 230.858 161.333C229.358 159.833 227.323 158.99 225.202 158.99H191.602ZM279.902 171.39C277.78 171.39 275.745 172.233 274.245 173.733C272.744 175.234 271.902 177.269 271.902 179.39V188.22C271.902 190.342 272.744 192.377 274.245 193.877C275.745 195.377 277.78 196.22 279.902 196.22C282.023 196.22 284.058 195.377 285.558 193.877C287.059 192.377 287.902 190.342 287.902 188.22V179.39C287.902 177.269 287.059 175.234 285.558 173.733C284.058 172.233 282.023 171.39 279.902 171.39ZM304.602 171.39C302.48 171.39 300.445 172.233 298.945 173.733C297.444 175.234 296.602 177.269 296.602 179.39V188.22C296.602 190.342 297.444 192.377 298.945 193.877C300.445 195.377 302.48 196.22 304.602 196.22C306.723 196.22 308.758 195.377 310.258 193.877C311.759 192.377 312.602 190.342 312.602 188.22V179.39C312.602 177.269 311.759 175.234 310.258 173.733C308.758 172.233 306.723 171.39 304.602 171.39ZM191.602 193.49C189.48 193.49 187.445 194.333 185.945 195.833C184.444 197.334 183.602 199.369 183.602 201.49C183.602 203.612 184.444 205.647 185.945 207.147C187.445 208.647 189.48 209.49 191.602 209.49H225.202C227.323 209.49 229.358 208.647 230.858 207.147C232.359 205.647 233.202 203.612 233.202 201.49C233.202 199.369 232.359 197.334 230.858 195.833C229.358 194.333 227.323 193.49 225.202 193.49H191.602ZM55.6016 198.79C53.4798 198.79 51.445 199.633 49.9447 201.133C48.4444 202.634 47.6016 204.669 47.6016 206.79V225.29C47.6016 227.412 48.4444 229.447 49.9447 230.947C51.445 232.447 53.4798 233.29 55.6016 233.29C57.7233 233.29 59.7581 232.447 61.2584 230.947C62.7587 229.447 63.6016 227.412 63.6016 225.29V206.79C63.6016 204.669 62.7587 202.634 61.2584 201.133C59.7581 199.633 57.7233 198.79 55.6016 198.79ZM83.0016 198.79C80.8798 198.79 78.845 199.633 77.3447 201.133C75.8444 202.634 75.0016 204.669 75.0016 206.79V225.29C75.0016 227.412 75.8444 229.447 77.3447 230.947C78.845 232.447 80.8798 233.29 83.0016 233.29C85.1233 233.29 87.1581 232.447 88.6584 230.947C90.1587 229.447 91.0016 227.412 91.0016 225.29V206.79C91.0016 204.669 90.1587 202.634 88.6584 201.133C87.1581 199.633 85.1233 198.79 83.0016 198.79ZM110.402 198.79C108.28 198.79 106.245 199.633 104.745 201.133C103.244 202.634 102.402 204.669 102.402 206.79V225.29C102.402 227.412 103.244 229.447 104.745 230.947C106.245 232.447 108.28 233.29 110.402 233.29C112.523 233.29 114.558 232.447 116.058 230.947C117.559 229.447 118.402 227.412 118.402 225.29V206.79C118.402 204.669 117.559 202.634 116.058 201.133C114.558 199.633 112.523 198.79 110.402 198.79ZM280.402 210.29C278.28 210.29 276.245 211.133 274.745 212.633C273.244 214.134 272.402 216.169 272.402 218.29V227.12C272.402 229.242 273.244 231.277 274.745 232.777C276.245 234.277 278.28 235.12 280.402 235.12C282.523 235.12 284.558 234.277 286.058 232.777C287.559 231.277 288.402 229.242 288.402 227.12V218.29C288.402 216.169 287.559 214.134 286.058 212.633C284.558 211.133 282.523 210.29 280.402 210.29ZM305.102 210.29C302.98 210.29 300.945 211.133 299.445 212.633C297.944 214.134 297.102 216.169 297.102 218.29V227.12C297.102 229.242 297.944 231.277 299.445 232.777C300.945 234.277 302.98 235.12 305.102 235.12C307.223 235.12 309.258 234.277 310.758 232.777C312.259 231.277 313.102 229.242 313.102 227.12V218.29C313.102 216.169 312.259 214.134 310.758 212.633C309.258 211.133 307.223 210.29 305.102 210.29ZM192.102 227.99C189.98 227.99 187.945 228.833 186.445 230.333C184.944 231.834 184.102 233.869 184.102 235.99C184.102 238.112 184.944 240.147 186.445 241.647C187.945 243.147 189.98 243.99 192.102 243.99H225.702C227.823 243.99 229.858 243.147 231.358 241.647C232.859 240.147 233.702 238.112 233.702 235.99C233.702 233.869 232.859 231.834 231.358 230.333C229.858 228.833 227.823 227.99 225.702 227.99H192.102ZM280.402 249.19C278.28 249.19 276.245 250.033 274.745 251.533C273.244 253.034 272.402 255.069 272.402 257.19V266.02C272.402 268.142 273.244 270.177 274.745 271.677C276.245 273.177 278.28 274.02 280.402 274.02C282.523 274.02 284.558 273.177 286.058 271.677C287.559 270.177 288.402 268.142 288.402 266.02V257.19C288.402 255.069 287.559 253.034 286.058 251.533C284.558 250.033 282.523 249.19 280.402 249.19ZM305.102 249.19C302.98 249.19 300.945 250.033 299.445 251.533C297.944 253.034 297.102 255.069 297.102 257.19V266.02C297.102 268.142 297.944 270.177 299.445 271.677C300.945 273.177 302.98 274.02 305.102 274.02C307.223 274.02 309.258 273.177 310.758 271.677C312.259 270.177 313.102 268.142 313.102 266.02V257.19C313.102 255.069 312.259 253.034 310.758 251.533C309.258 250.033 307.223 249.19 305.102 249.19ZM75.1016 258.82H155.402V340.12H127.302V326.92C127.301 326.747 127.295 326.573 127.284 326.4C135.004 323.35 140.584 315.8 140.584 307.1C140.584 302.29 138.904 297.84 136.114 294.3C138.904 290.76 140.584 286.3 140.584 281.5C140.584 270.1 131.174 260.7 119.784 260.7C108.384 260.7 98.984 270.11 98.984 281.5C98.984 286.31 100.664 290.76 103.454 294.3C100.664 297.84 98.984 302.3 98.984 307.1C98.984 315.53 104.134 322.9 111.384 326.1C111.344 326.386 111.319 326.673 111.31 326.961V340.161H75.2098V332.061C83.3798 329.241 89.3098 321.461 89.3098 312.361C89.3098 307.551 87.6298 303.101 84.8398 299.561C87.6298 296.021 89.3098 291.561 89.3098 286.761C89.3098 277.681 83.3298 269.861 75.1098 267.061L75.1016 258.82ZM192.102 260.67C189.98 260.67 187.945 261.513 186.445 263.013C184.944 264.514 184.102 266.549 184.102 268.67C184.102 270.792 184.944 272.827 186.445 274.327C187.945 275.827 189.98 276.67 192.102 276.67H225.702C227.823 276.67 229.858 275.827 231.358 274.327C232.859 272.827 233.702 270.792 233.702 268.67C233.702 266.549 232.859 264.514 231.358 263.013C229.858 261.513 227.823 260.67 225.702 260.67H192.102ZM119.202 276.67C121.952 276.67 124.012 278.73 124.012 281.48C124.012 284.23 121.952 286.28 119.202 286.28C116.452 286.28 114.402 284.22 114.402 281.48C114.402 278.73 116.462 276.67 119.202 276.67ZM68.0016 281.97C70.7516 281.97 72.8016 284.03 72.8016 286.77C72.8016 289.51 70.7416 291.57 68.0016 291.57C65.2516 291.57 63.2016 289.51 63.2016 286.77C63.2016 284.03 65.2616 281.97 68.0016 281.97ZM288.002 293.37C294.192 293.37 299.002 298.22 299.002 304.37C299.002 310.56 294.152 315.37 288.002 315.37C281.812 315.37 277.002 310.52 277.002 304.37C277.002 298.18 281.852 293.37 288.002 293.37ZM119.002 302.25C121.752 302.25 123.812 304.31 123.812 307.05C123.812 309.79 121.752 311.86 119.002 311.86C116.252 311.86 114.202 309.8 114.202 307.05C114.202 304.3 116.262 302.25 119.002 302.25ZM67.8016 307.55C70.5516 307.55 72.6016 309.61 72.6016 312.35C72.6016 315.09 70.5416 317.15 67.8016 317.15C65.0516 317.15 63.0016 315.09 63.0016 312.35C63.0016 309.61 65.0616 307.55 67.8016 307.55ZM261.802 311.7C264.252 320.32 270.892 327.3 279.402 330.1V340.1H261.802V311.7ZM207.402 314.17C211.612 314.17 214.852 317.41 214.852 321.63V340.13H199.952V321.63C199.952 317.42 203.192 314.17 207.412 314.17H207.402Z" fill="#000AFF"/>
</svg>
