<svg width="350" height="311" viewBox="0 0 350 311" fill="none" xmlns="http://www.w3.org/2000/svg">
<path d="M208.999 0.999924C207.699 0.984224 206.379 1.00032 205.059 1.05072H205.057C162.857 2.66072 129.857 37.8507 131.457 79.3507C132.597 109.251 151.457 134.551 177.657 145.651L94.9566 153.241C112.657 141.841 124.157 121.641 123.357 99.1407C122.107 66.3407 95.1566 40.4407 62.7566 40.0407C61.7066 40.0273 60.6566 40.0414 59.6066 40.0817C25.8066 41.3717 -0.793367 69.9817 0.506633 103.882C1.45463 128.682 17.1066 149.582 38.8066 158.382L19.8066 160.122C18.3766 160.253 16.9966 160.529 15.6666 160.934C14.3366 161.34 13.0666 161.874 11.8666 162.524C10.6666 163.172 9.53663 163.934 8.49663 164.794C7.45663 165.652 6.49663 166.604 5.62663 167.644C4.76463 168.684 3.99663 169.794 3.34663 170.984C2.69263 172.164 2.14663 173.414 1.72663 174.714C1.30663 176.014 1.01263 177.354 0.855632 178.734C0.698632 180.114 0.679633 181.524 0.810733 182.954L10.7507 290.954C10.8817 292.384 11.1577 293.764 11.5627 295.094C11.9687 296.424 12.5027 297.694 13.1527 298.894C13.8007 300.094 14.5627 301.224 15.4227 302.264C16.2807 303.304 17.2327 304.264 18.2727 305.134C19.3127 305.996 20.4227 306.764 21.6127 307.414C22.7927 308.068 24.0427 308.614 25.3427 309.034C26.6427 309.453 27.9827 309.748 29.3627 309.905C30.7427 310.062 32.1527 310.081 33.5827 309.95L286.583 286.75C288.013 286.619 289.393 286.343 290.723 285.938C292.053 285.532 293.323 284.998 294.523 284.348C295.723 283.7 296.853 282.938 297.893 282.078C298.933 281.22 299.893 280.268 300.763 279.228C301.633 278.188 302.393 277.078 303.043 275.888C303.697 274.708 304.243 273.458 304.663 272.158C305.083 270.858 305.377 269.518 305.534 268.138C305.691 266.758 305.71 265.348 305.579 263.918L302.959 235.318L330.559 247.718C339.619 251.798 350.459 244.078 349.559 234.218L341.669 148.218C341.062 141.608 335.459 137.018 329.469 136.318C329.017 136.262 328.563 136.228 328.109 136.216C324.929 136.134 321.719 137.143 319.149 139.496V139.498L296.149 160.498L295.692 155.518C295.563 154.118 295.287 152.758 294.893 151.448C294.87 151.373 294.842 151.302 294.818 151.227C294.434 150.007 293.941 148.827 293.348 147.717C293.286 147.6 293.217 147.489 293.153 147.373C292.563 146.313 291.893 145.303 291.133 144.373C291.041 144.258 290.945 144.148 290.85 144.035C290.081 143.121 289.24 142.275 288.33 141.505C288.216 141.408 288.104 141.314 287.988 141.22C287.063 140.466 286.078 139.79 285.038 139.2C284.914 139.129 284.794 139.055 284.669 138.987C283.599 138.406 282.469 137.917 281.309 137.527C281.201 137.491 281.097 137.448 280.989 137.414C279.769 137.028 278.509 136.754 277.219 136.598C277.154 136.59 277.091 136.576 277.026 136.568C276.355 136.494 275.676 136.447 274.986 136.439C274.282 136.431 273.566 136.458 272.856 136.524L250.556 138.564C271.856 124.464 285.456 100.064 284.456 73.0637C282.916 32.8637 249.456 1.06372 209.056 0.563721L208.999 0.999924ZM208.802 17.9999C240.502 18.3589 266.202 42.9999 267.402 74.0999C268.632 106.3 243.302 133.5 210.102 134.8C176.902 136.07 149.602 110.8 148.402 78.6999C147.172 46.4999 172.502 19.2999 205.702 17.9999C206.742 17.9604 207.772 17.9473 208.792 17.9589L208.802 17.9999ZM192.602 27.9999C191.61 28.0162 190.628 28.2061 189.702 28.5609C188.656 28.9598 187.7 29.5611 186.888 30.3304C186.076 31.0996 185.423 32.0216 184.968 33.0436C184.513 34.0655 184.264 35.1673 184.235 36.2857C184.207 37.4041 184.399 38.5171 184.802 39.5609L190.392 54.1609C190.791 55.2062 191.392 56.1624 192.161 56.9747C192.93 57.7871 193.852 58.4396 194.874 58.8948C195.896 59.35 196.998 59.599 198.116 59.6275C199.235 59.6561 200.348 59.4635 201.392 59.0609C202.437 58.662 203.393 58.0607 204.205 57.2915C205.018 56.5223 205.67 55.6002 206.125 54.5783C206.581 53.5563 206.83 52.4546 206.858 51.3362C206.887 50.2178 206.694 49.1047 206.292 48.0609L200.702 33.4609C200.078 31.8316 198.968 30.4337 197.522 29.457C196.077 28.4802 194.366 27.9718 192.622 28.0009L192.602 27.9999ZM248.202 52.7999C247.21 52.8162 246.228 53.0061 245.302 53.3609L230.702 58.9509C229.656 59.3498 228.7 59.9511 227.888 60.7204C227.076 61.4896 226.423 62.4116 225.968 63.4336C225.513 64.4555 225.264 65.5573 225.235 66.6757C225.207 67.7941 225.399 68.9071 225.802 69.9509C226.201 70.9962 226.802 71.9524 227.571 72.7647C228.34 73.5771 229.262 74.2296 230.284 74.6848C231.306 75.14 232.408 75.389 233.526 75.4175C234.645 75.4461 235.758 75.2535 236.802 74.8509L251.402 69.2609C252.447 68.862 253.403 68.2607 254.215 67.4915C255.028 66.7223 255.68 65.8002 256.135 64.7783C256.591 63.7563 256.84 62.6546 256.868 61.5362C256.897 60.4178 256.704 59.3047 256.302 58.2609C255.678 56.6316 254.568 55.2337 253.122 54.257C251.677 53.2802 249.966 52.7718 248.222 52.8009L248.202 52.7999ZM62.2016 57.0999C85.8016 57.3839 105.102 75.9999 106.002 99.8999C106.943 124.5 87.9016 145.1 63.3016 146C38.7016 146.941 18.1016 127.9 17.2016 103.3C16.2606 78.6999 35.3016 58.0999 59.9016 57.1999C60.6716 57.1705 61.4416 57.1595 62.2016 57.1687V57.0999ZM70.3016 61.4499C68.3098 61.2949 66.327 61.8463 64.7014 63.0076C63.0757 64.1688 61.9109 65.8655 61.4116 67.7999L58.3816 79.4999C58.0959 80.5841 58.0276 81.714 58.1804 82.8247C58.3333 83.9354 58.7043 85.0048 59.2723 85.9715C59.8402 86.9382 60.5937 87.7829 61.4895 88.4571C62.3853 89.1314 63.4055 89.6217 64.4916 89.8999C65.5758 90.1856 66.7057 90.254 67.8164 90.1011C68.9271 89.9483 69.9965 89.5772 70.9632 89.0093C71.9299 88.4414 72.7746 87.6878 73.4488 86.7921C74.1231 85.8963 74.6134 84.876 74.8916 83.7899L77.9216 72.0899C78.2073 71.0058 78.2757 69.8758 78.1228 68.7652C77.97 67.6545 77.5989 66.585 77.031 65.6183C76.4631 64.6517 75.7095 63.8069 74.8138 63.1327C73.918 62.4585 72.8977 61.9682 71.8116 61.6899C71.333 61.5663 70.8445 61.4846 70.3516 61.4459L70.3016 61.4499ZM182.302 77.9499C181.31 77.9662 180.328 78.1561 179.402 78.5109L164.802 84.1009C163.756 84.4998 162.8 85.1011 161.988 85.8703C161.176 86.6396 160.523 87.5616 160.068 88.5836C159.613 89.6055 159.364 90.7073 159.335 91.8257C159.307 92.9441 159.499 94.0571 159.902 95.1009C160.301 96.1462 160.902 97.1024 161.671 97.9147C162.44 98.7271 163.362 99.3796 164.384 99.8348C165.406 100.29 166.508 100.539 167.626 100.568C168.745 100.596 169.858 100.404 170.902 100.001L185.502 94.4109C186.547 94.012 187.503 93.4107 188.315 92.6415C189.128 91.8723 189.78 90.9502 190.236 89.9283C190.691 88.9063 190.94 87.8046 190.968 86.6862C190.997 85.5678 190.804 84.4547 190.402 83.4109C189.778 81.7816 188.668 80.3837 187.223 79.407C185.777 78.4302 184.066 77.9218 182.322 77.9509L182.302 77.9499ZM30.3016 85.4199C28.3098 85.2649 26.3271 85.8163 24.7014 86.9776C23.0757 88.1388 21.9109 89.8355 21.4116 91.7699C21.1259 92.8541 21.0576 93.984 21.2104 95.0947C21.3633 96.2054 21.7343 97.2748 22.3023 98.2415C22.8702 99.2082 23.6237 100.053 24.5195 100.727C25.4153 101.401 26.4356 101.892 27.5216 102.17L39.2216 105.2C40.3058 105.486 41.4357 105.554 42.5464 105.401C43.6571 105.248 44.7265 104.877 45.6932 104.309C46.6599 103.741 47.5046 102.988 48.1788 102.092C48.8531 101.196 49.3434 100.176 49.6216 99.0899C49.9073 98.0058 49.9757 96.8758 49.8228 95.7652C49.67 94.6545 49.2989 93.585 48.731 92.6183C48.1631 91.6517 47.4096 90.8069 46.5138 90.1327C45.618 89.4585 44.5977 88.9682 43.5116 88.6899L31.8116 85.6599C31.333 85.5363 30.8445 85.4546 30.3516 85.4159L30.3016 85.4199ZM218.302 93.7199C217.31 93.7362 216.328 93.9261 215.402 94.2809C214.356 94.6798 213.4 95.2811 212.588 96.0504C211.775 96.8196 211.123 97.7416 210.668 98.7636C210.213 99.7855 209.964 100.887 209.935 102.006C209.906 103.124 210.099 104.237 210.502 105.281L216.092 119.881C216.49 120.926 217.092 121.882 217.861 122.695C218.63 123.507 219.552 124.16 220.574 124.615C221.596 125.07 222.698 125.319 223.816 125.348C224.935 125.376 226.048 125.184 227.092 124.781C228.137 124.382 229.093 123.781 229.905 123.012C230.718 122.242 231.37 121.32 231.826 120.298C232.281 119.276 232.53 118.175 232.558 117.056C232.587 115.938 232.394 114.825 231.992 113.781L226.402 99.1809C225.778 97.5516 224.668 96.1537 223.223 95.177C221.777 94.2002 220.066 93.6918 218.322 93.7209L218.302 93.7199ZM83.3016 99.0399C81.3098 98.8848 79.327 99.4363 77.7014 100.598C76.0757 101.759 74.9109 103.455 74.4116 105.39C74.1259 106.474 74.0576 107.604 74.2104 108.715C74.3633 109.825 74.7343 110.895 75.3022 111.861C75.8702 112.828 76.6237 113.673 77.5195 114.347C78.4153 115.021 79.4355 115.512 80.5216 115.79L92.2216 118.82C93.3058 119.106 94.4357 119.174 95.5464 119.021C96.6571 118.868 97.7265 118.497 98.6932 117.929C99.6599 117.361 100.505 116.608 101.179 115.712C101.853 114.816 102.343 113.796 102.622 112.71C102.907 111.626 102.976 110.496 102.823 109.385C102.67 108.274 102.299 107.205 101.731 106.238C101.163 105.272 100.41 104.427 99.5138 103.753C98.618 103.078 97.5977 102.588 96.5116 102.31L84.8116 99.2799C84.333 99.1563 83.8445 99.0746 83.3516 99.0359L83.3016 99.0399ZM57.4016 114.34C55.4098 114.185 53.4271 114.736 51.8014 115.898C50.1757 117.059 49.0109 118.756 48.5116 120.69L45.4816 132.39C45.1959 133.474 45.1276 134.604 45.2804 135.715C45.4333 136.825 45.8043 137.895 46.3723 138.861C46.9402 139.828 47.6937 140.673 48.5895 141.347C49.4853 142.021 50.5056 142.512 51.5916 142.79C52.6758 143.076 53.8057 143.144 54.9164 142.991C56.0271 142.838 57.0965 142.467 58.0632 141.899C59.0299 141.331 59.8746 140.578 60.5488 139.682C61.2231 138.786 61.7134 137.766 61.9916 136.68L65.0216 124.98C65.3073 123.896 65.3757 122.766 65.2228 121.655C65.07 120.544 64.6989 119.475 64.131 118.508C63.5631 117.542 62.8095 116.697 61.9138 116.023C61.018 115.348 59.9977 114.858 58.9116 114.58C58.433 114.456 57.9445 114.375 57.4516 114.336L57.4016 114.34ZM274.402 153.94C276.752 153.724 278.532 155.2 278.752 157.56L288.692 265.56C288.908 267.91 287.422 269.69 285.072 269.91L32.0716 293.11C29.7216 293.326 27.9416 291.85 27.7216 289.49L17.7816 181.49C17.5656 179.14 19.0516 177.36 21.4016 177.14L274.402 153.94ZM325.402 157.24L332.102 230.24L301.202 216.34L298.062 182.04C298.281 181.909 298.494 181.768 298.701 181.618L325.402 157.24ZM137.402 189.94C136.698 189.932 135.982 189.96 135.272 190.026L59.1716 197.006C47.7716 198.056 39.1716 208.406 40.1716 219.806L42.5616 245.906C43.6116 257.306 53.9616 265.906 65.3616 264.906L141.462 257.926C152.862 256.876 161.462 246.526 160.462 235.126L158.072 209.026C157.089 198.326 147.972 190.026 137.372 189.926L137.402 189.94ZM230.802 190.108C230.484 190.104 230.163 190.116 229.841 190.145L204.241 192.495C199.081 192.968 195.181 197.665 195.651 202.795C196.124 207.955 200.821 211.855 205.951 211.385L231.551 209.035C236.711 208.562 240.611 203.865 240.141 198.735C239.698 193.895 235.541 190.165 230.771 190.105L230.802 190.108ZM137.602 206.908C139.522 207.079 140.912 208.468 141.102 210.528L143.492 236.628C143.708 238.978 142.222 240.758 139.872 240.978L63.7716 247.958C61.4216 248.174 59.6416 246.698 59.4216 244.338L57.0316 218.238C56.8156 215.888 58.3016 214.108 60.6516 213.888L136.752 206.908C137.046 206.881 137.331 206.882 137.606 206.906L137.602 206.908ZM233.702 222.308C233.384 222.304 233.063 222.316 232.741 222.345L207.141 224.695C201.981 225.168 198.081 229.865 198.551 234.995C199.024 240.155 203.721 244.055 208.851 243.585L234.451 241.235C239.611 240.762 243.511 236.065 243.041 230.935C242.598 226.095 238.441 222.365 233.671 222.305L233.702 222.308Z" fill="#000AFF"/>
</svg>
