<svg width="371" height="272" viewBox="0 0 371 272" fill="none" xmlns="http://www.w3.org/2000/svg">
<g filter="url(#filter0_d_2049_1058)">
<path d="M178.999 0C117.599 0 78.9985 44.1 78.9985 94.8C78.9985 97.0543 79.894 99.2164 81.4881 100.81C83.0822 102.404 85.2442 103.3 87.4985 103.3C89.7529 103.3 91.9149 102.404 93.5089 100.81C95.103 99.2164 95.9985 97.0543 95.9985 94.8C95.9985 52.4 125.499 17 179.099 17C209.399 17 233.498 29.3 250.298 46C264.498 60.1 272.998 77.4 275.398 92.3C260.898 93.205 246.499 96.55 232.499 106.8C215.499 119.2 199.198 140.5 179.898 177.2H179.901C165.501 204.6 146.501 221.1 128.701 230.9C110.901 240.66 93.8005 243.5 84.9005 243.3C84.8985 243.3 84.8935 243.3 84.8905 243.3C84.872 243.3 84.8348 243.298 84.8163 243.298C84.8026 243.303 84.789 243.308 84.7753 243.314C84.7403 243.308 84.7053 243.303 84.6703 243.298C71.0703 243.298 54.3703 242.198 42.1703 235.688C29.9703 229.178 21.0703 218.488 21.0703 192.988C21.0703 170.188 30.5803 159.388 43.4703 152.488C56.3703 145.548 73.1703 143.768 84.5703 143.768C86.8246 143.768 88.9867 142.872 90.5807 141.278C92.1748 139.684 93.0703 137.522 93.0703 135.268C93.0703 133.014 92.1748 130.852 90.5807 129.258C88.9867 127.664 86.8246 126.768 84.5703 126.768C71.5703 126.768 52.4703 128.348 35.3703 137.568C18.3703 146.738 4.07031 164.868 4.07031 193.068C4.07031 223.068 17.2703 241.768 34.0703 250.768C50.8703 259.758 70.0703 260.378 84.3703 260.388H84.3803C84.4003 260.388 84.4248 260.388 84.4448 260.388C84.4455 260.389 84.4461 260.389 84.4468 260.39C84.4916 260.39 84.5466 260.392 84.5918 260.392C139.192 261.327 254.592 263.192 284.592 263.192C304.592 263.192 324.892 256.592 340.392 242.792C355.892 229.092 366.192 207.992 366.192 181.192C366.192 130.992 329.392 96.892 292.592 92.492C290.302 72.492 279.592 51.292 262.292 33.992C242.592 14.392 213.992 0.0920029 179.092 0.0920029L178.999 0ZM163.398 39.8C138.598 39.8 118.599 60.6 118.599 83C118.599 85.2543 119.494 87.4163 121.088 89.0104C122.682 90.6045 124.844 91.5 127.099 91.5C129.353 91.5 131.515 90.6045 133.109 89.0104C134.703 87.4163 135.599 85.2543 135.599 83C135.599 71.8 148.898 56.8 163.398 56.8C165.653 56.8 167.815 55.9045 169.409 54.3104C171.003 52.7164 171.898 50.5543 171.898 48.3C171.898 46.0457 171.003 43.8837 169.409 42.2896C167.815 40.6955 165.653 39.8 163.398 39.8ZM284.398 108.9C313.198 108.9 348.999 136.3 348.999 181.1C348.999 203.6 340.888 219.3 328.898 229.9C316.898 240.5 300.598 246 284.398 246C262.898 246 196.598 245 139.398 244.08C159.098 232.68 179.399 214.08 194.699 185.08C213.399 149.48 228.599 130.48 242.199 120.58C255.799 110.68 267.998 108.98 284.298 108.98L284.398 108.9Z" fill="#000AFF"/>
</g>
<defs>
<filter id="filter0_d_2049_1058" x="0.0703125" y="0" width="370.125" height="271.192" filterUnits="userSpaceOnUse" color-interpolation-filters="sRGB">
<feFlood flood-opacity="0" result="BackgroundImageFix"/>
<feColorMatrix in="SourceAlpha" type="matrix" values="0 0 0 0 0 0 0 0 0 0 0 0 0 0 0 0 0 0 127 0" result="hardAlpha"/>
<feOffset dy="4"/>
<feGaussianBlur stdDeviation="2"/>
<feComposite in2="hardAlpha" operator="out"/>
<feColorMatrix type="matrix" values="0 0 0 0 0 0 0 0 0 0 0 0 0 0 0 0 0 0 0.25 0"/>
<feBlend mode="normal" in2="BackgroundImageFix" result="effect1_dropShadow_2049_1058"/>
<feBlend mode="normal" in="SourceGraphic" in2="effect1_dropShadow_2049_1058" result="shape"/>
</filter>
</defs>
</svg>
