<svg width="45" height="16" viewBox="0 0 45 16" fill="none" xmlns="http://www.w3.org/2000/svg">
<path d="M20.845 14.9951C20.8381 14.9882 20.71 14.9729 20.56 14.9609C20.3422 14.9436 20.2504 14.9235 20.0982 14.8595C19.5798 14.6416 19.1359 14.2179 18.8823 13.7032C18.6831 13.2959 18.657 13.1698 18.6353 12.5096C18.6133 11.8553 18.5863 11.7114 18.4242 11.3682C18.1512 10.79 17.6708 10.3984 17.0441 10.2567C16.9826 10.2426 16.7815 10.2212 16.5965 10.209C16.1914 10.1823 15.9669 10.1232 15.664 9.96579C15.1635 9.7032 14.7912 9.21979 14.6569 8.66029C14.5925 8.39173 14.5874 7.63827 14.6482 7.36971C14.7869 6.75874 15.1704 6.27309 15.7448 5.98215C15.9828 5.86205 16.2252 5.80535 16.6102 5.77924C17.0354 5.75067 17.2152 5.7077 17.5054 5.56514C18.0276 5.30926 18.4155 4.83331 18.5647 4.27456C18.6058 4.1179 18.6206 3.95676 18.6367 3.49126C18.6548 2.96757 18.6637 2.88401 18.7217 2.68558C18.988 1.79038 19.7587 1.08914 20.542 1.01454C20.8336 0.986934 26.4652 0.986934 26.7561 1.01454C27.0053 1.03811 27.2127 1.10853 27.4678 1.25624C28.3406 1.75979 28.8181 2.7184 28.7062 3.74788C28.6393 4.38646 28.3869 4.91164 27.9453 5.33686C27.6275 5.63899 27.2731 5.84265 26.8561 5.96126L26.6569 6.01781L23.6878 6.03243C20.9575 6.04586 20.7038 6.05056 20.5696 6.09062C20.1876 6.20327 19.9392 6.33978 19.6818 6.57701C19.0171 7.18948 18.8538 8.07647 19.2656 8.86723C19.5102 9.33945 19.9258 9.68037 20.4666 9.86687L20.6404 9.92499L23.6021 9.93938C26.3175 9.95259 26.5786 9.95744 26.7502 9.99787C27.5186 10.1784 28.1303 10.6596 28.466 11.3407C28.6174 11.6473 28.6823 11.8793 28.7174 12.2433C28.7965 13.0565 28.516 13.8323 27.949 14.3694C27.5902 14.7104 27.1657 14.9304 26.8002 14.9707C26.5831 14.9945 20.8769 15.0251 20.8545 15.0026L20.845 14.9951ZM32.781 14.9959C32.7729 14.9875 32.6497 14.9715 32.5072 14.9603C32.2797 14.9424 32.2222 14.9278 32.0342 14.8394C31.7366 14.6999 31.5359 14.5589 31.3017 14.3239C30.9719 13.9935 30.7616 13.6249 30.6362 13.1602C30.5826 12.9595 30.5822 12.9423 30.5822 10.5716V8.18436L30.6494 7.94116C30.818 7.33094 31.1604 6.82216 31.649 6.44916C31.8467 6.29996 32.2122 6.10824 32.4025 6.05229C32.4606 6.03551 32.5084 6.01492 32.5084 6.00671C32.5084 5.9985 32.4346 5.97053 32.3443 5.94472C31.7176 5.76493 31.1358 5.27257 30.8299 4.6616C30.536 4.07673 30.4852 3.26658 30.7016 2.63248C30.9358 1.94765 31.4625 1.3792 32.1115 1.11064C32.2145 1.06819 32.3622 1.03454 32.5211 1.01664C32.859 0.979191 38.3623 0.978669 38.7278 1.01604C38.9494 1.03872 39.0217 1.05804 39.2052 1.14436C39.7603 1.40471 40.1601 1.79487 40.4212 2.3305C40.6159 2.7311 40.6443 2.87731 40.6681 3.5987C40.6868 4.16118 40.6949 4.241 40.7539 4.44168C40.8643 4.81542 41.0367 5.09965 41.3082 5.35926C41.6857 5.71808 42.099 5.88146 42.7107 5.91279C43.0665 5.93092 43.3284 5.99783 43.6059 6.14032C44.014 6.35144 44.2974 6.63865 44.4862 7.03552C44.5772 7.22426 44.5973 7.29438 44.6145 7.48312C44.6462 7.82628 44.6412 12.8021 44.6088 13.1154C44.5638 13.5496 44.3522 13.9584 43.9777 14.3389C43.7576 14.5604 43.554 14.7029 43.2586 14.8417C43.0042 14.961 42.7625 14.9953 42.1843 14.9946C41.6726 14.9938 41.4085 14.9656 41.2145 14.8931C40.4827 14.6126 39.9239 13.9756 39.7151 13.1848C39.6636 12.9901 39.6619 12.9244 39.6455 10.5514C39.6276 7.94042 39.6317 8.02248 39.4978 7.53758C39.3374 6.95271 38.9906 6.5081 38.5131 6.27684C37.7887 5.921 37.0659 5.99709 36.4169 6.49616C36.2154 6.65133 36.0245 6.89751 35.8902 7.17353C35.682 7.60322 35.691 7.46447 35.691 10.165C35.691 11.6346 35.6811 12.6492 35.6651 12.8058C35.6198 13.2467 35.4913 13.6115 35.2556 13.9621C34.8997 14.497 34.2858 14.9245 33.7859 14.9692C33.5099 14.998 32.7938 15.0229 32.7788 15.0044L32.781 14.9959Z" fill="black"/>
<path d="M6.83929 14.9963C6.83241 14.9894 6.70426 14.9741 6.55432 14.9621C6.33649 14.9448 6.24473 14.9246 6.09329 14.8614C5.43756 14.5862 4.92207 14.0035 4.71319 13.3023C4.65545 13.1083 4.6459 13.0196 4.6274 12.5115C4.61114 12.0647 4.59532 11.8961 4.55504 11.7431C4.36406 11.0061 3.82694 10.4675 3.08542 10.2735C3.01007 10.2537 2.79149 10.227 2.60052 10.2142C2.18574 10.1865 1.96567 10.1299 1.66056 9.97326C1.29353 9.78378 0.939923 9.41227 0.772819 9.04076C0.684045 8.84307 0.659427 8.61181 0.660173 8.00382C0.661217 7.41374 0.686656 7.15338 0.760883 6.98926C0.927987 6.60806 1.28905 6.22088 1.65608 6.03438C1.95821 5.87847 2.17977 5.82177 2.59604 5.79417C3.09735 5.76067 3.36442 5.68078 3.69266 5.46667C4.14175 5.1735 4.43866 4.74753 4.55802 4.22086C4.58562 4.10075 4.60666 3.84935 4.61979 3.47933C4.63755 2.98026 4.64695 2.89596 4.70558 2.69603C4.97041 1.80083 5.73506 1.09959 6.52582 1.02499C6.86898 0.992542 12.464 0.997241 12.7698 1.03022C12.9921 1.05409 13.0548 1.0723 13.2659 1.1742C13.5636 1.31818 13.7575 1.45469 13.9791 1.677C14.3946 2.09402 14.6378 2.62442 14.6908 3.22868C14.7646 4.07166 14.4909 4.81766 13.9075 5.3697C13.6106 5.64871 13.245 5.8546 12.8407 5.96949L12.6415 6.02603L9.67245 6.0408C6.89733 6.05461 6.68845 6.05856 6.53925 6.10116C6.1655 6.20634 5.83055 6.40403 5.57691 6.66737C5.001 7.26865 4.86299 8.06985 5.20839 8.80093C5.4486 9.30821 5.84771 9.66629 6.38706 9.85279L6.62355 9.93485L9.58517 9.94895C12.3006 9.96185 12.5617 9.9667 12.7333 10.0071C13.5464 10.1989 14.1805 10.7255 14.5013 11.4618C14.6729 11.8595 14.74 12.2974 14.699 12.7599C14.6424 13.3917 14.4088 13.8938 13.9672 14.3339C13.6031 14.6972 13.169 14.9307 12.781 14.9733C12.5639 14.9971 6.85779 15.0276 6.83541 15.0052L6.83929 14.9963Z" fill="black" fill-opacity="0.582"/>
</svg>
