<svg width="170" height="29" viewBox="0 0 170 29" fill="none" xmlns="http://www.w3.org/2000/svg">
<path fill-rule="evenodd" clip-rule="evenodd" d="M36.7085 4.94352C36.7085 2.21329 38.9238 0 41.6564 0H51.9315C54.7385 0 57.014 2.27353 57.014 5.07807C57.014 7.88261 54.7385 10.1561 51.9315 10.1561H41.3738C39.1092 10.1561 37.2733 11.9904 37.2733 14.2531C37.2733 16.5158 39.1092 18.3501 41.3738 18.3501H51.9315C54.7385 18.3501 57.014 20.6236 57.014 23.4281C57.014 26.2327 54.7385 28.5062 51.9315 28.5062H41.6435C38.918 28.5062 36.7085 26.2987 36.7085 23.5755V22.7417C36.7085 20.4791 34.8727 18.6449 32.6082 18.6449C30.3436 18.6449 28.5078 16.8107 28.5078 14.5481V13.9838C28.5078 11.7212 30.3436 9.88704 32.6082 9.88704C34.8727 9.88704 36.7085 8.05285 36.7085 5.79025V4.94352Z" fill="#4D54FF"/>
<path fill-rule="evenodd" clip-rule="evenodd" d="M8.20072 4.94352C8.20072 2.21329 10.416 0 13.1486 0H23.4237C26.2307 0 28.5062 2.27353 28.5062 5.07807C28.5062 7.88261 26.2307 10.1561 23.4237 10.1561H12.866C10.6014 10.1561 8.76548 11.9904 8.76548 14.2531C8.76548 16.5158 10.6014 18.3501 12.866 18.3501H23.4237C26.2307 18.3501 28.5062 20.6236 28.5062 23.4281C28.5062 26.2327 26.2307 28.5062 23.4237 28.5062H13.1357C10.4102 28.5062 8.20072 26.2987 8.20072 23.5755V22.7417C8.20072 20.4791 6.36493 18.6449 4.10036 18.6449C1.83579 18.6449 0 16.8107 0 14.5481V13.9838C0 11.7212 1.83579 9.88704 4.10036 9.88704C6.36493 9.88704 8.20072 8.05285 8.20072 5.79025V4.94352Z" fill="#A7ABFF"/>
<path fill-rule="evenodd" clip-rule="evenodd" d="M81.0781 6.05419C81.0781 8.31487 82.9123 10.1475 85.175 10.1475C87.4376 10.1475 89.2718 11.9802 89.2718 14.2408V23.4937C89.2718 26.262 87.0257 28.5062 84.255 28.5062C81.4843 28.5062 79.2382 26.262 79.2382 23.4937V15.638C79.2382 10.8338 76.552 10.1965 74.9451 10.1475C72.7153 10.1747 70.9219 11.9882 70.9219 14.216L70.9219 23.4324C70.9219 26.2346 68.6483 28.5062 65.8438 28.5062C63.0392 28.5062 60.7656 26.2346 60.7656 23.4324L60.7656 15.5889C60.7656 12.8066 62.8557 10.512 65.5527 10.1869C62.8816 10.0241 60.7656 7.80809 60.7656 5.09827C60.7656 2.28257 63.0502 -1.23078e-07 65.8683 0L76 4.42491e-07C78.8046 5.64977e-07 81.0781 2.2716 81.0781 5.07376V6.05419Z" fill="#4D54FF"/>
<path d="M105.248 6.8537C104.583 6.8537 104.009 6.71054 103.525 6.42421C103.045 6.13787 102.673 5.73731 102.412 5.22252C102.153 4.70773 102.023 4.10918 102.023 3.42685C102.023 2.74453 102.153 2.14597 102.412 1.63118C102.673 1.11639 103.045 0.715831 103.525 0.429499C104.009 0.143166 104.583 0 105.248 0C106.012 0 106.653 0.187335 107.17 0.562003C107.691 0.936673 108.058 1.44385 108.27 2.08353L107.004 2.43078C106.881 2.03174 106.673 1.72256 106.38 1.50325C106.088 1.28088 105.71 1.1697 105.248 1.1697C104.826 1.1697 104.474 1.2626 104.19 1.44842C103.91 1.63423 103.699 1.89619 103.557 2.23431C103.416 2.57242 103.345 2.96994 103.345 3.42685C103.345 3.88377 103.416 4.28128 103.557 4.6194C103.699 4.95751 103.91 5.21948 104.19 5.40529C104.474 5.5911 104.826 5.68401 105.248 5.68401C105.71 5.68401 106.088 5.57282 106.38 5.35046C106.673 5.12809 106.881 4.81892 107.004 4.42292L108.27 4.77018C108.058 5.40986 107.691 5.91703 107.17 6.2917C106.653 6.66637 106.012 6.8537 105.248 6.8537Z" fill="#4D54FF"/>
<path d="M109.842 6.71663V0.137074H111.099V5.55607H113.963V6.71663H109.842Z" fill="#4D54FF"/>
<path d="M114.749 6.71663L116.782 0.137074H118.657L120.69 6.71663H119.397L117.586 0.913827H117.826L116.042 6.71663H114.749ZM115.968 5.34589V4.18533H119.48V5.34589H115.968Z" fill="#4D54FF"/>
<path d="M124.313 6.8537C123.821 6.8537 123.376 6.76841 122.978 6.59783C122.584 6.42421 122.259 6.17747 122.003 5.85763C121.751 5.53475 121.591 5.15094 121.523 4.70621L122.835 4.51431C122.927 4.89202 123.118 5.18292 123.408 5.38701C123.697 5.5911 124.027 5.69314 124.397 5.69314C124.603 5.69314 124.803 5.66116 124.997 5.59719C125.191 5.53322 125.35 5.4388 125.473 5.31391C125.599 5.18902 125.663 5.03519 125.663 4.85242C125.663 4.78541 125.652 4.72144 125.63 4.66052C125.612 4.59655 125.579 4.53715 125.533 4.48232C125.487 4.42749 125.421 4.37571 125.335 4.32697C125.251 4.27824 125.145 4.23407 125.016 4.19447L123.288 3.69186C123.158 3.65531 123.007 3.60353 122.835 3.53651C122.666 3.4695 122.501 3.37355 122.341 3.24866C122.18 3.12377 122.046 2.95928 121.939 2.75519C121.834 2.54806 121.782 2.28761 121.782 1.97387C121.782 1.53218 121.894 1.16513 122.119 0.872705C122.344 0.58028 122.644 0.362485 123.02 0.219319C123.396 0.0761521 123.811 0.00609199 124.267 0.00913823C124.726 0.0152303 125.136 0.0929056 125.496 0.242164C125.857 0.391423 126.158 0.609218 126.402 0.895551C126.645 1.17884 126.821 1.52609 126.929 1.93731L125.57 2.16577C125.521 1.95254 125.43 1.77282 125.298 1.62661C125.165 1.4804 125.006 1.36922 124.822 1.29307C124.64 1.21691 124.449 1.17579 124.249 1.1697C124.052 1.16361 123.865 1.19102 123.69 1.25194C123.517 1.30982 123.376 1.39511 123.265 1.50781C123.157 1.62052 123.103 1.75455 123.103 1.9099C123.103 2.05307 123.148 2.17034 123.237 2.26172C123.326 2.35006 123.439 2.42164 123.574 2.47647C123.71 2.5313 123.848 2.57699 123.99 2.61355L125.145 2.92425C125.318 2.96994 125.509 3.03086 125.718 3.10701C125.927 3.18012 126.128 3.28369 126.319 3.41771C126.513 3.5487 126.671 3.72232 126.795 3.9386C126.921 4.15487 126.984 4.42902 126.984 4.76104C126.984 5.11439 126.908 5.42357 126.758 5.68858C126.61 5.95054 126.409 6.16833 126.157 6.34196C125.904 6.51254 125.618 6.64048 125.298 6.72577C124.98 6.81106 124.652 6.8537 124.313 6.8537Z" fill="#4D54FF"/>
<path d="M131.11 6.8537C130.617 6.8537 130.172 6.76841 129.775 6.59783C129.381 6.42421 129.056 6.17747 128.8 5.85763C128.548 5.53475 128.387 5.15094 128.32 4.70621L129.632 4.51431C129.724 4.89202 129.915 5.18292 130.205 5.38701C130.494 5.5911 130.824 5.69314 131.193 5.69314C131.4 5.69314 131.6 5.66116 131.794 5.59719C131.988 5.53322 132.147 5.4388 132.27 5.31391C132.396 5.18902 132.459 5.03519 132.459 4.85242C132.459 4.78541 132.449 4.72144 132.427 4.66052C132.409 4.59655 132.376 4.53715 132.33 4.48232C132.284 4.42749 132.218 4.37571 132.131 4.32697C132.048 4.27824 131.942 4.23407 131.813 4.19447L130.085 3.69186C129.955 3.65531 129.804 3.60353 129.632 3.53651C129.462 3.4695 129.298 3.37355 129.137 3.24866C128.977 3.12377 128.843 2.95928 128.735 2.75519C128.631 2.54806 128.578 2.28761 128.578 1.97387C128.578 1.53218 128.691 1.16513 128.916 0.872705C129.141 0.58028 129.441 0.362485 129.817 0.219319C130.192 0.0761521 130.608 0.00609199 131.064 0.00913823C131.523 0.0152303 131.933 0.0929056 132.293 0.242164C132.653 0.391423 132.955 0.609218 133.199 0.895551C133.442 1.17884 133.618 1.52609 133.725 1.93731L132.367 2.16577C132.318 1.95254 132.227 1.77282 132.094 1.62661C131.962 1.4804 131.803 1.36922 131.619 1.29307C131.437 1.21691 131.246 1.17579 131.046 1.1697C130.848 1.16361 130.662 1.19102 130.487 1.25194C130.314 1.30982 130.172 1.39511 130.061 1.50781C129.954 1.62052 129.9 1.75455 129.9 1.9099C129.9 2.05307 129.944 2.17034 130.034 2.26172C130.123 2.35006 130.236 2.42164 130.371 2.47647C130.507 2.5313 130.645 2.57699 130.787 2.61355L131.942 2.92425C132.114 2.96994 132.305 3.03086 132.515 3.10701C132.724 3.18012 132.925 3.28369 133.115 3.41771C133.31 3.5487 133.468 3.72232 133.591 3.9386C133.718 4.15487 133.781 4.42902 133.781 4.76104C133.781 5.11439 133.705 5.42357 133.554 5.68858C133.407 5.95054 133.206 6.16833 132.954 6.34196C132.701 6.51254 132.415 6.64048 132.094 6.72577C131.777 6.81106 131.449 6.8537 131.11 6.8537Z" fill="#4D54FF"/>
<path d="M135.258 6.71663V0.137074H139.601V1.29763H136.515V2.70493H139.047V3.86549H136.515V5.55607H139.601V6.71663H135.258Z" fill="#4D54FF"/>
<path d="M143.684 6.8537C143.191 6.8537 142.746 6.76841 142.349 6.59783C141.955 6.42421 141.63 6.17747 141.374 5.85763C141.122 5.53475 140.961 5.15094 140.894 4.70621L142.206 4.51431C142.298 4.89202 142.489 5.18292 142.779 5.38701C143.068 5.5911 143.398 5.69314 143.767 5.69314C143.974 5.69314 144.174 5.66116 144.368 5.59719C144.562 5.53322 144.721 5.4388 144.844 5.31391C144.97 5.18902 145.033 5.03519 145.033 4.85242C145.033 4.78541 145.023 4.72144 145.001 4.66052C144.983 4.59655 144.95 4.53715 144.904 4.48232C144.858 4.42749 144.792 4.37571 144.705 4.32697C144.622 4.27824 144.516 4.23407 144.387 4.19447L142.659 3.69186C142.529 3.65531 142.378 3.60353 142.206 3.53651C142.036 3.4695 141.872 3.37355 141.711 3.24866C141.551 3.12377 141.417 2.95928 141.309 2.75519C141.205 2.54806 141.152 2.28761 141.152 1.97387C141.152 1.53218 141.265 1.16513 141.49 0.872705C141.715 0.58028 142.015 0.362485 142.391 0.219319C142.766 0.0761521 143.182 0.00609199 143.638 0.00913823C144.097 0.0152303 144.507 0.0929056 144.867 0.242164C145.227 0.391423 145.529 0.609218 145.773 0.895551C146.016 1.17884 146.192 1.52609 146.299 1.93731L144.941 2.16577C144.892 1.95254 144.801 1.77282 144.668 1.62661C144.536 1.4804 144.377 1.36922 144.193 1.29307C144.011 1.21691 143.82 1.17579 143.62 1.1697C143.422 1.16361 143.236 1.19102 143.061 1.25194C142.888 1.30982 142.746 1.39511 142.635 1.50781C142.528 1.62052 142.474 1.75455 142.474 1.9099C142.474 2.05307 142.518 2.17034 142.608 2.26172C142.697 2.35006 142.81 2.42164 142.945 2.47647C143.081 2.5313 143.219 2.57699 143.361 2.61355L144.516 2.92425C144.688 2.96994 144.879 3.03086 145.089 3.10701C145.298 3.18012 145.499 3.28369 145.689 3.41771C145.884 3.5487 146.042 3.72232 146.165 3.9386C146.292 4.15487 146.355 4.42902 146.355 4.76104C146.355 5.11439 146.279 5.42357 146.128 5.68858C145.981 5.95054 145.78 6.16833 145.528 6.34196C145.275 6.51254 144.989 6.64048 144.668 6.72577C144.351 6.81106 144.023 6.8537 143.684 6.8537Z" fill="#4D54FF"/>
<path d="M105.248 17.6605C104.583 17.6605 104.009 17.5174 103.525 17.231C103.045 16.9447 102.673 16.5441 102.412 16.0294C102.153 15.5146 102.023 14.916 102.023 14.2337C102.023 13.5514 102.153 12.9528 102.412 12.438C102.673 11.9232 103.045 11.5227 103.525 11.2363C104.009 10.95 104.583 10.8068 105.248 10.8068C106.012 10.8068 106.653 10.9942 107.17 11.3688C107.691 11.7435 108.058 12.2507 108.27 12.8904L107.004 13.2376C106.881 12.8386 106.673 12.5294 106.38 12.3101C106.088 12.0877 105.71 11.9765 105.248 11.9765C104.826 11.9765 104.474 12.0694 104.19 12.2553C103.91 12.4411 103.699 12.703 103.557 13.0411C103.416 13.3793 103.345 13.7768 103.345 14.2337C103.345 14.6906 103.416 15.0881 103.557 15.4262C103.699 15.7644 103.91 16.0263 104.19 16.2121C104.474 16.3979 104.826 16.4908 105.248 16.4908C105.71 16.4908 106.088 16.3797 106.38 16.1573C106.673 15.9349 106.881 15.6258 107.004 15.2298L108.27 15.577C108.058 16.2167 107.691 16.7239 107.17 17.0985C106.653 17.4732 106.012 17.6605 105.248 17.6605Z" fill="#4D54FF"/>
<path d="M112.457 17.6605C111.921 17.6605 111.45 17.5539 111.043 17.3407C110.636 17.1244 110.319 16.8213 110.091 16.4314C109.863 16.0415 109.749 15.5831 109.749 15.0561V10.953L111.025 10.9439V15.047C111.025 15.2633 111.062 15.4597 111.135 15.6364C111.209 15.8131 111.311 15.9654 111.44 16.0933C111.573 16.2213 111.725 16.3203 111.898 16.3903C112.073 16.4573 112.26 16.4908 112.457 16.4908C112.66 16.4908 112.848 16.4558 113.021 16.3858C113.196 16.3157 113.349 16.2167 113.478 16.0888C113.607 15.9608 113.707 15.8085 113.778 15.6318C113.852 15.4552 113.889 15.2602 113.889 15.047V10.9439H115.164V15.0561C115.164 15.5831 115.05 16.0415 114.822 16.4314C114.595 16.8213 114.277 17.1244 113.871 17.3407C113.464 17.5539 112.993 17.6605 112.457 17.6605Z" fill="#4D54FF"/>
<path d="M117.009 17.5235V10.9439H118.265V16.3629H121.13V17.5235H117.009Z" fill="#4D54FF"/>
<path d="M123 17.5235V12.1045H120.903V10.9439H126.355V12.1045H124.257V17.5235H123Z" fill="#4D54FF"/>
<path d="M130.267 17.6605C129.731 17.6605 129.259 17.5539 128.853 17.3407C128.446 17.1244 128.129 16.8213 127.901 16.4314C127.673 16.0415 127.559 15.5831 127.559 15.0561V10.953L128.834 10.9439V15.047C128.834 15.2633 128.871 15.4597 128.945 15.6364C129.019 15.8131 129.121 15.9654 129.25 16.0933C129.383 16.2213 129.535 16.3203 129.708 16.3903C129.883 16.4573 130.069 16.4908 130.267 16.4908C130.47 16.4908 130.658 16.4558 130.83 16.3858C131.006 16.3157 131.158 16.2167 131.288 16.0888C131.417 15.9608 131.517 15.8085 131.588 15.6318C131.662 15.4552 131.699 15.2602 131.699 15.047V10.9439H132.974V15.0561C132.974 15.5831 132.86 16.0415 132.632 16.4314C132.404 16.8213 132.087 17.1244 131.68 17.3407C131.274 17.5539 130.803 17.6605 130.267 17.6605Z" fill="#4D54FF"/>
<path d="M134.726 17.5235V10.9439H137.535C137.6 10.9439 137.686 10.947 137.794 10.953C137.905 10.9561 138.003 10.9652 138.089 10.9805C138.487 11.0414 138.812 11.1708 139.064 11.3688C139.32 11.5668 139.508 11.8166 139.628 12.1182C139.748 12.4167 139.808 12.7502 139.808 13.1188C139.808 13.6702 139.67 14.1423 139.392 14.5353C139.115 14.9252 138.681 15.1658 138.089 15.2572L137.535 15.2937H135.983V17.5235H134.726ZM138.478 17.5235L137.165 14.846L138.459 14.5992L139.901 17.5235H138.478ZM135.983 14.1332H137.48C137.544 14.1332 137.615 14.1301 137.692 14.124C137.769 14.1179 137.84 14.1058 137.905 14.0875C138.074 14.0418 138.205 13.9656 138.297 13.859C138.39 13.7494 138.453 13.629 138.487 13.4981C138.524 13.364 138.542 13.2376 138.542 13.1188C138.542 13 138.524 12.8751 138.487 12.7442C138.453 12.6101 138.39 12.4898 138.297 12.3832C138.205 12.2735 138.074 12.1959 137.905 12.1502C137.84 12.1319 137.769 12.1197 137.692 12.1136C137.615 12.1075 137.544 12.1045 137.48 12.1045H135.983V14.1332Z" fill="#4D54FF"/>
<path d="M141.378 17.5235V10.9439H145.721V12.1045H142.635V13.5118H145.167V14.6723H142.635V16.3629H145.721V17.5235H141.378Z" fill="#4D54FF"/>
<path d="M147.383 17.5235V10.9439H148.64V16.3629H151.505V17.5235H147.383Z" fill="#4D54FF"/>
<path d="M152.845 17.5235V10.9439H154.101V16.3629H156.966V17.5235H152.845Z" fill="#4D54FF"/>
<path d="M158.214 17.5235V10.9439H162.557V12.1045H159.47V13.5118H162.002V14.6723H159.47V16.3629H162.557V17.5235H158.214Z" fill="#4D54FF"/>
<path d="M166.639 17.6605C166.147 17.6605 165.702 17.5753 165.304 17.4047C164.91 17.231 164.585 16.9843 164.329 16.6645C164.077 16.3416 163.917 15.9578 163.849 15.513L165.161 15.3211C165.253 15.6989 165.444 15.9898 165.734 16.1939C166.023 16.3979 166.353 16.5 166.723 16.5C166.929 16.5 167.129 16.468 167.323 16.404C167.517 16.3401 167.676 16.2456 167.799 16.1207C167.925 15.9959 167.989 15.842 167.989 15.6593C167.989 15.5922 167.978 15.5283 167.956 15.4674C167.938 15.4034 167.905 15.344 167.859 15.2892C167.813 15.2343 167.747 15.1825 167.661 15.1338C167.577 15.0851 167.471 15.0409 167.342 15.0013L165.614 14.4987C165.484 14.4621 165.333 14.4104 165.161 14.3433C164.992 14.2763 164.827 14.1804 164.667 14.0555C164.506 13.9306 164.372 13.7661 164.265 13.562C164.16 13.3549 164.108 13.0945 164.108 12.7807C164.108 12.339 164.22 11.972 164.445 11.6795C164.67 11.3871 164.97 11.1693 165.346 11.0262C165.722 10.883 166.137 10.8129 166.593 10.816C167.052 10.8221 167.462 10.8997 167.822 11.049C168.183 11.1983 168.484 11.4161 168.728 11.7024C168.971 11.9857 169.147 12.3329 169.255 12.7442L167.896 12.9726C167.847 12.7594 167.756 12.5797 167.624 12.4334C167.491 12.2872 167.333 12.1761 167.148 12.0999C166.966 12.0238 166.775 11.9826 166.575 11.9765C166.378 11.9704 166.191 11.9979 166.016 12.0588C165.843 12.1167 165.702 12.2019 165.591 12.3147C165.483 12.4274 165.429 12.5614 165.429 12.7167C165.429 12.8599 165.474 12.9772 165.563 13.0686C165.652 13.1569 165.765 13.2285 165.9 13.2833C166.036 13.3381 166.174 13.3838 166.316 13.4204L167.471 13.7311C167.644 13.7768 167.835 13.8377 168.044 13.9139C168.253 13.987 168.454 14.0905 168.645 14.2246C168.839 14.3555 168.997 14.5292 169.121 14.7454C169.247 14.9617 169.31 15.2359 169.31 15.5679C169.31 15.9212 169.235 16.2304 169.084 16.4954C168.936 16.7574 168.736 16.9752 168.483 17.1488C168.23 17.3194 167.944 17.4473 167.624 17.5326C167.306 17.6179 166.978 17.6605 166.639 17.6605Z" fill="#4D54FF"/>
<path d="M102.393 28.3303V21.7507H103.668L106.561 26.1371V21.7507H107.836V28.3303H106.561L103.668 23.9439V28.3303H102.393Z" fill="#4D54FF"/>
<path d="M112.294 28.4674C111.758 28.4674 111.287 28.3608 110.881 28.1475C110.474 27.9313 110.157 27.6282 109.929 27.2383C109.701 26.8484 109.587 26.3899 109.587 25.863V21.7599L110.862 21.7507V25.8538C110.862 26.0701 110.899 26.2666 110.973 26.4433C111.047 26.6199 111.149 26.7722 111.278 26.9002C111.41 27.0281 111.563 27.1271 111.735 27.1972C111.911 27.2642 112.097 27.2977 112.294 27.2977C112.498 27.2977 112.686 27.2627 112.858 27.1926C113.034 27.1225 113.186 27.0235 113.316 26.8956C113.445 26.7677 113.545 26.6154 113.616 26.4387C113.69 26.262 113.727 26.0671 113.727 25.8538V21.7507H115.002V25.863C115.002 26.3899 114.888 26.8484 114.66 27.2383C114.432 27.6282 114.115 27.9313 113.708 28.1475C113.302 28.3608 112.83 28.4674 112.294 28.4674Z" fill="#4D54FF"/>
<path d="M116.754 28.3303V21.7507H117.881L120.08 26.1188L122.28 21.7507H123.407V28.3303H122.233V24.4008L120.302 28.3303H119.859L117.927 24.4008V28.3303H116.754Z" fill="#4D54FF"/>
<path d="M128.058 21.0654H126.82L127.171 19.9688H128.409L128.058 21.0654ZM125.166 28.3303V21.7507H129.509V22.9113H126.423V24.3186H128.955V25.4792H126.423V27.1697H129.509V28.3303H125.166Z" fill="#4D54FF"/>
<path d="M131.078 28.3303V21.7507H133.888C133.952 21.7507 134.039 21.7538 134.146 21.7599C134.257 21.7629 134.356 21.7721 134.442 21.7873C134.839 21.8482 135.164 21.9777 135.417 22.1757C135.673 22.3737 135.86 22.6235 135.981 22.925C136.101 23.2235 136.161 23.5571 136.161 23.9257C136.161 24.477 136.022 24.9491 135.745 25.3421C135.468 25.732 135.033 25.9726 134.442 26.064L133.888 26.1006H132.335V28.3303H131.078ZM134.83 28.3303L133.518 25.6528L134.812 25.4061L136.253 28.3303H134.83ZM132.335 24.94H133.832C133.897 24.94 133.968 24.937 134.045 24.9309C134.122 24.9248 134.193 24.9126 134.257 24.8943C134.427 24.8486 134.558 24.7725 134.65 24.6659C134.742 24.5562 134.805 24.4359 134.839 24.3049C134.876 24.1709 134.895 24.0445 134.895 23.9257C134.895 23.8069 134.876 23.682 134.839 23.551C134.805 23.417 134.742 23.2966 134.65 23.19C134.558 23.0804 134.427 23.0027 134.257 22.957C134.193 22.9387 134.122 22.9265 134.045 22.9204C133.968 22.9144 133.897 22.9113 133.832 22.9113H132.335V24.94Z" fill="#4D54FF"/>
<path d="M137.823 28.3303V21.7507H139.08V28.3303H137.823Z" fill="#4D54FF"/>
<path d="M146.13 28.4674L144.189 26.5575L144.965 25.7899L146.897 27.6998L146.13 28.4674ZM143.783 28.4674C143.117 28.4674 142.543 28.3242 142.059 28.0379C141.579 27.7515 141.208 27.351 140.946 26.8362C140.687 26.3214 140.558 25.7229 140.558 25.0405C140.558 24.3582 140.687 23.7596 140.946 23.2449C141.208 22.7301 141.579 22.3295 142.059 22.0432C142.543 21.7568 143.117 21.6137 143.783 21.6137C144.448 21.6137 145.021 21.7568 145.501 22.0432C145.985 22.3295 146.356 22.7301 146.615 23.2449C146.877 23.7596 147.007 24.3582 147.007 25.0405C147.007 25.7229 146.877 26.3214 146.615 26.8362C146.356 27.351 145.985 27.7515 145.501 28.0379C145.021 28.3242 144.448 28.4674 143.783 28.4674ZM143.783 27.2977C144.205 27.3038 144.556 27.2139 144.836 27.0281C145.116 26.8423 145.326 26.5788 145.464 26.2376C145.606 25.8965 145.677 25.4974 145.677 25.0405C145.677 24.5836 145.606 24.1876 145.464 23.8526C145.326 23.5175 145.116 23.257 144.836 23.0712C144.556 22.8854 144.205 22.7895 143.783 22.7834C143.361 22.7773 143.009 22.8671 142.729 23.053C142.449 23.2388 142.238 23.5023 142.096 23.8434C141.958 24.1846 141.888 24.5836 141.888 25.0405C141.888 25.4974 141.958 25.8934 142.096 26.2285C142.238 26.5636 142.449 26.824 142.729 27.0098C143.009 27.1956 143.361 27.2916 143.783 27.2977Z" fill="#4D54FF"/>
<path d="M151.099 28.4674C150.563 28.4674 150.092 28.3608 149.686 28.1475C149.279 27.9313 148.962 27.6282 148.734 27.2383C148.506 26.8484 148.392 26.3899 148.392 25.863V21.7599L149.667 21.7507V25.8538C149.667 26.0701 149.704 26.2666 149.778 26.4433C149.852 26.6199 149.953 26.7722 150.083 26.9002C150.215 27.0281 150.368 27.1271 150.54 27.1972C150.716 27.2642 150.902 27.2977 151.099 27.2977C151.303 27.2977 151.49 27.2627 151.663 27.1926C151.839 27.1225 151.991 27.0235 152.12 26.8956C152.25 26.7677 152.35 26.6154 152.421 26.4387C152.495 26.262 152.532 26.0671 152.532 25.8538V21.7507H153.807V25.863C153.807 26.3899 153.693 26.8484 153.465 27.2383C153.237 27.6282 152.92 27.9313 152.513 28.1475C152.107 28.3608 151.635 28.4674 151.099 28.4674Z" fill="#4D54FF"/>
<path d="M155.559 28.3303V21.7507H159.902V22.9113H156.815V24.3186H159.347V25.4792H156.815V27.1697H159.902V28.3303H155.559Z" fill="#4D54FF"/>
<path d="M163.985 28.4674C163.492 28.4674 163.047 28.3821 162.649 28.2115C162.255 28.0379 161.93 27.7911 161.674 27.4713C161.422 27.1484 161.262 26.7646 161.194 26.3199L162.506 26.128C162.599 26.5057 162.789 26.7966 163.079 27.0007C163.369 27.2048 163.698 27.3068 164.068 27.3068C164.274 27.3068 164.474 27.2748 164.668 27.2109C164.862 27.1469 165.021 27.0525 165.144 26.9276C165.271 26.8027 165.334 26.6489 165.334 26.4661C165.334 26.3991 165.323 26.3351 165.301 26.2742C165.283 26.2102 165.251 26.1508 165.204 26.096C165.158 26.0412 165.092 25.9894 165.006 25.9406C164.923 25.8919 164.816 25.8477 164.687 25.8081L162.959 25.3055C162.83 25.269 162.679 25.2172 162.506 25.1502C162.337 25.0832 162.172 24.9872 162.012 24.8623C161.852 24.7374 161.718 24.573 161.61 24.3689C161.505 24.1617 161.453 23.9013 161.453 23.5875C161.453 23.1459 161.565 22.7788 161.79 22.4864C162.015 22.194 162.315 21.9762 162.691 21.833C163.067 21.6898 163.483 21.6198 163.938 21.6228C164.397 21.6289 164.807 21.7066 165.167 21.8558C165.528 22.0051 165.83 22.2229 166.073 22.5092C166.316 22.7925 166.492 23.1398 166.6 23.551L165.241 23.7794C165.192 23.5662 165.101 23.3865 164.969 23.2403C164.836 23.0941 164.678 22.9829 164.493 22.9067C164.311 22.8306 164.12 22.7895 163.92 22.7834C163.723 22.7773 163.536 22.8047 163.361 22.8656C163.188 22.9235 163.047 23.0088 162.936 23.1215C162.828 23.2342 162.774 23.3682 162.774 23.5236C162.774 23.6667 162.819 23.784 162.908 23.8754C162.997 23.9637 163.11 24.0353 163.245 24.0901C163.381 24.145 163.519 24.1907 163.661 24.2272L164.816 24.5379C164.989 24.5836 165.18 24.6445 165.389 24.7207C165.599 24.7938 165.799 24.8974 165.99 25.0314C166.184 25.1624 166.342 25.336 166.466 25.5523C166.592 25.7685 166.655 26.0427 166.655 26.3747C166.655 26.7281 166.58 27.0372 166.429 27.3023C166.281 27.5642 166.081 27.782 165.828 27.9556C165.576 28.1262 165.289 28.2542 164.969 28.3394C164.651 28.4247 164.323 28.4674 163.985 28.4674Z" fill="#4D54FF"/>
</svg>
