<svg width="120" height="28" viewBox="0 0 100 18" fill="none" xmlns="http://www.w3.org/2000/svg">
<path fill-rule="evenodd" clip-rule="evenodd" d="M22.5206 3.03358C22.5206 1.35818 23.88 0 25.5569 0H31.8622C33.5847 0 34.9811 1.39515 34.9811 3.11615V3.11615C34.9811 4.83715 33.5847 6.2323 31.8622 6.2323H25.3835C23.9938 6.2323 22.8672 7.3579 22.8672 8.74639V8.74639C22.8672 10.1349 23.9938 11.2605 25.3835 11.2605H31.8622C33.5847 11.2605 34.9811 12.6556 34.9811 14.3766V14.3766C34.9811 16.0976 33.5847 17.4928 31.8622 17.4928H25.549C23.8765 17.4928 22.5206 16.1381 22.5206 14.4671V13.9554C22.5206 12.567 21.3941 11.4414 20.0045 11.4414V11.4414C18.6148 11.4414 17.4883 10.3158 17.4883 8.92741V8.58115C17.4883 7.19272 18.6148 6.06717 20.0045 6.06717V6.06717C21.3941 6.06717 22.5206 4.94162 22.5206 3.55318V3.03358Z" fill="#4D54FF"/>
<path fill-rule="evenodd" clip-rule="evenodd" d="M5.03236 3.03358C5.03236 1.35818 6.39174 0 8.0686 0H14.3739C16.0964 0 17.4928 1.39515 17.4928 3.11615V3.11615C17.4928 4.83715 16.0964 6.2323 14.3739 6.2323H7.89522C6.50551 6.2323 5.37893 7.3579 5.37893 8.74639V8.74639C5.37893 10.1349 6.50551 11.2605 7.89522 11.2605H14.3739C16.0964 11.2605 17.4928 12.6556 17.4928 14.3766V14.3766C17.4928 16.0976 16.0964 17.4928 14.3739 17.4928H8.0607C6.3882 17.4928 5.03236 16.1381 5.03236 14.4671V13.9554C5.03236 12.567 3.90583 11.4414 2.51618 11.4414V11.4414C1.12653 11.4414 0 10.3158 0 8.92741V8.58115C0 7.19272 1.12653 6.06717 2.51618 6.06717V6.06717C3.90583 6.06717 5.03236 4.94162 5.03236 3.55318V3.03358Z" fill="#A7ABFF"/>
<path fill-rule="evenodd" clip-rule="evenodd" d="M49.7499 3.71515C49.7499 5.10241 50.8755 6.22701 52.2639 6.22701C53.6524 6.22701 54.7779 7.35161 54.7779 8.73887V14.4169C54.7779 16.1157 53.3996 17.4928 51.6994 17.4928C49.9992 17.4928 48.6208 16.1157 48.6208 14.4169V9.59622C48.6208 6.64816 46.9724 6.25709 45.9864 6.22701C44.618 6.24369 43.5175 7.35656 43.5175 8.72362L43.5175 14.3793C43.5175 16.0988 42.1224 17.4928 40.4013 17.4928C38.6803 17.4928 37.2852 16.0988 37.2852 14.3793L37.2852 9.56613C37.2852 7.85875 38.5677 6.45066 40.2228 6.25121C38.5836 6.15129 37.2852 4.79142 37.2852 3.12855C37.2852 1.4007 38.6871 -7.55267e-08 40.4164 0L46.6337 2.71534e-07C48.3547 3.46697e-07 49.7499 1.39396 49.7499 3.11351V3.71515Z" fill="#4D54FF"/>
<path d="M60.7754 4.2115C60.3681 4.2115 60.0163 4.12353 59.7202 3.94758C59.426 3.77163 59.1987 3.52549 59.0384 3.20916C58.88 2.89283 58.8008 2.52503 58.8008 2.10575C58.8008 1.68647 58.88 1.31867 59.0384 1.00234C59.1987 0.686007 59.426 0.439868 59.7202 0.263921C60.0163 0.0879736 60.3681 0 60.7754 0C61.2432 0 61.6355 0.115114 61.9523 0.345343C62.2711 0.575572 62.4955 0.887223 62.6256 1.2803L61.8505 1.49368C61.775 1.24848 61.6477 1.05849 61.4686 0.923723C61.2894 0.787083 61.0583 0.718763 60.7754 0.718763C60.5171 0.718763 60.3011 0.775852 60.1276 0.890031C59.956 1.00421 59.8268 1.16518 59.74 1.37295C59.6533 1.58072 59.6099 1.82498 59.6099 2.10575C59.6099 2.38652 59.6533 2.63078 59.74 2.83855C59.8268 3.04632 59.956 3.20729 60.1276 3.32147C60.3011 3.43565 60.5171 3.49274 60.7754 3.49274C61.0583 3.49274 61.2894 3.42442 61.4686 3.28778C61.6477 3.15114 61.775 2.96115 61.8505 2.71782L62.6256 2.93121C62.4955 3.32428 62.2711 3.63593 61.9523 3.86616C61.6355 4.09639 61.2432 4.2115 60.7754 4.2115Z" fill="#4D54FF"/>
<path d="M63.588 4.12727V0.0842299H64.3575V3.41412H66.1115V4.12727H63.588Z" fill="#4D54FF"/>
<path d="M66.5926 4.12727L67.8373 0.0842299H68.9859L70.2307 4.12727H69.4386L68.3296 0.561533H68.4767L67.3847 4.12727H66.5926ZM67.3394 3.28497V2.57182H69.4895V3.28497H67.3394Z" fill="#4D54FF"/>
<path d="M72.4491 4.2115C72.1474 4.2115 71.8748 4.15909 71.6315 4.05427C71.3901 3.94758 71.1912 3.79597 71.0346 3.59943C70.88 3.40102 70.7819 3.16518 70.7404 2.8919L71.5438 2.77398C71.6004 3.00608 71.7174 3.18483 71.8946 3.31024C72.0719 3.43565 72.2737 3.49835 72.5001 3.49835C72.6264 3.49835 72.749 3.4787 72.8678 3.43939C72.9867 3.40009 73.0838 3.34206 73.1592 3.26532C73.2366 3.18857 73.2752 3.09405 73.2752 2.98174C73.2752 2.94056 73.2686 2.90126 73.2554 2.86382C73.2441 2.82451 73.2243 2.78801 73.196 2.75432C73.1677 2.72063 73.1272 2.68881 73.0744 2.65886C73.0234 2.62891 72.9584 2.60177 72.8792 2.57744L71.8211 2.2686C71.7419 2.24613 71.6495 2.21431 71.5438 2.17313C71.4401 2.13196 71.3392 2.07299 71.2411 1.99625C71.1431 1.91951 71.061 1.81843 70.995 1.69302C70.9309 1.56574 70.8988 1.40571 70.8988 1.21291C70.8988 0.941504 70.9677 0.715955 71.1053 0.536265C71.243 0.356574 71.4269 0.222741 71.657 0.134768C71.8871 0.0467943 72.1417 0.00374344 72.4208 0.00561531C72.7019 0.00935882 72.9527 0.0570891 73.1734 0.148806C73.394 0.240524 73.5789 0.374356 73.7279 0.550303C73.8769 0.724378 73.9844 0.937761 74.0504 1.19045L73.2186 1.33083C73.1885 1.19981 73.1328 1.08937 73.0517 0.99953C72.9706 0.909684 72.8735 0.841364 72.7603 0.79457C72.6491 0.747776 72.5321 0.722506 72.4095 0.718763C72.2888 0.715019 72.1747 0.731865 72.0672 0.769301C71.9616 0.804865 71.8748 0.857274 71.8069 0.92653C71.7409 0.995786 71.7079 1.07814 71.7079 1.17361C71.7079 1.26158 71.7353 1.33364 71.79 1.3898C71.8447 1.44408 71.9135 1.48806 71.9965 1.52176C72.0795 1.55545 72.1643 1.58352 72.2511 1.60599L72.9584 1.79691C73.064 1.82498 73.1809 1.86242 73.3092 1.90921C73.4374 1.95414 73.56 2.01778 73.6769 2.10014C73.7958 2.18062 73.8929 2.28731 73.9683 2.42021C74.0457 2.55311 74.0843 2.72157 74.0843 2.92559C74.0843 3.14272 74.0381 3.3327 73.9457 3.49555C73.8552 3.65652 73.7326 3.79035 73.5779 3.89704C73.4233 4.00186 73.2479 4.08048 73.0517 4.13289C72.8575 4.1853 72.6566 4.2115 72.4491 4.2115Z" fill="#4D54FF"/>
<path d="M76.6109 4.2115C76.3091 4.2115 76.0366 4.15909 75.7933 4.05427C75.5519 3.94758 75.3529 3.79597 75.1964 3.59943C75.0417 3.40102 74.9437 3.16518 74.9022 2.8919L75.7056 2.77398C75.7622 3.00608 75.8791 3.18483 76.0564 3.31024C76.2337 3.43565 76.4355 3.49835 76.6618 3.49835C76.7882 3.49835 76.9108 3.4787 77.0296 3.43939C77.1484 3.40009 77.2456 3.34206 77.321 3.26532C77.3983 3.18857 77.437 3.09405 77.437 2.98174C77.437 2.94056 77.4304 2.90126 77.4172 2.86382C77.4059 2.82451 77.3861 2.78801 77.3578 2.75432C77.3295 2.72063 77.2889 2.68881 77.2361 2.65886C77.1852 2.62891 77.1201 2.60177 77.0409 2.57744L75.9829 2.2686C75.9037 2.24613 75.8112 2.21431 75.7056 2.17313C75.6019 2.13196 75.501 2.07299 75.4029 1.99625C75.3048 1.91951 75.2228 1.81843 75.1568 1.69302C75.0927 1.56574 75.0606 1.40571 75.0606 1.21291C75.0606 0.941504 75.1294 0.715955 75.2671 0.536265C75.4048 0.356574 75.5887 0.222741 75.8188 0.134768C76.0489 0.0467943 76.3035 0.00374344 76.5826 0.00561531C76.8636 0.00935882 77.1145 0.0570891 77.3351 0.148806C77.5558 0.240524 77.7406 0.374356 77.8896 0.550303C78.0386 0.724378 78.1461 0.937761 78.2121 1.19045L77.3804 1.33083C77.3502 1.19981 77.2946 1.08937 77.2135 0.99953C77.1324 0.909684 77.0353 0.841364 76.9221 0.79457C76.8108 0.747776 76.6939 0.722506 76.5713 0.718763C76.4506 0.715019 76.3365 0.731865 76.229 0.769301C76.1234 0.804865 76.0366 0.857274 75.9687 0.92653C75.9027 0.995786 75.8697 1.07814 75.8697 1.17361C75.8697 1.26158 75.897 1.33364 75.9517 1.3898C76.0064 1.44408 76.0753 1.48806 76.1583 1.52176C76.2413 1.55545 76.3261 1.58352 76.4129 1.60599L77.1201 1.79691C77.2258 1.82498 77.3427 1.86242 77.4709 1.90921C77.5992 1.95414 77.7218 2.01778 77.8387 2.10014C77.9575 2.18062 78.0547 2.28731 78.1301 2.42021C78.2074 2.55311 78.2461 2.72157 78.2461 2.92559C78.2461 3.14272 78.1999 3.3327 78.1075 3.49555C78.0169 3.65652 77.8943 3.79035 77.7397 3.89704C77.585 4.00186 77.4096 4.08048 77.2135 4.13289C77.0192 4.1853 76.8184 4.2115 76.6109 4.2115Z" fill="#4D54FF"/>
<path d="M79.1508 4.12727V0.0842299H81.8101V0.797377H79.9203V1.66214H81.4706V2.37529H79.9203V3.41412H81.8101V4.12727H79.1508Z" fill="#4D54FF"/>
<path d="M84.3101 4.2115C84.0083 4.2115 83.7358 4.15909 83.4925 4.05427C83.2511 3.94758 83.0521 3.79597 82.8956 3.59943C82.7409 3.40102 82.6428 3.16518 82.6013 2.8919L83.4048 2.77398C83.4614 3.00608 83.5783 3.18483 83.7556 3.31024C83.9329 3.43565 84.1347 3.49835 84.361 3.49835C84.4874 3.49835 84.61 3.4787 84.7288 3.43939C84.8476 3.40009 84.9447 3.34206 85.0202 3.26532C85.0975 3.18857 85.1362 3.09405 85.1362 2.98174C85.1362 2.94056 85.1296 2.90126 85.1164 2.86382C85.105 2.82451 85.0852 2.78801 85.0569 2.75432C85.0287 2.72063 84.9881 2.68881 84.9353 2.65886C84.8844 2.62891 84.8193 2.60177 84.7401 2.57744L83.682 2.2686C83.6028 2.24613 83.5104 2.21431 83.4048 2.17313C83.3011 2.13196 83.2002 2.07299 83.1021 1.99625C83.004 1.91951 82.922 1.81843 82.856 1.69302C82.7918 1.56574 82.7598 1.40571 82.7598 1.21291C82.7598 0.941504 82.8286 0.715955 82.9663 0.536265C83.104 0.356574 83.2879 0.222741 83.5179 0.134768C83.748 0.0467943 84.0027 0.00374344 84.2818 0.00561531C84.5628 0.00935882 84.8136 0.0570891 85.0343 0.148806C85.255 0.240524 85.4398 0.374356 85.5888 0.550303C85.7378 0.724378 85.8453 0.937761 85.9113 1.19045L85.0796 1.33083C85.0494 1.19981 84.9938 1.08937 84.9127 0.99953C84.8316 0.909684 84.7344 0.841364 84.6213 0.79457C84.51 0.747776 84.3931 0.722506 84.2705 0.718763C84.1498 0.715019 84.0357 0.731865 83.9282 0.769301C83.8225 0.804865 83.7358 0.857274 83.6679 0.92653C83.6019 0.995786 83.5689 1.07814 83.5689 1.17361C83.5689 1.26158 83.5962 1.33364 83.6509 1.3898C83.7056 1.44408 83.7744 1.48806 83.8574 1.52176C83.9404 1.55545 84.0253 1.58352 84.112 1.60599L84.8193 1.79691C84.9249 1.82498 85.0419 1.86242 85.1701 1.90921C85.2984 1.95414 85.4209 2.01778 85.5379 2.10014C85.6567 2.18062 85.7538 2.28731 85.8293 2.42021C85.9066 2.55311 85.9453 2.72157 85.9453 2.92559C85.9453 3.14272 85.899 3.3327 85.8066 3.49555C85.7161 3.65652 85.5935 3.79035 85.4389 3.89704C85.2842 4.00186 85.1088 4.08048 84.9127 4.13289C84.7184 4.1853 84.5175 4.2115 84.3101 4.2115Z" fill="#4D54FF"/>
<path d="M60.7754 10.8521C60.3681 10.8521 60.0163 10.7642 59.7202 10.5882C59.426 10.4123 59.1987 10.1661 59.0384 9.84981C58.88 9.53348 58.8008 9.16567 58.8008 8.74639C58.8008 8.32712 58.88 7.95931 59.0384 7.64298C59.1987 7.32665 59.426 7.08051 59.7202 6.90456C60.0163 6.72862 60.3681 6.64064 60.7754 6.64064C61.2432 6.64064 61.6355 6.75576 61.9523 6.98599C62.2711 7.21622 62.4955 7.52787 62.6256 7.92094L61.8505 8.13432C61.775 7.88912 61.6477 7.69913 61.4686 7.56437C61.2894 7.42773 61.0583 7.35941 60.7754 7.35941C60.5171 7.35941 60.3011 7.4165 60.1276 7.53067C59.956 7.64485 59.8268 7.80583 59.74 8.01359C59.6533 8.22136 59.6099 8.46563 59.6099 8.74639C59.6099 9.02716 59.6533 9.27143 59.74 9.4792C59.8268 9.68696 59.956 9.84794 60.1276 9.96211C60.3011 10.0763 60.5171 10.1334 60.7754 10.1334C61.0583 10.1334 61.2894 10.0651 61.4686 9.92842C61.6477 9.79178 61.775 9.6018 61.8505 9.35847L62.6256 9.57185C62.4955 9.96492 62.2711 10.2766 61.9523 10.5068C61.6355 10.737 61.2432 10.8521 60.7754 10.8521Z" fill="#4D54FF"/>
<path d="M65.1893 10.8521C64.8611 10.8521 64.5725 10.7866 64.3236 10.6556C64.0746 10.5227 63.8804 10.3365 63.7408 10.0969C63.6012 9.85729 63.5315 9.57559 63.5315 9.25177V6.73049L64.3123 6.72487V9.24616C64.3123 9.37905 64.3349 9.49979 64.3802 9.60835C64.4254 9.71691 64.4877 9.8105 64.5669 9.88912C64.648 9.96773 64.7413 10.0286 64.847 10.0716C64.9545 10.1128 65.0686 10.1334 65.1893 10.1334C65.3137 10.1334 65.4288 10.1119 65.5344 10.0688C65.6419 10.0258 65.7353 9.96492 65.8145 9.88631C65.8937 9.80769 65.955 9.7141 65.9984 9.60554C66.0436 9.49698 66.0663 9.37718 66.0663 9.24616V6.72487H66.8471V9.25177C66.8471 9.57559 66.7773 9.85729 66.6377 10.0969C66.4982 10.3365 66.3039 10.5227 66.055 10.6556C65.806 10.7866 65.5174 10.8521 65.1893 10.8521Z" fill="#4D54FF"/>
<path d="M67.9763 10.7679V6.72487H68.7458V10.0548H70.4998V10.7679H67.9763Z" fill="#4D54FF"/>
<path d="M71.6451 10.7679V7.43802H70.3607V6.72487H73.6989V7.43802H72.4146V10.7679H71.6451Z" fill="#4D54FF"/>
<path d="M76.0943 10.8521C75.7661 10.8521 75.4776 10.7866 75.2286 10.6556C74.9797 10.5227 74.7854 10.3365 74.6458 10.0969C74.5063 9.85729 74.4365 9.57559 74.4365 9.25177V6.73049L75.2173 6.72487V9.24616C75.2173 9.37905 75.2399 9.49979 75.2852 9.60835C75.3305 9.71691 75.3927 9.8105 75.4719 9.88912C75.553 9.96773 75.6464 10.0286 75.752 10.0716C75.8595 10.1128 75.9736 10.1334 76.0943 10.1334C76.2188 10.1334 76.3338 10.1119 76.4394 10.0688C76.5469 10.0258 76.6403 9.96492 76.7195 9.88631C76.7987 9.80769 76.86 9.7141 76.9034 9.60554C76.9487 9.49698 76.9713 9.37718 76.9713 9.24616V6.72487H77.7521V9.25177C77.7521 9.57559 77.6823 9.85729 77.5428 10.0969C77.4032 10.3365 77.2089 10.5227 76.96 10.6556C76.711 10.7866 76.4225 10.8521 76.0943 10.8521Z" fill="#4D54FF"/>
<path d="M78.8248 10.7679V6.72487H80.5449C80.5845 6.72487 80.6373 6.72674 80.7033 6.73049C80.7712 6.73236 80.8315 6.73798 80.8843 6.74733C81.1276 6.78477 81.3266 6.86432 81.4813 6.98599C81.6378 7.10765 81.7529 7.26114 81.8264 7.44644C81.9 7.62988 81.9367 7.83484 81.9367 8.06132C81.9367 8.40012 81.8519 8.69024 81.6821 8.9317C81.5124 9.17129 81.2465 9.31916 80.8843 9.37531L80.5449 9.39777H79.5943V10.7679H78.8248ZM81.122 10.7679L80.3185 9.12262L81.1107 8.97101L81.9933 10.7679H81.122ZM79.5943 8.68462H80.5109C80.5505 8.68462 80.5939 8.68275 80.641 8.67901C80.6882 8.67527 80.7316 8.66778 80.7712 8.65655C80.8749 8.62847 80.9551 8.58168 81.0116 8.51616C81.0682 8.44878 81.1069 8.37485 81.1276 8.29436C81.1503 8.212 81.1616 8.13432 81.1616 8.06132C81.1616 7.98832 81.1503 7.91158 81.1276 7.8311C81.1069 7.74874 81.0682 7.6748 81.0116 7.60929C80.9551 7.5419 80.8749 7.49417 80.7712 7.4661C80.7316 7.45487 80.6882 7.44738 80.641 7.44364C80.5939 7.43989 80.5505 7.43802 80.5109 7.43802H79.5943V8.68462Z" fill="#4D54FF"/>
<path d="M82.8982 10.7679V6.72487H85.5575V7.43802H83.6677V8.30278H85.218V9.01593H83.6677V10.0548H85.5575V10.7679H82.8982Z" fill="#4D54FF"/>
<path d="M86.575 10.7679V6.72487H87.3445V10.0548H89.0985V10.7679H86.575Z" fill="#4D54FF"/>
<path d="M89.919 10.7679V6.72487H90.6885V10.0548H92.4425V10.7679H89.919Z" fill="#4D54FF"/>
<path d="M93.2065 10.7679V6.72487H95.8657V7.43802H93.9759V8.30278H95.5263V9.01593H93.9759V10.0548H95.8657V10.7679H93.2065Z" fill="#4D54FF"/>
<path d="M98.3657 10.8521C98.064 10.8521 97.7914 10.7997 97.5481 10.6949C97.3067 10.5882 97.1077 10.4366 96.9512 10.2401C96.7966 10.0417 96.6985 9.80582 96.657 9.53254L97.4604 9.41462C97.517 9.64672 97.634 9.82547 97.8112 9.95088C97.9885 10.0763 98.1903 10.139 98.4166 10.139C98.543 10.139 98.6656 10.1193 98.7844 10.08C98.9032 10.0407 99.0004 9.9827 99.0758 9.90596C99.1531 9.82922 99.1918 9.73469 99.1918 9.62239C99.1918 9.58121 99.1852 9.5419 99.172 9.50446C99.1607 9.46516 99.1409 9.42866 99.1126 9.39497C99.0843 9.36127 99.0438 9.32945 98.9909 9.2995C98.94 9.26956 98.875 9.24242 98.7957 9.21808L97.7377 8.90924C97.6585 8.88678 97.5661 8.85496 97.4604 8.81378C97.3567 8.7726 97.2558 8.71364 97.1577 8.6369C97.0597 8.56015 96.9776 8.45908 96.9116 8.33367C96.8475 8.20639 96.8154 8.04635 96.8154 7.85356C96.8154 7.58215 96.8843 7.3566 97.0219 7.17691C97.1596 6.99722 97.3435 6.86339 97.5736 6.77541C97.8037 6.68744 98.0583 6.64439 98.3374 6.64626C98.6185 6.65 98.8693 6.69773 99.09 6.78945C99.3106 6.88117 99.4955 7.015 99.6444 7.19095C99.7934 7.36502 99.901 7.5784 99.967 7.8311L99.1352 7.97148C99.105 7.84045 99.0494 7.73002 98.9683 7.64017C98.8872 7.55033 98.7901 7.48201 98.6769 7.43521C98.5656 7.38842 98.4487 7.36315 98.3261 7.35941C98.2054 7.35566 98.0913 7.37251 97.9838 7.40994C97.8782 7.44551 97.7914 7.49792 97.7235 7.56717C97.6575 7.63643 97.6245 7.71879 97.6245 7.81425C97.6245 7.90222 97.6519 7.97429 97.7066 8.03044C97.7613 8.08472 97.8301 8.12871 97.9131 8.1624C97.9961 8.19609 98.0809 8.22417 98.1677 8.24663L98.875 8.43755C98.9806 8.46563 99.0975 8.50306 99.2257 8.54986C99.354 8.59478 99.4766 8.65842 99.5935 8.74078C99.7123 8.82127 99.8095 8.92796 99.8849 9.06085C99.9622 9.19375 100.001 9.36221 100.001 9.56623C100.001 9.78336 99.9547 9.97334 99.8623 10.1362C99.7718 10.2972 99.6492 10.431 99.4945 10.5377C99.3399 10.6425 99.1645 10.7211 98.9683 10.7735C98.774 10.8259 98.5732 10.8521 98.3657 10.8521Z" fill="#4D54FF"/>
<path d="M59.0271 17.4086V13.3655H59.8079L61.5789 16.0609V13.3655H62.3597V17.4086H61.5789L59.8079 14.7132V17.4086H59.0271Z" fill="#4D54FF"/>
<path d="M65.0898 17.4928C64.7616 17.4928 64.4731 17.4273 64.2241 17.2963C63.9752 17.1634 63.7809 16.9771 63.6413 16.7375C63.5018 16.4979 63.432 16.2162 63.432 15.8924V13.3711L64.2128 13.3655V15.8868C64.2128 16.0197 64.2354 16.1404 64.2807 16.249C64.326 16.3576 64.3882 16.4511 64.4674 16.5298C64.5485 16.6084 64.6419 16.6692 64.7475 16.7123C64.855 16.7534 64.9691 16.774 65.0898 16.774C65.2143 16.774 65.3293 16.7525 65.435 16.7094C65.5425 16.6664 65.6358 16.6056 65.715 16.527C65.7942 16.4483 65.8555 16.3547 65.8989 16.2462C65.9442 16.1376 65.9668 16.0178 65.9668 15.8868V13.3655H66.7476V15.8924C66.7476 16.2162 66.6778 16.4979 66.5383 16.7375C66.3987 16.9771 66.2044 17.1634 65.9555 17.2963C65.7065 17.4273 65.418 17.4928 65.0898 17.4928Z" fill="#4D54FF"/>
<path d="M67.8203 17.4086V13.3655H68.5106L69.8572 16.0496L71.2038 13.3655H71.8941V17.4086H71.1755V14.994L69.993 17.4086H69.7214L68.5389 14.994V17.4086H67.8203Z" fill="#4D54FF"/>
<path d="M74.7421 12.9444H73.9839L74.1989 12.2705H74.9571L74.7421 12.9444ZM72.9711 17.4086V13.3655H75.6304V14.0787H73.7406V14.9434H75.2909V15.6566H73.7406V16.6954H75.6304V17.4086H72.9711Z" fill="#4D54FF"/>
<path d="M76.5914 17.4086V13.3655H78.3115C78.3511 13.3655 78.4039 13.3674 78.4699 13.3711C78.5378 13.373 78.5981 13.3786 78.651 13.388C78.8942 13.4254 79.0932 13.505 79.2479 13.6266C79.4044 13.7483 79.5195 13.9018 79.593 14.0871C79.6666 14.2705 79.7034 14.4755 79.7034 14.702C79.7034 15.0408 79.6185 15.3309 79.4487 15.5723C79.279 15.8119 79.0131 15.9598 78.651 16.016L78.3115 16.0384H77.3609V17.4086H76.5914ZM78.8886 17.4086L78.0851 15.7633L78.8773 15.6117L79.7599 17.4086H78.8886ZM77.3609 15.3253H78.2775C78.3171 15.3253 78.3605 15.3234 78.4077 15.3197C78.4548 15.3159 78.4982 15.3084 78.5378 15.2972C78.6415 15.2691 78.7217 15.2223 78.7783 15.1568C78.8348 15.0894 78.8735 15.0155 78.8942 14.935C78.9169 14.8526 78.9282 14.775 78.9282 14.702C78.9282 14.629 78.9169 14.5522 78.8942 14.4717C78.8735 14.3894 78.8348 14.3154 78.7783 14.2499C78.7217 14.1825 78.6415 14.1348 78.5378 14.1067C78.4982 14.0955 78.4548 14.088 78.4077 14.0843C78.3605 14.0805 78.3171 14.0787 78.2775 14.0787H77.3609V15.3253Z" fill="#4D54FF"/>
<path d="M80.7214 17.4086V13.3655H81.4909V17.4086H80.7214Z" fill="#4D54FF"/>
<path d="M85.8074 17.4928L84.6192 16.3192L85.0945 15.8475L86.277 17.0211L85.8074 17.4928ZM84.3702 17.4928C83.9629 17.4928 83.6111 17.4048 83.315 17.2289C83.0208 17.0529 82.7935 16.8068 82.6332 16.4905C82.4748 16.1741 82.3956 15.8063 82.3956 15.387C82.3956 14.9678 82.4748 14.6 82.6332 14.2836C82.7935 13.9673 83.0208 13.7212 83.315 13.5452C83.6111 13.3693 83.9629 13.2813 84.3702 13.2813C84.7776 13.2813 85.1284 13.3693 85.4226 13.5452C85.7187 13.7212 85.946 13.9673 86.1044 14.2836C86.2647 14.6 86.3449 14.9678 86.3449 15.387C86.3449 15.8063 86.2647 16.1741 86.1044 16.4905C85.946 16.8068 85.7187 17.0529 85.4226 17.2289C85.1284 17.4048 84.7776 17.4928 84.3702 17.4928ZM84.3702 16.774C84.6286 16.7778 84.8436 16.7226 85.0153 16.6084C85.1869 16.4942 85.3151 16.3323 85.4 16.1226C85.4868 15.913 85.5301 15.6678 85.5301 15.387C85.5301 15.1063 85.4868 14.8629 85.4 14.657C85.3151 14.4511 85.1869 14.2911 85.0153 14.1769C84.8436 14.0628 84.6286 14.0038 84.3702 14C84.1119 13.9963 83.8968 14.0515 83.7252 14.1657C83.5536 14.2799 83.4244 14.4418 83.3376 14.6514C83.2528 14.8611 83.2103 15.1063 83.2103 15.387C83.2103 15.6678 83.2528 15.9111 83.3376 16.117C83.4244 16.3229 83.5536 16.483 83.7252 16.5971C83.8968 16.7113 84.1119 16.7703 84.3702 16.774Z" fill="#4D54FF"/>
<path d="M88.8504 17.4928C88.5222 17.4928 88.2336 17.4273 87.9847 17.2963C87.7357 17.1634 87.5415 16.9771 87.4019 16.7375C87.2623 16.4979 87.1925 16.2162 87.1925 15.8924V13.3711L87.9734 13.3655V15.8868C87.9734 16.0197 87.996 16.1404 88.0413 16.249C88.0865 16.3576 88.1488 16.4511 88.228 16.5298C88.3091 16.6084 88.4024 16.6692 88.508 16.7123C88.6156 16.7534 88.7297 16.774 88.8504 16.774C88.9748 16.774 89.0899 16.7525 89.1955 16.7094C89.303 16.6664 89.3964 16.6056 89.4756 16.527C89.5548 16.4483 89.6161 16.3547 89.6595 16.2462C89.7047 16.1376 89.7274 16.0178 89.7274 15.8868V13.3655H90.5082V15.8924C90.5082 16.2162 90.4384 16.4979 90.2988 16.7375C90.1593 16.9771 89.965 17.1634 89.716 17.2963C89.4671 17.4273 89.1785 17.4928 88.8504 17.4928Z" fill="#4D54FF"/>
<path d="M91.5809 17.4086V13.3655H94.2402V14.0787H92.3504V14.9434H93.9007V15.6566H92.3504V16.6954H94.2402V17.4086H91.5809Z" fill="#4D54FF"/>
<path d="M96.7401 17.4928C96.4384 17.4928 96.1658 17.4404 95.9226 17.3356C95.6811 17.2289 95.4822 17.0773 95.3256 16.8807C95.171 16.6823 95.0729 16.4465 95.0314 16.1732L95.8349 16.0553C95.8914 16.2874 96.0084 16.4661 96.1856 16.5915C96.3629 16.7169 96.5647 16.7796 96.7911 16.7796C96.9174 16.7796 97.04 16.76 97.1588 16.7207C97.2777 16.6814 97.3748 16.6233 97.4502 16.5466C97.5275 16.4699 97.5662 16.3753 97.5662 16.263C97.5662 16.2219 97.5596 16.1825 97.5464 16.1451C97.5351 16.1058 97.5153 16.0693 97.487 16.0356C97.4587 16.0019 97.4182 15.9701 97.3654 15.9401C97.3144 15.9102 97.2494 15.8831 97.1702 15.8587L96.1121 15.5499C96.0329 15.5274 95.9405 15.4956 95.8349 15.4544C95.7311 15.4132 95.6302 15.3543 95.5321 15.2775C95.4341 15.2008 95.352 15.0997 95.286 14.9743C95.2219 14.847 95.1898 14.687 95.1898 14.4942C95.1898 14.2228 95.2587 13.9972 95.3963 13.8176C95.534 13.6379 95.7179 13.504 95.948 13.4161C96.1781 13.3281 96.4327 13.285 96.7118 13.2869C96.9929 13.2906 97.2437 13.3384 97.4644 13.4301C97.685 13.5218 97.8699 13.6556 98.0189 13.8316C98.1679 14.0057 98.2754 14.219 98.3414 14.4717L97.5096 14.6121C97.4795 14.4811 97.4238 14.3707 97.3427 14.2808C97.2616 14.191 97.1645 14.1227 97.0513 14.0759C96.9401 14.0291 96.8231 14.0038 96.7005 14C96.5798 13.9963 96.4657 14.0132 96.3582 14.0506C96.2526 14.0862 96.1658 14.1386 96.0979 14.2078C96.0319 14.2771 95.9989 14.3594 95.9989 14.4549C95.9989 14.5429 96.0263 14.6149 96.081 14.6711C96.1357 14.7254 96.2045 14.7694 96.2875 14.803C96.3705 14.8367 96.4553 14.8648 96.5421 14.8873L97.2494 15.0782C97.355 15.1063 97.4719 15.1437 97.6002 15.1905C97.7284 15.2354 97.851 15.2991 97.9679 15.3814C98.0868 15.4619 98.1839 15.5686 98.2593 15.7015C98.3367 15.8344 98.3753 16.0029 98.3753 16.2069C98.3753 16.424 98.3291 16.614 98.2367 16.7768C98.1462 16.9378 98.0236 17.0716 97.8689 17.1783C97.7143 17.2832 97.5389 17.3618 97.3427 17.4142C97.1485 17.4666 96.9476 17.4928 96.7401 17.4928Z" fill="#4D54FF"/>
</svg>
