<svg width="100" height="28" viewBox="0 0 84 20" fill="none" xmlns="http://www.w3.org/2000/svg">
<path d="M45.6 15.0107H43.1055V17.5052H45.6V15.0107Z" fill="black"/>
<path d="M53.1078 12.4941H50.6133V17.4831H53.1078V12.4941Z" fill="black"/>
<path d="M50.614 17.5049H45.625V19.9994H50.614V17.5049Z" fill="black"/>
<path d="M48.1195 7.50586H45.625V10.0003H48.1195V7.50586Z" fill="black"/>
<path d="M23.1273 12.4941H20.6328V19.9997H23.1273V12.4941Z" fill="black"/>
<path d="M0.636719 20H8.12016V17.5055H3.1312V10H5.62568V7.50552H3.1312V2.51656H8.12016V0H0.636719V20Z" fill="black"/>
<path d="M50.6117 10H48.1172V12.4945H50.6117V10Z" fill="black"/>
<path d="M53.1078 2.5166H50.6133V5.01108H53.1078V2.5166Z" fill="black"/>
<path d="M68.096 5.01104H65.6016V10H68.096V20H70.5905V0H68.096V5.01104Z" fill="black"/>
<path d="M83.1071 2.51656V0H75.6016V20H83.1071V17.5055H78.096V10H80.5905V7.50552H78.096V2.51656H83.1071Z" fill="black"/>
<path d="M60.6142 5.01104V0H58.0977V20H60.6142V10H63.1087V5.01104H60.6142Z" fill="black"/>
<path d="M45.6 2.5166H43.1055V7.50557H45.6V2.5166Z" fill="black"/>
<path d="M50.614 0H45.625V2.49448H50.614V0Z" fill="black"/>
<path d="M65.6 10H63.1055V14.989H65.6V10Z" fill="black"/>
<path d="M15.6195 2.51656H20.6305V0H13.125V20H15.6195V12.4945H20.6305V10H15.6195V2.51656Z" fill="black"/>
<path d="M23.1273 2.5166H20.6328V10.0221H23.1273V2.5166Z" fill="black"/>
<path d="M35.6227 2.5166V10H30.6117V2.5166H28.1172V20H30.6117V12.4945H35.6227V20H38.1172V2.5166H35.6227Z" fill="black"/>
<path d="M35.6022 0H30.6133V2.49448H35.6022V0Z" fill="black"/>
</svg>
