<svg width="68" height="48" viewBox="0 0 68 48" fill="none" xmlns="http://www.w3.org/2000/svg">
<path d="M3.35671 21.0468C2.08668 21.0468 1.32466 20.7081 0.746094 20.3765L1.26822 19.3181C1.67745 19.5792 2.43946 19.9532 3.41315 19.9532C4.49268 19.9532 5.27586 19.4663 5.27586 18.6478C5.27586 16.4888 1.26822 17.2508 1.26822 14.1604C1.26822 12.8904 2.1784 11.832 4.18928 11.832C5.12063 11.832 5.82621 12.0366 6.40477 12.2977V13.4901C5.79093 13.2291 5.15591 12.968 4.24573 12.968C3.33554 12.968 2.6088 13.2855 2.6088 14.0828C2.6088 16.0584 6.687 15.5574 6.687 18.4432C6.687 20.2848 5.16297 21.0538 3.34965 21.0538" fill="black"/>
<path d="M41.0508 1.46721C41.1707 1.947 40.7968 2.44795 40.1759 2.76546C40.1194 2.76546 40.0842 2.72313 40.0983 2.66668C40.3946 2.5044 40.5781 2.10223 40.5216 1.86939C40.4934 1.74238 40.4793 1.77061 40.3452 1.72827C40.2182 1.69299 40.1265 1.55894 40.0983 1.44604C40.0559 1.24848 40.1759 1.02976 40.3946 0.973311C40.6133 0.923921 40.945 1.04387 41.0437 1.46721" fill="black"/>
<path d="M38.3629 7.92329C37.7985 7.92329 37.5586 7.56345 37.5586 7.08366V0.980469H38.2642V6.76615C38.2642 7.20361 38.37 7.28827 38.6452 7.28827C38.6946 7.28827 38.7722 7.28827 38.8851 7.26005L38.9768 7.77512C38.7651 7.88095 38.5958 7.93034 38.37 7.93034" fill="black"/>
<path d="M42.3828 7.85988V1.57324H45.4591L45.198 2.22237H43.0813V4.31791H45.1769V4.95998H43.0813V7.21075H45.4944V7.85988H42.3828Z" fill="black"/>
<path d="M49.6527 7.85941L49.4692 7.39373C49.1376 7.68301 48.6084 7.95819 48.0087 7.95819C47.4089 7.95819 46.6328 7.64068 46.6328 6.37065V3.34375H47.3313V6.30009C47.3313 7.05505 47.6488 7.35139 48.2133 7.35139C48.7778 7.35139 49.2223 6.99155 49.4128 6.75166V3.34375H50.1113V5.96847C50.1113 7.38667 50.1395 7.6689 50.2101 7.85941H49.6597H49.6527Z" fill="black"/>
<path d="M53.5613 4.04188C53.4695 4.0066 53.3214 3.96426 53.1309 3.96426C52.8628 3.96426 52.4253 4.19005 52.136 4.50755V7.85902H51.4375V3.34336H52.009L52.1007 3.85843C52.7216 3.29397 53.0674 3.23047 53.3919 3.23047C53.5895 3.23047 53.7659 3.30808 53.8506 3.36453L53.5542 4.04188H53.5613Z" fill="black"/>
<path d="M56.1368 3.82315C55.2901 3.82315 54.8032 4.50755 54.8032 5.58002C54.8032 6.65249 55.3112 7.351 56.1509 7.351C56.9905 7.351 57.4985 6.64543 57.4985 5.58002C57.4985 4.51461 57.0117 3.82315 56.1438 3.82315M57.562 7.39334C57.2092 7.75318 56.7153 7.9578 56.1297 7.9578C55.5441 7.9578 55.0784 7.76729 54.7256 7.40039C54.3164 6.98411 54.0977 6.34204 54.0977 5.59413C54.0977 4.84623 54.3234 4.23238 54.7256 3.80904C55.0855 3.43508 55.5794 3.23047 56.1368 3.23047C56.6942 3.23047 57.2022 3.44214 57.5691 3.80904C57.9712 4.23238 58.197 4.84623 58.197 5.59413C58.197 6.34204 57.9712 6.97 57.562 7.38628" fill="black"/>
<path d="M60.6739 3.85843C60.3493 3.85843 60.1094 3.90782 59.8977 3.97132V7.16756C60.1447 7.28045 60.3281 7.351 60.6245 7.351C61.5699 7.351 62.212 6.67366 62.212 5.55885C62.212 4.37349 61.4994 3.85843 60.6739 3.85843ZM60.6527 7.95074C60.3211 7.95074 60.0882 7.88018 59.8977 7.80962V10.1168H59.1992V3.53386C59.5026 3.42803 60.0318 3.23047 60.6809 3.23047C62.0497 3.23047 62.9105 4.10538 62.9105 5.5518C62.9105 7.12522 61.7746 7.95779 60.6527 7.95779" fill="black"/>
<path d="M65.5134 3.82391C64.8431 3.82391 64.4268 4.41658 64.4268 5.12921H66.5577C66.5577 4.50125 66.2049 3.82391 65.5205 3.82391M64.4198 5.72189C64.4198 6.58269 64.9137 7.3447 65.9156 7.3447C66.2966 7.3447 66.7129 7.18948 66.981 7.02014L67.1927 7.49993C66.8681 7.76805 66.2966 7.95855 65.7674 7.95855C64.3563 7.95855 63.6719 6.80142 63.6719 5.51728C63.6719 4.23314 64.4127 3.23828 65.5064 3.23828C66.6706 3.23828 67.3126 4.16258 67.3126 5.56667V5.72895H64.4198V5.72189Z" fill="black"/>
<path d="M31.7754 11.7397C30.5477 11.7397 29.6728 12.2407 28.6285 13.0098L28.4451 11.9655H27.3303V20.6511C26.1449 23.0571 23.7177 24.7787 21.0366 25.3714C17.8262 26.084 14.2278 23.8756 12.3298 20.9404C12.2875 20.8769 12.3369 20.9404 12.3369 20.9404C12.3369 20.9404 17.0148 19.4516 19.2726 18.2028C22.2501 16.5517 26.152 12.2407 25.6933 9.15029C24.8678 8.37416 24.388 7.86615 22.6735 7.03358C20.8037 6.12339 18.0379 5.84116 15.5825 6.52557C11.1445 7.76737 8.20222 11.7115 8.01172 16.0719V16.1072C8.01172 16.1637 8.01172 16.2201 8.01172 16.2766V16.3048C8.01172 16.4247 8.01172 16.5447 8.01172 16.6717C8.01172 16.7493 8.01172 16.8269 8.01172 16.9045V16.9398C8.01877 17.1726 8.03994 17.4125 8.06111 17.6454V17.73L8.08933 17.85C8.14578 18.3368 8.24456 18.8307 8.37862 19.3246L8.39978 19.4022C8.54795 19.9314 8.73846 20.4465 8.96424 20.9333V20.9545C9.21824 21.4837 9.50047 21.9917 9.82504 22.4644L9.86737 22.5279L9.88148 22.542C10.0932 22.8454 10.3189 23.1277 10.5518 23.4028C13.1201 26.3662 17.2547 27.7633 21.2694 26.6343C23.6331 25.9711 26.667 24.2566 28.685 20.6582V14.4139C29.3835 13.8 30.3501 13.038 31.4296 13.038C32.7702 13.038 32.9607 14.2657 32.9607 15.3664V20.6582H34.3225V14.8654C34.3225 12.6711 33.0524 11.7538 31.7895 11.7538L31.7754 11.7397Z" fill="black"/>
<path d="M67.2582 16.3681C67.2582 13.6305 66.0093 11.8242 63.7374 11.8242C61.6136 11.8242 60.1602 13.7222 60.1602 16.2764C60.1602 18.1532 60.9081 19.8889 62.4391 20.6439C62.4391 20.6439 63.1871 21.0037 64.3724 21.0037C65.3249 21.0037 66.1928 20.6439 66.1928 20.6439C66.5173 20.5027 66.8066 20.3405 67.0324 20.15L66.6232 19.2186C66.1011 19.5573 65.2826 19.8536 64.5347 19.8536C62.5803 19.8536 61.6136 18.3649 61.6136 16.6856H67.2582V16.3681ZM61.6348 15.5285C61.6348 14.1314 62.4533 12.9743 63.7586 12.9743C65.0639 12.9743 65.7906 14.3008 65.7906 15.5285H61.6348Z" fill="black"/>
<path d="M50.2662 14.8017C50.2662 12.551 48.9256 11.8242 47.2463 11.8242C46.1245 11.8242 45.2002 12.0641 44.1348 12.8261L44.6922 13.8139C45.1578 13.4611 45.8634 12.9955 46.9994 12.9955C48.1354 12.9955 48.8974 13.4964 48.8974 15.0063V15.4156L47.1052 15.472C44.7768 15.5496 43.5703 16.608 43.5703 18.3437C43.5703 19.4021 44.0713 20.1993 44.8051 20.6439C44.8051 20.6439 45.4612 21.0037 46.4843 21.0037C47.3733 21.0037 48.0577 20.6439 48.0577 20.6439C48.4317 20.4604 48.7351 20.2346 48.9679 20.0018L49.229 20.6439H50.372C50.2944 20.2699 50.245 19.4938 50.245 17.49V14.8088L50.2662 14.8017ZM48.9044 18.8658C48.4952 19.2962 47.8037 19.8677 46.6537 19.8677C45.5036 19.8677 44.9391 19.141 44.9391 18.2449C44.9391 17.2783 45.5741 16.735 47.1546 16.6785L48.9044 16.6221V18.8588V18.8658Z" fill="black"/>
<path d="M42.6198 20.6443C40.8841 19.6001 37.5467 20.0798 37.5467 19.1273C37.5467 18.6828 37.7161 18.4006 37.9913 18.1042C38.3299 18.2312 38.6968 18.2877 39.1061 18.2877C41.1593 18.2877 42.5704 16.9683 42.5704 15.0491C42.5704 14.1178 42.1965 13.3557 41.5473 12.756C41.9213 12.5726 42.3658 12.6078 42.8315 12.7207L43.2195 11.493C42.1188 11.3096 41.2087 11.6977 40.7641 12.1069C40.7077 12.1633 40.6513 12.1774 40.5384 12.1281C40.108 11.9023 39.6423 11.8317 38.9932 11.8317C37.201 11.8317 35.7123 13.1935 35.7123 15.035C35.7123 16.1357 36.2555 17.1799 37.1657 17.7021C36.4602 18.2947 36.1638 18.9509 36.1638 19.3813C36.1638 19.8117 36.2908 20.1998 36.7777 20.4608C36.6577 20.5244 36.5448 20.5879 36.439 20.6514C35.6276 21.1523 35.1055 21.8014 35.1055 22.6552C35.1055 24.1087 36.5942 25.2799 39.2613 25.2799C42.3376 25.2799 43.6429 23.8829 43.6429 22.4294C43.6429 21.5686 43.2336 21.0183 42.6269 20.6514L42.6198 20.6443ZM37.1163 15.028C37.1163 13.8003 37.9348 12.9959 39.1272 12.9959C40.3196 12.9959 41.1593 13.8144 41.1593 15.0421C41.1593 16.3826 40.2844 17.1306 39.1272 17.1306C37.9701 17.1306 37.1163 16.2556 37.1163 15.028ZM39.353 24.1369C37.6385 24.1369 36.5237 23.4101 36.5237 22.5C36.5237 21.6603 37.3068 21.1594 37.7866 20.863C38.9438 21.1805 42.1259 20.9759 42.1259 22.5564C42.1259 23.5089 41.0817 24.1369 39.353 24.1369Z" fill="black"/>
<path d="M58.6862 20.6443C56.9505 19.6001 53.6132 20.0798 53.6132 19.1273C53.6132 18.6828 53.7825 18.4006 54.0577 18.1042C54.3893 18.2312 54.7632 18.2877 55.1725 18.2877C57.2257 18.2877 58.6368 16.9683 58.6368 15.0491C58.6368 14.1178 58.2629 13.3557 57.6137 12.756C57.9877 12.5726 58.4322 12.6078 58.8979 12.7207L59.2859 11.493C58.1853 11.3096 57.2751 11.6977 56.8306 12.1069C56.7741 12.1633 56.7177 12.1774 56.6048 12.1281C56.1744 11.9023 55.7087 11.8317 55.0596 11.8317C53.2745 11.8317 51.7857 13.1935 51.7857 15.035C51.7857 16.1357 52.329 17.1799 53.2392 17.7021C52.5336 18.2947 52.2302 18.9509 52.2302 19.3813C52.2302 19.8117 52.3643 20.1998 52.8441 20.4608C52.7241 20.5244 52.6112 20.5879 52.5054 20.6514C51.694 21.1523 51.1719 21.8014 51.1719 22.6552C51.1719 24.1087 52.6606 25.2799 55.3277 25.2799C58.404 25.2799 59.7022 23.8829 59.7022 22.4294C59.7022 21.5686 59.293 21.0183 58.6862 20.6514V20.6443ZM53.1828 15.028C53.1828 13.8003 54.0012 12.9959 55.1936 12.9959C56.386 12.9959 57.2257 13.8144 57.2257 15.0421C57.2257 16.3826 56.3508 17.1306 55.1936 17.1306C54.0365 17.1306 53.1828 16.2556 53.1828 15.028ZM55.4194 24.1369C53.7049 24.1369 52.5901 23.4101 52.5901 22.5C52.5901 21.6603 53.3733 21.1594 53.8601 20.863C55.0172 21.1805 58.1994 20.9759 58.1994 22.5564C58.1994 23.5089 57.1551 24.1369 55.4265 24.1369H55.4194Z" fill="black"/>
<path d="M9.01774 9.07356C9.24352 10.0614 8.51678 11.0844 7.26087 11.7124C7.16209 11.7124 7.08448 11.6066 7.1127 11.5007C7.71949 11.1832 8.09344 10.3718 7.96644 9.87791C7.91705 9.63096 7.88883 9.70152 7.61365 9.59568C7.35965 9.52512 7.16209 9.2429 7.1127 9.03122C7.03509 8.64316 7.26087 8.18454 7.71949 8.0787C8.14989 7.97287 8.82724 8.21982 9.0248 9.0665" fill="black"/>
<path d="M20.8143 44.5703H0.691406V44.8949H20.8143V44.5703Z" fill="black"/>
<path d="M20.3 32.6456C20.3 31.3262 21.0268 30.416 22.0781 30.416C23.1294 30.416 23.7997 31.2768 23.7997 32.6456V32.8079H20.9844C21.0056 33.6969 21.5066 34.3884 22.4308 34.3884C22.833 34.3884 23.1999 34.2614 23.4963 34.092L23.715 34.5718C23.341 34.8188 22.8189 34.9599 22.3321 34.9599C20.9633 34.9599 20.293 33.9156 20.293 32.6456H20.3ZM23.1011 32.2858C23.0941 31.6225 22.7695 30.9664 22.0851 30.9664C21.4007 30.9664 21.0127 31.5661 21.0056 32.2858H23.1082H23.1011Z" fill="black"/>
<path d="M24.6836 30.5289H25.2551L25.3398 31.0863C25.8196 30.6841 26.3064 30.416 26.8638 30.416C27.5412 30.416 28.1479 30.8464 28.1479 31.94V34.8682H27.4777V32.1729C27.4777 31.5238 27.3154 31.0299 26.6945 31.0299C26.2076 31.0299 25.7702 31.3262 25.368 31.679V34.8682H24.6907V30.5289H24.6836Z" fill="black"/>
<path d="M32.7189 28.8008H33.1775L35.4918 34.8616H34.765L34.1583 33.2388H31.7381L31.1384 34.8616H30.4258L32.7189 28.8008ZM33.9466 32.6744L33.3116 30.9316C33.1281 30.4024 33.0293 30.1131 32.9517 29.8874H32.9306C32.8671 30.1131 32.7542 30.4024 32.5637 30.9316L31.9428 32.6744H33.9395H33.9466Z" fill="black"/>
<path d="M36.2535 34.1491C36.183 33.9092 36.1406 33.6905 36.1406 33.3589V30.5225H36.818V33.1895C36.818 33.4859 36.825 33.6834 36.8885 33.8669C37.0014 34.2055 37.2484 34.3537 37.6012 34.3537C38.1021 34.3537 38.589 34.0433 38.8218 33.7399V30.5225H39.4921V33.3941C39.4921 34.2408 39.5274 34.643 39.5838 34.8617H38.977L38.85 34.3608C38.462 34.6994 37.9751 34.9534 37.4107 34.9534C36.9944 34.9534 36.4581 34.77 36.2465 34.1491H36.2535Z" fill="black"/>
<path d="M40.1758 30.5293H40.8814L42.1443 33.9937H42.1655L43.3932 30.5293H44.0917L42.4336 34.8968H41.855L40.1758 30.5293Z" fill="black"/>
<path d="M44.3899 32.6456C44.3899 31.3262 45.1166 30.416 46.1679 30.416C47.2192 30.416 47.8895 31.2768 47.8895 32.6456V32.8079H45.0743C45.0954 33.6969 45.5964 34.3884 46.5207 34.3884C46.9229 34.3884 47.2898 34.2614 47.5861 34.092L47.8048 34.5718C47.4309 34.8188 46.9088 34.9599 46.4219 34.9599C45.0531 34.9599 44.3828 33.9156 44.3828 32.6456H44.3899ZM47.191 32.2858C47.1839 31.6225 46.8594 30.9664 46.175 30.9664C45.4906 30.9664 45.1025 31.5661 45.0954 32.2858H47.198H47.191Z" fill="black"/>
<path d="M48.7695 30.5289H49.341L49.4257 31.0793C49.9055 30.5571 50.2724 30.416 50.6463 30.416C50.8227 30.416 51.0062 30.4583 51.112 30.5289L50.8721 31.1428C50.7592 31.0863 50.6534 31.051 50.4982 31.051C50.1877 31.051 49.8773 31.2415 49.4539 31.6719V34.8611H48.7766V30.5218L48.7695 30.5289Z" fill="black"/>
<path d="M51.1484 35.7928C51.1484 35.3553 51.4024 34.939 51.9528 34.6709C51.7623 34.558 51.6423 34.3605 51.6423 34.1276C51.6423 33.923 51.727 33.6125 52.101 33.2739C51.6988 33.0058 51.4307 32.5471 51.4307 31.9615C51.4307 31.0937 52.0939 30.4234 53.0253 30.4234C53.3992 30.4234 53.6603 30.508 53.8437 30.5856C53.8861 30.6068 53.9072 30.6068 53.9354 30.5786C54.1471 30.3669 54.4293 30.2188 54.8245 30.2188C54.9374 30.2188 55.0432 30.2399 55.0926 30.247L54.9303 30.7761C54.8456 30.755 54.768 30.7479 54.6834 30.7479C54.5352 30.7479 54.387 30.7832 54.26 30.8679C54.5916 31.1642 54.7539 31.5734 54.7539 31.9897C54.7539 32.9281 54.0766 33.5561 53.0746 33.5561C52.863 33.5561 52.6725 33.5208 52.5031 33.4644C52.3409 33.6478 52.2703 33.8031 52.2703 33.9583C52.2703 34.8191 55.1349 34.0571 55.1349 35.6728C55.1349 36.4913 54.3376 37.0275 53.0464 37.0275C51.9034 37.0275 51.1484 36.5689 51.1484 35.7786V35.7928ZM54.4576 35.7575C54.4576 34.9672 53.1664 35.1084 52.3691 34.8685C52.1504 35.0166 51.7693 35.2636 51.7693 35.6869C51.7693 36.209 52.3197 36.5124 53.1029 36.5124C54.0201 36.5124 54.4576 36.1738 54.4576 35.7575ZM54.0624 31.9897C54.0624 31.4112 53.6603 30.9878 53.0817 30.9878C52.5031 30.9878 52.101 31.3759 52.101 31.9756C52.101 32.5754 52.4679 33.0058 53.0817 33.0058C53.6391 33.0058 54.0624 32.6459 54.0624 31.9897Z" fill="black"/>
<path d="M55.8125 30.5289H56.384L56.4687 31.0863C56.9485 30.6841 57.4353 30.416 57.9927 30.416C58.6701 30.416 59.2769 30.8464 59.2769 31.94V34.8682H58.6066V32.1729C58.6066 31.5238 58.4443 31.0299 57.8304 31.0299C57.3436 31.0299 56.9061 31.3262 56.4969 31.679V34.8682H55.8196V30.5289H55.8125Z" fill="black"/>
<path d="M60.1399 32.6456C60.1399 31.3262 60.8666 30.416 61.9179 30.416C62.9692 30.416 63.6395 31.2768 63.6395 32.6456V32.8079H60.8243C60.8454 33.6969 61.3464 34.3884 62.2707 34.3884C62.6729 34.3884 63.0398 34.2614 63.3361 34.092L63.5548 34.5718C63.1809 34.8188 62.6588 34.9599 62.1719 34.9599C60.8031 34.9599 60.1328 33.9156 60.1328 32.6456H60.1399ZM62.941 32.2858C62.9339 31.6225 62.6094 30.9664 61.925 30.9664C61.2406 30.9664 60.8525 31.5661 60.8454 32.2858H62.948H62.941Z" fill="black"/>
<path d="M64.4141 32.2998H66.7001V32.8995H64.4141V32.2998Z" fill="black"/>
<path d="M22.4766 38.8203H23.7043C24.3393 38.8203 24.7556 38.9403 25.0731 39.1449C25.5599 39.4483 25.7786 39.9422 25.7786 40.4784C25.7786 41.311 25.3271 41.8331 24.5509 42.073V42.0942C24.7344 42.1859 24.9602 42.5246 25.2777 43.0537L26.3784 44.8671H25.5881L24.5298 43.1172C24.2475 42.6375 24.0147 42.3482 23.8313 42.2988H23.1539V44.8671H22.4766V38.8203ZM23.7254 41.7273C24.057 41.7273 24.3181 41.6638 24.558 41.5226C24.8684 41.3392 25.0801 41.0005 25.0801 40.5349C25.0801 40.175 24.9602 39.8646 24.6921 39.6741C24.5016 39.5118 24.1982 39.3918 23.7254 39.3918H23.1469V41.7273H23.7184H23.7254Z" fill="black"/>
<path d="M27.1797 38.3682H27.85V41.0776C28.3086 40.6895 28.7954 40.4143 29.3528 40.4143C30.0302 40.4143 30.637 40.8447 30.637 41.9384V44.8665H29.9667V42.1712C29.9667 41.5221 29.8044 41.0282 29.1906 41.0282C28.7037 41.0282 28.2663 41.3245 27.85 41.6773V44.8665H27.1797V38.3752V38.3682Z" fill="black"/>
<path d="M31.5 42.6933C31.5 41.4162 32.2761 40.4214 33.5109 40.4214C34.7456 40.4214 35.5076 41.4233 35.5076 42.6933C35.5076 43.9633 34.7174 44.9582 33.4968 44.9582C32.2761 44.9582 31.5 43.9563 31.5 42.6933ZM34.8021 42.6933C34.8021 41.6914 34.3011 40.9929 33.5109 40.9929C32.7206 40.9929 32.1985 41.6914 32.1985 42.6933C32.1985 43.6952 32.7065 44.3796 33.5038 44.3796C34.3011 44.3796 34.8091 43.6811 34.8091 42.6933H34.8021ZM33.1793 38.6504H33.8143L34.7245 39.998H34.1388L33.5038 39.0808L32.8618 39.998H32.2832L33.1793 38.6504Z" fill="black"/>
<path d="M36.3672 40.527H36.9387L37.0234 41.0844C37.5032 40.6822 37.99 40.4141 38.5474 40.4141C39.2248 40.4141 39.8315 40.8445 39.8315 41.9381V44.8662H39.1612V42.1709C39.1612 41.5218 38.999 41.0279 38.3781 41.0279C37.8912 41.0279 37.4538 41.3242 37.0516 41.677V44.8662H36.3742V40.527H36.3672Z" fill="black"/>
<path d="M40.6828 42.6437C40.6828 41.3242 41.4096 40.4141 42.4609 40.4141C43.5122 40.4141 44.1825 41.2749 44.1825 42.6437V42.8059H41.3672C41.3884 43.695 41.8894 44.3864 42.8137 44.3864C43.2158 44.3864 43.5827 44.2594 43.8791 44.0901L44.0978 44.5699C43.7238 44.8168 43.2017 44.9579 42.7149 44.9579C41.3461 44.9579 40.6758 43.9137 40.6758 42.6437H40.6828ZM43.484 42.2838C43.4769 41.6206 43.1523 40.9644 42.4679 40.9644C41.7835 40.9644 41.3955 41.5641 41.3884 42.2838H43.491H43.484Z" fill="black"/>
<path d="M44.9648 42.2979H47.2509V42.8976H44.9648V42.2979Z" fill="black"/>
<path d="M50.0939 38.8057H50.5525L52.8668 44.8665H52.14L51.5333 43.2437H49.1131L48.5134 44.8665H47.8008L50.0939 38.8057ZM51.3216 42.6793L50.6866 40.9365C50.5031 40.4073 50.4043 40.118 50.3267 39.8922H50.3056C50.2421 40.118 50.1292 40.4073 49.9387 40.9365L49.3178 42.6793H51.3145H51.3216Z" fill="black"/>
<path d="M53.5625 38.3684H54.2328V43.8648C54.2328 44.2246 54.3457 44.3234 54.5715 44.3234C54.642 44.3234 54.7761 44.2881 54.8396 44.2599L54.9878 44.7891C54.8114 44.8737 54.5856 44.9161 54.381 44.9161C53.8306 44.9161 53.5625 44.5915 53.5625 44.0694V38.3613V38.3684Z" fill="black"/>
<path d="M55.6484 40.6822C56.1071 40.5058 56.608 40.4141 57.0807 40.4141C58.4566 40.4141 59.2821 41.2396 59.2821 42.6719C59.2821 44.1042 58.3437 44.9579 57.0878 44.9579C56.8126 44.9579 56.5375 44.8944 56.3258 44.8027V47.0394H55.6484V40.6822ZM57.0737 44.3794C58.0544 44.3794 58.5907 43.6879 58.5907 42.6578C58.5907 41.5148 57.9274 40.9997 57.0666 40.9997C56.7985 40.9997 56.5727 41.035 56.3328 41.1126V44.203C56.5798 44.3229 56.7915 44.3864 57.0737 44.3864V44.3794Z" fill="black"/>
<path d="M59.9289 42.6437C59.9289 41.3242 60.6557 40.4141 61.707 40.4141C62.7583 40.4141 63.4286 41.2749 63.4286 42.6437V42.8059H60.6133C60.6345 43.695 61.1355 44.3864 62.0598 44.3864C62.4619 44.3864 62.8288 44.2594 63.1252 44.0901L63.3439 44.5699C62.9699 44.8168 62.4478 44.9579 61.961 44.9579C60.5922 44.9579 59.9219 43.9137 59.9219 42.6437H59.9289ZM62.7301 42.2838C62.723 41.6206 62.3984 40.9644 61.714 40.9644C61.0296 40.9644 60.6416 41.5641 60.6345 42.2838H62.7371H62.7301Z" fill="black"/>
<path d="M64.1679 44.0689C64.4149 44.2241 64.7677 44.3864 65.2475 44.3864C65.7273 44.3864 66.1718 44.1818 66.1718 43.6879C66.1718 42.7424 64.1468 43.0458 64.1468 41.6065C64.1468 40.9432 64.6477 40.4141 65.6144 40.4141C66.0236 40.4141 66.4046 40.5058 66.6868 40.6187V41.2114C66.3905 41.0844 66.0659 40.9715 65.6426 40.9715C65.2192 40.9715 64.81 41.1055 64.81 41.5783C64.81 42.5449 66.8562 42.2133 66.8562 43.6809C66.8562 44.5417 66.1435 44.9579 65.2545 44.9579C64.683 44.9579 64.2244 44.7674 63.9492 44.591L64.1679 44.0689Z" fill="black"/>
<path d="M21.5737 12.1497L23.1189 11.0208L24.6641 12.1497L24.0785 10.3293L25.6519 9.19332H23.7116L23.1189 7.34473L22.5263 9.20038L20.5859 9.19332L22.1594 10.3293L21.5737 12.1497Z" fill="white"/>
<path d="M9.1753 20.9475L10.7205 19.8186L12.2728 20.9475L11.6801 19.1201L13.2535 17.9912H11.3132L10.7205 16.1426L10.1278 17.9912H8.1875L9.76092 19.1201L9.1753 20.9475Z" fill="white"/>
<path d="M12.2568 17.5825L15.7141 15.0566L19.1714 17.5825L17.8591 13.5043L21.3657 10.9784H17.0406L15.7071 6.84375L14.3877 10.9855L10.0625 10.9784L13.5692 13.5043L12.2568 17.5825Z" fill="white"/>
</svg>
