<svg width="172" height="32" viewBox="0 0 172 32" fill="none" xmlns="http://www.w3.org/2000/svg">
<g clip-path="url(#clip0_1589_1134)">
<path d="M26.0812 19.4996C26.0812 19.1241 26.2303 18.7641 26.4958 18.4986C26.7613 18.2331 27.1214 18.0839 27.4969 18.0839C27.936 18.0839 28.3572 17.9096 28.6678 17.5993C28.9785 17.289 29.1533 16.868 29.1538 16.4289V13.938C29.1538 13.4985 28.9792 13.077 28.6684 12.7661C28.3576 12.4554 27.936 12.2808 27.4966 12.2808C27.057 12.2808 26.6354 12.4554 26.3247 12.7661C26.0139 13.077 25.8393 13.4985 25.8393 13.938C25.8433 14.1265 25.8096 14.3139 25.7403 14.4892C25.6709 14.6645 25.5672 14.8242 25.4353 14.9589C25.3035 15.0936 25.146 15.2007 24.9722 15.2738C24.7984 15.3468 24.6118 15.3844 24.4233 15.3844C24.2348 15.3844 24.0481 15.3468 23.8743 15.2738C23.7006 15.2007 23.5431 15.0936 23.4112 14.9589C23.2793 14.8242 23.1756 14.6645 23.1063 14.4892C23.0369 14.3139 23.0033 14.1265 23.0073 13.938C23.0074 12.7476 23.4805 11.606 24.3223 10.7643C25.1641 9.92258 26.3058 9.44975 27.4962 9.44975C27.5231 9.44975 27.5494 9.45295 27.5762 9.45423C27.4559 9.45423 26.7961 8.23824 26.6802 8.0808C26.305 7.57533 25.8942 7.09732 25.4508 6.65041C24.6803 5.87576 23.815 5.20158 22.8755 4.64402C17.7293 1.58868 11.0202 2.4098 6.78214 6.64081C5.80621 7.61846 4.98912 8.74262 4.36039 9.97262C5.1529 9.79931 5.9742 9.8059 6.76383 9.99201C7.55346 10.1781 8.29124 10.539 8.92298 11.048C9.55466 11.557 10.0642 12.2012 10.4139 12.9332C10.7637 13.6651 10.9449 14.4663 10.944 15.2775V18.5319C10.9436 18.873 11.0106 19.2109 11.141 19.5262C11.2713 19.8414 11.4625 20.1278 11.7036 20.3691C11.9448 20.6104 12.2312 20.8017 12.5463 20.9322C12.8615 21.0627 13.1993 21.1299 13.5405 21.1297C13.916 21.1297 14.2762 21.2789 14.5417 21.5444C14.8073 21.8099 14.9565 22.1701 14.9565 22.5457C14.9565 22.9212 14.8073 23.2814 14.5417 23.5469C14.2762 23.8125 13.916 23.9617 13.5405 23.9617C12.8276 23.9618 12.1217 23.8215 11.4631 23.5487C10.8044 23.276 10.206 22.8762 9.70205 22.372C9.19805 21.8678 8.79831 21.2694 8.52574 20.6107C8.2531 19.952 8.11294 19.2461 8.11333 18.5332V15.2795C8.11403 14.6388 7.87793 14.0205 7.45042 13.5434C7.0229 13.0662 6.43404 12.764 5.79718 12.6947C5.16026 12.6253 4.52026 12.7939 4.00007 13.1679C3.47988 13.5419 3.11637 14.095 2.97928 14.7208C2.94088 15.1342 2.91528 15.5527 2.91528 15.9745C2.91541 17.7074 3.25697 19.4233 3.92033 21.0242C4.58375 22.6251 5.55597 24.0796 6.78156 25.3047C8.00715 26.5298 9.46205 27.5015 11.0632 28.1642C12.6643 28.827 14.3804 29.1679 16.1133 29.1674C16.4889 29.1674 16.8491 29.3166 17.1147 29.5822C17.3803 29.8478 17.5296 30.2081 17.5296 30.5837C17.5296 30.9593 17.3803 31.3196 17.1147 31.5852C16.8491 31.8508 16.4889 32 16.1133 32C8.85508 32 2.27016 26.7821 0.550496 19.7396C-0.764695 14.3534 0.886494 8.49743 4.82503 4.59218C10.5395 -1.0737 19.902 -1.56074 26.1631 3.48819L26.2527 3.56115C28.9119 5.71857 30.9125 8.91791 31.701 12.2523C32.1676 14.2241 32.1784 16.3483 31.5448 18.2874C31.0181 19.8983 29.134 20.9159 27.495 20.9166C27.1198 20.9153 26.7604 20.7656 26.4954 20.5C26.2305 20.2344 26.0815 19.8748 26.0812 19.4996ZM15.952 15.5483C15.9512 15.8412 15.8637 16.1273 15.7004 16.3706C15.5371 16.6138 15.3054 16.8032 15.0346 16.9148C14.7638 17.0265 14.4659 17.0553 14.1787 16.9978C13.8915 16.9403 13.6277 16.7989 13.4207 16.5916C13.2138 16.3843 13.0729 16.1203 13.0159 15.833C12.9589 15.5456 12.9882 15.2479 13.1004 14.9772C13.2124 14.7065 13.4022 14.4752 13.6457 14.3124C13.8892 14.1495 14.1755 14.0625 14.4685 14.0622C14.6634 14.0624 14.8565 14.1009 15.0365 14.1757C15.2166 14.2505 15.3802 14.36 15.518 14.498C15.6557 14.636 15.765 14.7997 15.8394 14.98C15.9139 15.1602 15.9521 15.3533 15.952 15.5483ZM6.91333 15.5483C6.91257 15.8413 6.82495 16.1275 6.66162 16.3707C6.4983 16.6139 6.26655 16.8033 5.99564 16.9149C5.72473 17.0265 5.42682 17.0553 5.13959 16.9977C4.85229 16.9401 4.58855 16.7986 4.38164 16.5911C4.17473 16.3837 4.03393 16.1196 3.97703 15.8322C3.9202 15.5447 3.94977 15.247 4.06203 14.9763C4.17434 14.7057 4.36436 14.4744 4.60801 14.3117C4.85165 14.149 5.13811 14.0622 5.4311 14.0622C5.62605 14.0623 5.81907 14.1008 5.9991 14.1755C6.17913 14.2503 6.34265 14.3599 6.48038 14.4979C6.61804 14.6359 6.7271 14.7997 6.8014 14.98C6.8757 15.1602 6.91372 15.3533 6.91333 15.5483Z" fill="black"/>
<path d="M20.1426 25.3713C21.1075 24.8596 22.0049 24.2297 22.8139 23.4961C23.0932 23.2521 23.4571 23.1274 23.8274 23.1489C24.1977 23.1704 24.5447 23.3363 24.7939 23.611C25.0431 23.8857 25.1746 24.2472 25.16 24.6178C25.1455 24.9884 24.986 25.3385 24.716 25.5927C23.7322 26.4857 22.6409 27.2526 21.4674 27.8756C21.3029 27.9651 21.1224 28.0211 20.9361 28.0403C20.7498 28.0595 20.5616 28.0417 20.3824 27.9877C20.2031 27.9337 20.0362 27.8446 19.8916 27.7257C19.747 27.6068 19.6274 27.4604 19.5397 27.2949C19.4521 27.1294 19.3981 26.9483 19.3809 26.7618C19.3638 26.5753 19.3838 26.3874 19.4398 26.2087C19.4958 26.03 19.5867 25.8642 19.7073 25.7209C19.8278 25.5776 19.9756 25.4597 20.142 25.3739L20.1426 25.3713Z" fill="black"/>
<path d="M42.3555 22.8063V8.95999C42.3555 8.7054 42.4566 8.46118 42.6366 8.28115C42.8166 8.10112 43.0609 8 43.3155 8H43.3475C43.6021 8 43.8462 8.10112 44.0262 8.28115C44.2063 8.46118 44.3075 8.7054 44.3075 8.95999V22.8063C44.3075 23.0609 44.2063 23.3051 44.0262 23.4851C43.8462 23.6652 43.6021 23.7663 43.3475 23.7663H43.3155C43.0609 23.7663 42.8166 23.6652 42.6366 23.4851C42.4566 23.3051 42.3555 23.0609 42.3555 22.8063Z" fill="black"/>
<path d="M52.3033 24.0002C51.5414 24.011 50.7864 23.8552 50.0909 23.5439C49.4589 23.262 48.8999 22.8391 48.457 22.3074C48.0202 21.7719 47.6857 21.1605 47.4701 20.5039C47.2368 19.8008 47.1203 19.0642 47.1251 18.3234C47.1251 17.2623 47.3321 16.3023 47.7459 15.4435C48.1453 14.6007 48.7719 13.8862 49.5552 13.3801C50.3471 12.8638 51.2631 12.6057 52.3033 12.6057C53.0436 12.5975 53.7721 12.7921 54.4096 13.1683C55.0099 13.5107 55.5072 14.0095 55.847 14.6115V13.8435C55.847 13.5889 55.9481 13.3447 56.128 13.1646C56.3084 12.9846 56.5523 12.8835 56.807 12.8835H56.8179C57.0726 12.8835 57.3164 12.9846 57.4969 13.1646C57.6768 13.3447 57.7779 13.5889 57.7779 13.8435V22.8066C57.7779 23.0612 57.6768 23.3054 57.4969 23.4855C57.3164 23.6655 57.0726 23.7666 56.8179 23.7666H56.7859C56.5312 23.7666 56.2873 23.6655 56.1068 23.4855C55.927 23.3054 55.8259 23.0612 55.8259 22.8066V21.9106C55.5264 22.55 55.0419 23.085 54.4358 23.4466C53.8201 23.8157 53.1093 24.0002 52.3033 24.0002ZM52.5792 22.4085C53.6614 22.4085 54.4877 22.0318 55.0566 21.2783C55.6256 20.5248 55.9104 19.5115 55.911 18.2383C55.911 17.036 55.6211 16.0617 55.0413 15.3155C54.4614 14.5692 53.6339 14.1961 52.5587 14.1961C51.4268 14.1961 50.5655 14.571 49.975 15.3206C49.3845 16.0702 49.0893 17.0535 49.0893 18.2703C49.0893 19.494 49.3864 20.4896 49.9808 21.2572C50.5751 22.0247 51.4413 22.4085 52.5792 22.4085Z" fill="black"/>
<path d="M66.1855 23.9997C64.5016 23.9997 63.1564 23.4744 62.1484 22.424C61.1404 21.3736 60.6367 20.0278 60.6367 18.3869C60.6367 16.6679 61.1487 15.2744 62.1727 14.2064C63.1967 13.1385 64.5477 12.6052 66.2258 12.6064C67.4629 12.6064 68.4869 12.8921 69.2978 13.4634C69.4501 13.5693 69.5576 13.7271 69.6011 13.9072C69.6453 14.0872 69.621 14.277 69.5346 14.4407C69.4872 14.5297 69.4226 14.6084 69.3445 14.672C69.2658 14.7356 69.1755 14.7828 69.0789 14.811C68.9823 14.8391 68.8805 14.8475 68.7807 14.8356C68.6802 14.8238 68.5835 14.792 68.4959 14.7421C67.8744 14.3867 67.164 14.209 66.3634 14.209C65.2543 14.209 64.3583 14.5717 63.6754 15.297C62.9925 16.0223 62.6514 17.0497 62.6514 18.3792C62.6514 19.6101 62.9823 20.5898 63.6434 21.3181C64.3045 22.0464 65.2005 22.4107 66.3314 22.4112C67.1231 22.417 67.9039 22.2233 68.6015 21.848C68.6949 21.7987 68.7979 21.7693 68.9029 21.7615C69.0085 21.7537 69.1141 21.7677 69.2139 21.8027C69.3138 21.8378 69.4053 21.893 69.4827 21.965C69.5602 22.037 69.6216 22.1241 69.6639 22.2211C69.7387 22.3938 69.7477 22.5879 69.6895 22.7668C69.6312 22.9458 69.5096 23.0973 69.3471 23.1926C68.4376 23.7307 67.3836 23.9997 66.1855 23.9997Z" fill="black"/>
<path d="M72.7305 22.8063V8.95999C72.7305 8.7054 72.8316 8.46118 73.0114 8.28115C73.1919 8.10112 73.4357 8 73.6905 8H73.7225C73.9772 8 74.221 8.10112 74.4015 8.28115C74.5813 8.46118 74.6825 8.7054 74.6825 8.95999V22.8063C74.6825 23.0609 74.5813 23.3051 74.4015 23.4851C74.221 23.6652 73.9772 23.7663 73.7225 23.7663H73.6905C73.4357 23.7663 73.1919 23.6652 73.0114 23.4851C72.8316 23.3051 72.7305 23.0609 72.7305 22.8063Z" fill="black"/>
<path d="M82.6835 23.9999C81.9219 24.0106 81.1667 23.8549 80.4711 23.5435C79.8387 23.2619 79.2794 22.8388 78.8359 22.3071C78.3994 21.7715 78.0647 21.1601 77.849 20.5036C77.616 19.8005 77.4996 19.0639 77.504 18.3231C77.504 17.262 77.7108 16.302 78.1248 15.4431C78.5235 14.6005 79.1488 13.8857 79.9315 13.3791C80.7232 12.8629 81.6397 12.6047 82.6797 12.6047C83.4202 12.5965 84.1485 12.7911 84.7859 13.1673C85.3869 13.5098 85.8835 14.0085 86.2233 14.6105V13.8425C86.2233 13.5879 86.3245 13.3437 86.5043 13.1636C86.6848 12.9836 86.9286 12.8825 87.1833 12.8825H87.1942C87.4489 12.8825 87.6928 12.9836 87.8732 13.1636C88.0531 13.3437 88.1542 13.5879 88.1542 13.8425V22.8063C88.1542 23.0609 88.0531 23.3051 87.8732 23.4851C87.6928 23.6651 87.4489 23.7663 87.1942 23.7663H87.1622C86.9075 23.7663 86.6637 23.6651 86.4832 23.4851C86.3033 23.3051 86.2022 23.0609 86.2022 22.8063V21.9103C85.9027 22.5496 85.4189 23.0847 84.8121 23.4463C84.1984 23.8154 83.4893 23.9999 82.6835 23.9999ZM82.9594 22.4082C84.0416 22.4082 84.8678 22.0314 85.4368 21.278C86.0057 20.5245 86.2905 19.5111 86.2912 18.238C86.2912 17.0356 86.0013 16.0614 85.4214 15.3151C84.8416 14.5689 84.0141 14.1958 82.9395 14.1958C81.8074 14.1958 80.9466 14.5706 80.3559 15.3202C79.7651 16.0699 79.4701 17.0532 79.4701 18.27C79.4701 19.4937 79.7671 20.4893 80.3616 21.2568C80.9562 22.0244 81.8214 22.4082 82.9581 22.4082H82.9594Z" fill="black"/>
<path d="M95.4371 23.9999C94.4982 23.9999 93.6688 23.8585 92.9488 23.5756C92.5641 23.4275 92.1897 23.2521 91.8301 23.0508C91.6713 22.9597 91.5504 22.8151 91.4877 22.643C91.4256 22.4708 91.4269 22.2821 91.4909 22.1106V22.1055C91.5286 22.0034 91.5881 21.9105 91.6643 21.8329C91.7405 21.7552 91.8326 21.6946 91.9344 21.655C92.0355 21.6155 92.1443 21.5978 92.2531 21.6032C92.3619 21.6086 92.4681 21.6369 92.5654 21.6863C92.824 21.8169 93.0896 21.9341 93.3603 22.037C93.9708 22.2747 94.6198 22.3971 95.2751 22.398C96.7183 22.398 97.4396 21.8674 97.4396 20.8063C97.4396 20.3609 97.2771 20.0285 96.9513 19.8092C96.6255 19.5899 95.9926 19.3211 95.0518 19.0028L94.118 18.6828C93.7571 18.5548 93.4512 18.4345 93.2003 18.3219C92.9366 18.2005 92.6838 18.0564 92.4451 17.8911C92.2115 17.7373 92.0035 17.5475 91.8294 17.3286C91.6637 17.1075 91.5363 16.8599 91.4525 16.5964C91.3526 16.2826 91.3046 15.9548 91.3091 15.6256C91.3001 15.1476 91.4115 14.675 91.6329 14.2515C91.8384 13.8631 92.1443 13.5371 92.5187 13.3075C92.9046 13.0733 93.3225 12.8981 93.7603 12.7878C94.239 12.6678 94.7312 12.6089 95.2246 12.6125C96.367 12.6125 97.3667 12.8119 98.2223 13.2109C98.3983 13.2946 98.5353 13.4419 98.607 13.6231C98.678 13.8043 98.678 14.0058 98.6063 14.1868C98.5692 14.2823 98.5142 14.3694 98.4431 14.4433C98.3721 14.5172 98.2876 14.5762 98.1935 14.6169C98.1001 14.6577 97.999 14.6795 97.8966 14.6809C97.7942 14.6823 97.6924 14.6634 97.5977 14.6252C96.9142 14.3441 96.1827 14.1974 95.4435 14.1932C94.7433 14.1932 94.2025 14.3136 93.8204 14.5542C93.4384 14.7948 93.2464 15.1345 93.2444 15.5731C93.2444 15.9694 93.3596 16.2613 93.5894 16.4486C93.8192 16.6359 94.2774 16.8535 94.9635 17.1014C95.5785 17.3066 95.9427 17.4303 96.0559 17.4726C96.502 17.6283 96.8591 17.7627 97.1273 17.8758C97.4262 18.0037 97.7148 18.1535 97.9919 18.3238C98.2607 18.4784 98.5007 18.6775 98.703 18.9126C98.8834 19.1434 99.023 19.4031 99.117 19.6806C99.2316 20.017 99.2866 20.3705 99.2815 20.7257C99.2815 21.306 99.1721 21.8135 98.9526 22.2482C98.7522 22.6617 98.4444 23.0137 98.0611 23.2671C97.6854 23.5117 97.2732 23.696 96.8406 23.8137C96.383 23.938 95.9113 24.0006 95.4371 23.9999Z" fill="black"/>
<path d="M105.811 23.9996C104.872 23.9996 104.043 23.8582 103.323 23.5753C102.938 23.4272 102.564 23.2518 102.204 23.0505C102.046 22.9594 101.924 22.8148 101.862 22.6427C101.8 22.4705 101.801 22.2818 101.865 22.1103V22.1052C101.903 22.0031 101.962 21.9102 102.039 21.8326C102.115 21.7549 102.207 21.6943 102.309 21.6547C102.41 21.6152 102.519 21.5975 102.627 21.6029C102.736 21.6083 102.842 21.6366 102.94 21.686C103.198 21.8166 103.464 21.9338 103.735 22.0367C104.345 22.2744 104.994 22.3968 105.649 22.3977C107.093 22.3977 107.814 21.8671 107.814 20.806C107.814 20.3606 107.651 20.0282 107.326 19.8089C107 19.5896 106.367 19.3208 105.426 19.0025L104.492 18.6825C104.131 18.5545 103.825 18.4342 103.575 18.3216C103.31 18.2008 103.056 18.0571 102.816 17.8921C102.583 17.7383 102.375 17.5484 102.201 17.3296C102.035 17.1084 101.907 16.8609 101.824 16.5974C101.724 16.2836 101.676 15.9557 101.68 15.6265C101.671 15.1486 101.783 14.676 102.004 14.2525C102.209 13.8641 102.515 13.538 102.89 13.3085C103.276 13.0742 103.694 12.8991 104.131 12.7888C104.61 12.6688 105.102 12.6099 105.596 12.6134C106.738 12.6134 107.738 12.8129 108.593 13.2118C108.769 13.2955 108.906 13.4429 108.978 13.6241C109.049 13.8052 109.049 14.0068 108.977 14.1878C108.94 14.2832 108.885 14.3704 108.814 14.4443C108.743 14.5181 108.659 14.5771 108.565 14.6179C108.471 14.6587 108.37 14.6804 108.268 14.6818C108.165 14.6833 108.064 14.6644 107.969 14.6262C107.285 14.3451 106.554 14.1984 105.815 14.1942C105.114 14.1942 104.574 14.3145 104.192 14.5552C103.809 14.7958 103.617 15.1355 103.616 15.5741C103.616 15.9704 103.731 16.2622 103.96 16.4496C104.19 16.6369 104.648 16.8545 105.335 17.1024C105.95 17.3076 106.314 17.4313 106.427 17.4736C106.873 17.6293 107.23 17.7637 107.498 17.8768C107.797 18.0047 108.086 18.1545 108.363 18.3248C108.632 18.4794 108.872 18.6785 109.074 18.9136C109.255 19.1444 109.394 19.404 109.488 19.6815C109.603 20.0179 109.658 20.3715 109.653 20.7267C109.653 21.3069 109.543 21.8145 109.324 22.2492C109.123 22.6627 108.816 23.0146 108.432 23.2681C108.056 23.5126 107.644 23.697 107.212 23.8146C106.755 23.9382 106.284 24.0004 105.811 23.9996Z" fill="black"/>
<path d="M117.421 24C115.688 24 114.312 23.4854 113.293 22.4563C112.275 21.4272 111.766 20.0603 111.766 18.3558C111.766 16.6795 112.257 15.302 113.238 14.2234C114.219 13.1448 115.515 12.6055 117.126 12.6055C118.144 12.6055 119.016 12.8425 119.741 13.3165C120.461 13.7836 121.023 14.4564 121.354 15.2474C121.704 16.061 121.879 17.0052 121.879 18.08V18.0832C121.878 18.2207 121.823 18.3522 121.725 18.4489C121.627 18.5455 121.495 18.5995 121.358 18.599H113.782C113.803 19.8159 114.153 20.7545 114.832 21.415C115.511 22.0755 116.409 22.4062 117.527 22.407C118.48 22.4178 119.419 22.1749 120.248 21.703C120.343 21.6486 120.448 21.6151 120.557 21.6047C120.666 21.5943 120.775 21.6073 120.879 21.6427C120.983 21.6782 121.078 21.7353 121.157 21.8102C121.236 21.8852 121.299 21.9763 121.341 22.0774C121.408 22.2452 121.414 22.4313 121.357 22.603C121.301 22.7748 121.186 22.9211 121.032 23.0163C119.984 23.6721 118.781 24 117.421 24ZM113.837 17.2627H120.086C120.015 16.2652 119.725 15.4972 119.216 14.9587C118.708 14.4203 118.029 14.1515 117.179 14.1523C116.288 14.1523 115.544 14.4282 114.946 14.9799C114.348 15.5315 113.977 16.2923 113.835 17.2621L113.837 17.2627Z" fill="black"/>
<path d="M124.668 22.5725C124.668 22.256 124.793 21.9523 125.017 21.7285C125.241 21.5047 125.545 21.3789 125.862 21.3789H125.968C126.285 21.3789 126.588 21.5047 126.812 21.7285C127.036 21.9523 127.161 22.256 127.161 22.5725C127.161 22.889 127.036 23.1927 126.812 23.4165C126.588 23.6403 126.285 23.7661 125.968 23.7661H125.862C125.545 23.7661 125.241 23.6403 125.017 23.4165C124.793 23.1927 124.668 22.889 124.668 22.5725Z" fill="black"/>
<path d="M135.447 23.9997C133.763 23.9997 132.418 23.4744 131.41 22.424C130.402 21.3736 129.898 20.0278 129.898 18.3869C129.898 16.6679 130.41 15.2744 131.434 14.2064C132.458 13.1385 133.809 12.6052 135.488 12.6064C136.725 12.6064 137.749 12.8921 138.56 13.4634C138.711 13.5693 138.819 13.7271 138.863 13.9072C138.907 14.0872 138.883 14.277 138.796 14.4407C138.749 14.5297 138.684 14.6084 138.606 14.672C138.528 14.7356 138.437 14.7828 138.341 14.811C138.244 14.8391 138.142 14.8475 138.042 14.8356C137.942 14.8238 137.845 14.792 137.758 14.7421C137.136 14.3867 136.426 14.209 135.625 14.209C134.516 14.209 133.62 14.5717 132.937 15.297C132.254 16.0223 131.913 17.0497 131.913 18.3792C131.913 19.6101 132.244 20.5898 132.905 21.3181C133.566 22.0464 134.462 22.4107 135.593 22.4112C136.39 22.4169 137.175 22.2208 137.875 21.8409C137.967 21.7922 138.068 21.7631 138.172 21.7553C138.275 21.7475 138.38 21.7613 138.478 21.7957C138.576 21.8301 138.666 21.8845 138.741 21.9554C138.817 22.0264 138.878 22.1122 138.919 22.2077L138.929 22.2313C139.003 22.4011 139.011 22.5919 138.954 22.7678C138.897 22.9437 138.777 23.0925 138.618 23.1862C137.706 23.7285 136.65 23.9997 135.447 23.9997Z" fill="black"/>
<path d="M146.811 24.0003C145.049 24.0003 143.672 23.4767 142.678 22.4297C141.684 21.3827 141.188 20.0174 141.188 18.3337C141.188 16.6219 141.688 15.2392 142.689 14.1853C143.69 13.1314 145.071 12.6045 146.832 12.6045C148.587 12.6045 149.952 13.1297 150.928 14.1802C151.905 15.2306 152.393 16.6152 152.393 18.3337C152.393 20.0174 151.897 21.3827 150.907 22.4297C149.917 23.4767 148.551 24.0003 146.811 24.0003ZM146.811 22.4086C147.957 22.4086 148.831 22.0372 149.434 21.2944C150.038 20.5515 150.34 19.5649 150.341 18.3344C150.341 17.0825 150.035 16.0799 149.424 15.3264C148.812 14.5729 147.937 14.1962 146.8 14.1962C145.653 14.1962 144.773 14.5729 144.158 15.3264C143.543 16.0799 143.235 17.0825 143.235 18.3344C143.235 19.5653 143.541 20.552 144.153 21.2944C144.764 22.0367 145.65 22.4081 146.811 22.4086Z" fill="black"/>
<path d="M156.299 23.7668C156.044 23.7668 155.8 23.6657 155.62 23.4857C155.44 23.3056 155.339 23.0614 155.339 22.8068V15.724C155.339 15.4449 155.317 14.8325 155.275 13.8866C155.268 13.7566 155.289 13.6268 155.334 13.505C155.38 13.3832 155.449 13.2718 155.539 13.1778C155.628 13.0837 155.737 13.0088 155.856 12.9577C155.976 12.9066 156.105 12.8804 156.235 12.8805H156.304C156.557 12.8805 156.8 12.98 156.979 13.1576C157.159 13.3351 157.261 13.5764 157.264 13.829L157.274 14.6418C157.563 14.006 158.051 13.4811 158.664 13.1461C159.301 12.7851 160.022 12.5983 160.754 12.6046C161.532 12.6046 162.213 12.8099 162.796 13.2203C163.379 13.6308 163.803 14.2108 164.064 14.9605C164.437 14.2514 164.992 13.6548 165.672 13.2325C166.359 12.8118 167.152 12.5947 167.959 12.6066C169.196 12.6066 170.135 13.001 170.775 13.7899C171.415 14.5788 171.735 15.6841 171.735 17.1057V22.8068C171.735 23.0614 171.634 23.3056 171.454 23.4857C171.273 23.6657 171.029 23.7668 170.775 23.7668H170.743C170.488 23.7668 170.244 23.6657 170.064 23.4857C169.884 23.3056 169.783 23.0614 169.783 22.8068V17.2625C169.783 16.3008 169.62 15.5493 169.295 15.0078C168.97 14.4664 168.467 14.1959 167.788 14.1963C166.919 14.1963 166.171 14.5129 165.545 15.1461C164.919 15.7792 164.583 16.559 164.538 17.4853V22.8068C164.538 23.0614 164.437 23.3056 164.257 23.4857C164.076 23.6657 163.833 23.7668 163.578 23.7668H163.546C163.291 23.7668 163.047 23.6657 162.867 23.4857C162.687 23.3056 162.586 23.0614 162.586 22.8068V17.0929C162.586 16.223 162.415 15.5228 162.074 14.9925C161.733 14.4621 161.191 14.197 160.45 14.197C159.595 14.197 158.869 14.4835 158.274 15.0565C157.694 15.5989 157.345 16.3432 157.298 17.1358V22.8068C157.298 23.0614 157.197 23.3056 157.017 23.4857C156.837 23.6657 156.593 23.7668 156.338 23.7668H156.299Z" fill="black"/>
</g>
<defs>
<clipPath id="clip0_1589_1134">
<rect width="171.633" height="32" fill="white" transform="translate(0.105469)"/>
</clipPath>
</defs>
</svg>
