<svg width="33" height="32" viewBox="0 0 33 32" fill="none" xmlns="http://www.w3.org/2000/svg">
<path d="M26.7843 19.4996C26.7843 19.1241 26.9335 18.7641 27.1989 18.4986C27.4645 18.2331 27.8245 18.0839 28.2 18.0839C28.6391 18.0839 29.0603 17.9096 29.3709 17.5993C29.6817 17.289 29.8564 16.868 29.8569 16.4289V13.938C29.8569 13.4985 29.6823 13.077 29.3715 12.7661C29.0607 12.4554 28.6392 12.2808 28.1997 12.2808C27.7601 12.2808 27.3386 12.4554 27.0278 12.7661C26.717 13.077 26.5424 13.4985 26.5424 13.938C26.5464 14.1265 26.5127 14.3139 26.4434 14.4892C26.374 14.6645 26.2704 14.8242 26.1384 14.9589C26.0066 15.0936 25.8491 15.2007 25.6753 15.2738C25.5015 15.3468 25.3149 15.3844 25.1264 15.3844C24.9379 15.3844 24.7513 15.3468 24.5774 15.2738C24.4037 15.2007 24.2462 15.0936 24.1143 14.9589C23.9824 14.8242 23.8788 14.6645 23.8094 14.4892C23.7401 14.3139 23.7064 14.1265 23.7104 13.938C23.7106 12.7476 24.1836 11.606 25.0254 10.7643C25.8672 9.92258 27.0089 9.44975 28.1994 9.44975C28.2262 9.44975 28.2525 9.45295 28.2794 9.45423C28.159 9.45423 27.4992 8.23824 27.3834 8.0808C27.0081 7.57533 26.5973 7.09732 26.1539 6.65041C25.3834 5.87576 24.5182 5.20158 23.5786 4.64402C18.4324 1.58868 11.7233 2.4098 7.48526 6.64081C6.50933 7.61846 5.69225 8.74262 5.06352 9.97262C5.85602 9.79931 6.67733 9.8059 7.46696 9.99201C8.25658 10.1781 8.99437 10.539 9.62611 11.048C10.2578 11.557 10.7673 12.2012 11.117 12.9332C11.4668 13.6651 11.648 14.4663 11.6472 15.2775V18.5319C11.6468 18.873 11.7137 19.2109 11.8441 19.5262C11.9744 19.8414 12.1656 20.1278 12.4068 20.3691C12.6479 20.6104 12.9343 20.8017 13.2494 20.9322C13.5646 21.0627 13.9024 21.1299 14.2436 21.1297C14.6192 21.1297 14.9793 21.2789 15.2448 21.5444C15.5104 21.8099 15.6596 22.1701 15.6596 22.5457C15.6596 22.9212 15.5104 23.2814 15.2448 23.5469C14.9793 23.8125 14.6192 23.9617 14.2436 23.9617C13.5307 23.9618 12.8248 23.8215 12.1662 23.5487C11.5076 23.276 10.9092 22.8762 10.4052 22.372C9.90118 21.8678 9.50144 21.2694 9.22886 20.6107C8.95623 19.952 8.81607 19.2461 8.81645 18.5332V15.2795C8.81715 14.6388 8.58106 14.0205 8.15354 13.5434C7.72603 13.0662 7.13717 12.764 6.50031 12.6947C5.86338 12.6253 5.22339 12.7939 4.7032 13.1679C4.18301 13.5419 3.81949 14.095 3.6824 14.7208C3.644 15.1342 3.61841 15.5527 3.61841 15.9745C3.61853 17.7074 3.9601 19.4233 4.62345 21.0242C5.28687 22.6251 6.25909 24.0796 7.48468 25.3047C8.71028 26.5298 10.1652 27.5015 11.7663 28.1642C13.3675 28.827 15.0835 29.1679 16.8164 29.1674C17.192 29.1674 17.5523 29.3166 17.8179 29.5822C18.0835 29.8478 18.2327 30.2081 18.2327 30.5837C18.2327 30.9593 18.0835 31.3196 17.8179 31.5852C17.5523 31.8508 17.192 32 16.8164 32C9.5582 32 2.97329 26.7821 1.25362 19.7396C-0.0615702 14.3534 1.58962 8.49743 5.52815 4.59218C11.2427 -1.0737 20.6052 -1.56074 26.8663 3.48819L26.9558 3.56115C29.615 5.71857 31.6157 8.91791 32.4041 12.2523C32.8707 14.2241 32.8816 16.3483 32.248 18.2874C31.7213 19.8983 29.8371 20.9159 28.1981 20.9166C27.8229 20.9153 27.4636 20.7656 27.1985 20.5C26.9336 20.2344 26.7846 19.8748 26.7843 19.4996ZM16.6551 15.5483C16.6544 15.8412 16.5668 16.1273 16.4035 16.3706C16.2403 16.6138 16.0085 16.8032 15.7377 16.9148C15.4669 17.0265 15.169 17.0553 14.8818 16.9978C14.5946 16.9403 14.3308 16.7989 14.1239 16.5916C13.9169 16.3843 13.776 16.1203 13.719 15.833C13.662 15.5456 13.6914 15.2479 13.8035 14.9772C13.9156 14.7065 14.1054 14.4752 14.3488 14.3124C14.5923 14.1495 14.8786 14.0625 15.1716 14.0622C15.3666 14.0624 15.5596 14.1009 15.7397 14.1757C15.9198 14.2505 16.0833 14.36 16.2211 14.498C16.3589 14.636 16.4681 14.7997 16.5425 14.98C16.617 15.1602 16.6552 15.3533 16.6551 15.5483ZM7.61646 15.5483C7.61569 15.8413 7.52808 16.1275 7.36475 16.3707C7.20142 16.6139 6.96968 16.8033 6.69877 16.9149C6.42786 17.0265 6.12994 17.0553 5.84271 16.9977C5.55542 16.9401 5.29167 16.7986 5.08476 16.5911C4.87785 16.3837 4.73705 16.1196 4.68016 15.8322C4.62333 15.5447 4.65289 15.247 4.76515 14.9763C4.87747 14.7057 5.06748 14.4744 5.31113 14.3117C5.55478 14.149 5.84124 14.0622 6.13423 14.0622C6.32917 14.0623 6.52219 14.1008 6.70222 14.1755C6.88226 14.2503 7.04577 14.3599 7.1835 14.4979C7.32117 14.6359 7.43022 14.7997 7.50452 14.98C7.57883 15.1602 7.61684 15.3533 7.61646 15.5483Z" fill="black"/>
<path d="M20.8457 25.3713C21.8106 24.8596 22.708 24.2297 23.5171 23.4961C23.7964 23.2521 24.1603 23.1274 24.5305 23.1489C24.9008 23.1704 25.2478 23.3363 25.497 23.611C25.7462 23.8857 25.8777 24.2472 25.8631 24.6178C25.8486 24.9884 25.6892 25.3385 25.4191 25.5927C24.4353 26.4857 23.344 27.2526 22.1705 27.8756C22.006 27.9651 21.8255 28.0211 21.6392 28.0403C21.453 28.0595 21.2647 28.0417 21.0855 27.9877C20.9062 27.9337 20.7394 27.8446 20.5947 27.7257C20.4501 27.6068 20.3305 27.4604 20.2429 27.2949C20.1552 27.1294 20.1012 26.9483 20.0841 26.7618C20.0669 26.5753 20.087 26.3874 20.143 26.2087C20.199 26.03 20.2898 25.8642 20.4104 25.7209C20.5309 25.5776 20.6787 25.4597 20.8451 25.3739L20.8457 25.3713Z" fill="black"/>
</svg>
