<svg width="123" height="48" viewBox="0 0 123 48" fill="none" xmlns="http://www.w3.org/2000/svg">
<path d="M46.4198 33.5687C46.4639 33.5687 46.5009 33.6043 46.5009 33.6498V34.1991C46.5009 36.7804 45.3226 37.8875 43.477 37.8875C41.6314 37.8875 40.4062 36.7804 40.4062 34.1991V33.2116C40.4062 30.5705 41.6442 29.4648 43.477 29.4648C45.112 29.4648 46.1636 30.3585 46.4497 32.0219C46.4582 32.0717 46.4198 32.1173 46.37 32.1173H45.196C45.159 32.1173 45.1263 32.0902 45.1177 32.0547C44.9057 31.144 44.3849 30.6658 43.477 30.6658C42.3813 30.6658 41.7865 31.3802 41.7865 33.1518V34.1991C41.7865 35.9721 42.3813 36.685 43.477 36.685C44.5727 36.685 45.0423 36.0732 45.1419 34.7925C45.1419 34.7811 45.1334 34.7697 45.122 34.7697H43.5937C43.5496 34.7697 43.5126 34.7341 43.5126 34.6886V33.6484C43.5126 33.6043 43.5482 33.5673 43.5937 33.5673H46.4198V33.5687Z" fill="black"/>
<path d="M50.6483 33.2604C51.8122 33.2604 52.3814 32.9516 52.3814 32.0267C52.3814 31.1018 51.8122 30.7816 50.6483 30.7816H49.3505C49.3391 30.7816 49.3306 30.7901 49.3306 30.8015V33.2405C49.3306 33.2519 49.3391 33.2604 49.3505 33.2604H50.6483ZM52.4782 37.7229L50.9272 34.4586C50.9272 34.4586 50.9172 34.4472 50.9087 34.4472H49.3505C49.3391 34.4472 49.3306 34.4557 49.3306 34.4671V37.6873C49.3306 37.7314 49.295 37.7684 49.2495 37.7684H48.0342C47.9901 37.7684 47.9531 37.7329 47.9531 37.6873V29.6631C47.9531 29.619 47.9887 29.582 48.0342 29.582H50.7436C52.6305 29.582 53.7589 30.4002 53.7589 32.0253C53.7589 33.1438 53.2324 33.8652 52.2961 34.2124C52.2847 34.2167 52.279 34.2295 52.2847 34.2394L53.9624 37.6503C53.9894 37.7044 53.9496 37.767 53.8898 37.767H52.5508C52.5195 37.767 52.491 37.7485 52.4782 37.7215" fill="black"/>
<path d="M57.2445 34.8855H59.3733C59.3875 34.8855 59.3961 34.8727 59.3918 34.8584L58.3274 31.6325C58.3217 31.614 58.2947 31.614 58.289 31.6325L57.2246 34.8584C57.2203 34.8713 57.2303 34.8855 57.2431 34.8855M54.8425 37.6603L57.6358 29.6361C57.6472 29.6034 57.6771 29.582 57.7127 29.582H58.9037C58.9379 29.582 58.9692 29.6034 58.9805 29.6361L61.7739 37.6603C61.7924 37.7129 61.7525 37.767 61.697 37.767H60.4092C60.3751 37.767 60.3438 37.7443 60.3324 37.7115L59.7973 36.0851C59.7945 36.0765 59.7874 36.0708 59.7788 36.0708H56.8518C56.8432 36.0708 56.8347 36.0765 56.8333 36.0851L56.2982 37.7115C56.2868 37.7443 56.257 37.767 56.2214 37.767H54.9208C54.8653 37.767 54.8269 37.7129 54.8439 37.6603" fill="black"/>
<path d="M68.5289 29.6641V37.6883C68.5289 37.7324 68.4933 37.7694 68.4478 37.7694H67.3521C67.3237 37.7694 67.298 37.7552 67.2824 37.7296L64.0081 32.2682C63.9981 32.2511 63.9711 32.2582 63.9711 32.2781V37.6883C63.9711 37.7324 63.9355 37.7694 63.89 37.7694H62.7217C62.6776 37.7694 62.6406 37.7338 62.6406 37.6883V29.6641C62.6406 29.62 62.6762 29.583 62.7217 29.583H63.7819C63.8103 29.583 63.8359 29.5972 63.8516 29.6229L67.1614 35.1554C67.1714 35.1725 67.1984 35.1654 67.1984 35.1454V29.6641C67.1984 29.62 67.234 29.583 67.2795 29.583H68.4478C68.4919 29.583 68.5289 29.6186 68.5289 29.6641Z" fill="black"/>
<path d="M74.482 34.1626V33.1893C74.482 31.5045 73.9598 30.7816 72.7844 30.7816H71.4155C71.4041 30.7816 71.3956 30.7901 71.3956 30.8015V36.5618C71.3956 36.5731 71.4041 36.5817 71.4155 36.5817H72.7844C73.9598 36.5817 74.482 35.846 74.482 34.1612M70.0195 37.6873V29.6631C70.0195 29.619 70.0551 29.582 70.1006 29.582H72.7858C74.6257 29.582 75.8594 30.5667 75.8594 33.1879V34.1612C75.8594 36.7823 74.6243 37.767 72.7858 37.767H70.1006C70.0565 37.767 70.0195 37.7314 70.0195 37.6859" fill="black"/>
<path d="M80.8359 23.3955V43.9675H118.958V23.3955H80.8359ZM92.2013 37.6936C92.2013 37.7377 92.1657 37.7747 92.1202 37.7747H87.1099C87.0658 37.7747 87.0288 37.7392 87.0288 37.6936V29.6694C87.0288 29.6253 87.0643 29.5883 87.1099 29.5883H88.917C88.9612 29.5883 88.9982 29.6239 88.9982 29.6694V36.117C88.9982 36.1283 89.0067 36.1369 89.0181 36.1369H92.1202C92.1643 36.1369 92.2013 36.1725 92.2013 36.218V37.6936ZM98.2618 29.7064L95.7744 34.4948C95.7744 34.4948 95.7715 34.5005 95.7715 34.5047V37.6936C95.7715 37.7377 95.736 37.7747 95.6904 37.7747H93.8818C93.8377 37.7747 93.8007 37.7392 93.8007 37.6936V34.5047C93.8007 34.5047 93.8007 34.4976 93.7979 34.4948L91.3105 29.7064C91.282 29.6524 91.3219 29.5883 91.3816 29.5883H93.462C93.4934 29.5883 93.5232 29.6068 93.536 29.6353L94.7655 32.3589C94.7726 32.3745 94.7954 32.3745 94.8025 32.3589L96.0319 29.6353C96.0448 29.6068 96.0732 29.5883 96.1059 29.5883H98.1863C98.2475 29.5883 98.286 29.6524 98.2575 29.7064H98.2618ZM105.095 34.3212C105.095 36.7644 103.73 37.8914 101.868 37.8914C100.005 37.8914 98.6403 36.7644 98.6403 34.3212V33.0405C98.6403 30.573 100.005 29.4702 101.868 29.4702C103.73 29.4702 105.095 30.573 105.095 33.0405V34.3212ZM112.765 37.6922C112.765 37.7363 112.729 37.7733 112.684 37.7733H111.218C111.191 37.7733 111.165 37.7605 111.151 37.7377L108.198 33.298C108.187 33.281 108.161 33.2895 108.161 33.3094V37.6936C108.161 37.7377 108.126 37.7747 108.08 37.7747H106.391C106.347 37.7747 106.31 37.7392 106.31 37.6936V29.6694C106.31 29.6253 106.346 29.5883 106.391 29.5883H107.833C107.86 29.5883 107.885 29.6025 107.9 29.6239L110.875 34.1234C110.886 34.1404 110.912 34.1319 110.912 34.112V29.668C110.912 29.6239 110.948 29.5869 110.993 29.5869H112.682C112.726 29.5869 112.763 29.6225 112.763 29.668V37.6922H112.765Z" fill="black"/>
<path d="M101.871 31.1064C101.053 31.1064 100.613 31.6998 100.613 33.0403V34.321C100.613 35.6614 101.052 36.2548 101.871 36.2548C102.691 36.2548 103.129 35.6614 103.129 34.321V33.0403C103.129 31.6998 102.691 31.1064 101.871 31.1064Z" fill="black"/>
<path d="M44.797 11.7451C43.9788 11.7451 43.5391 12.3385 43.5391 13.6789V14.9596C43.5391 16.3001 43.9773 16.8935 44.797 16.8935C45.6166 16.8935 46.0549 16.3001 46.0549 14.9596V13.6789C46.0549 12.3385 45.6166 11.7451 44.797 11.7451Z" fill="black"/>
<path d="M59.7931 11.7451C58.9749 11.7451 58.5352 12.3385 58.5352 13.6789V14.9596C58.5352 16.3001 58.9734 16.8935 59.7931 16.8935C60.6127 16.8935 61.051 16.3001 61.051 14.9596V13.6789C61.051 12.3385 60.6127 11.7451 59.7931 11.7451Z" fill="black"/>
<path d="M37.0538 11.8637H36.1957C36.1843 11.8637 36.1758 11.8723 36.1758 11.8836V13.6581C36.1758 13.6695 36.1843 13.678 36.1957 13.678H37.0538C37.8492 13.678 38.4184 13.5713 38.4184 12.8C38.4184 12.0288 37.8492 11.8623 37.0538 11.8623V11.8637Z" fill="black"/>
<path d="M51.9655 11.8633H51.227C51.2156 11.8633 51.207 11.8718 51.207 11.8832V13.9906C51.207 14.002 51.2156 14.0106 51.227 14.0106H51.9655C52.9971 14.0106 53.4482 13.7018 53.4482 12.8836C53.4482 12.219 52.9971 11.8633 51.9655 11.8633Z" fill="black"/>
<path d="M4.76953 4.03418V24.6048H82.0502V4.03418H4.76953ZM19.052 18.3323C19.052 18.3764 19.0164 18.4134 18.9709 18.4134H17.2818C17.2377 18.4134 17.2007 18.3778 17.2007 18.3323V13.8698C17.2007 13.8485 17.1722 13.8414 17.1623 13.8613L15.5387 17.0175C15.5244 17.0445 15.4974 17.0616 15.4675 17.0616H14.5098C14.48 17.0616 14.4515 17.0445 14.4373 17.0175L12.8492 13.8983C12.8393 13.8798 12.8108 13.8869 12.8108 13.9068V18.3337C12.8108 18.3778 12.7752 18.4148 12.7297 18.4148H11.0406C10.9965 18.4148 10.9595 18.3793 10.9595 18.3337V10.3095C10.9595 10.2654 10.9951 10.2284 11.0406 10.2284H12.7382C12.7681 10.2284 12.7951 10.2455 12.8094 10.2711L14.9865 14.3465C14.9937 14.3608 15.015 14.3608 15.0221 14.3465L17.1879 10.2711C17.2021 10.2441 17.2292 10.2284 17.259 10.2284H18.968C19.0122 10.2284 19.0491 10.264 19.0491 10.3095V18.3337L19.052 18.3323ZM25.4711 11.7837C25.4711 11.8278 25.4341 11.8648 25.3899 11.8648H22.2893C22.2779 11.8648 22.2694 11.8734 22.2694 11.8848V13.3391C22.2694 13.3504 22.2779 13.359 22.2893 13.359H25.0356C25.0797 13.359 25.1153 13.3945 25.1153 13.4387V14.9157C25.1153 14.9598 25.0783 14.9968 25.0342 14.9968H22.2893C22.2779 14.9968 22.2694 15.0054 22.2694 15.0167V16.7556C22.2694 16.767 22.2779 16.7756 22.2893 16.7756H25.3914C25.4355 16.7756 25.4711 16.8111 25.4711 16.8552V18.3323C25.4711 18.3764 25.4341 18.4134 25.3899 18.4134H20.3796C20.3355 18.4134 20.2999 18.3778 20.2999 18.3337V10.3081C20.2999 10.264 20.3369 10.227 20.3811 10.227H21.4426C21.4426 10.227 21.4568 10.2227 21.4597 10.217L22.2281 8.92354C22.2437 8.90077 22.2694 8.88654 22.2978 8.88654H24.2928C24.3611 8.88654 24.3981 8.96481 24.3569 9.01746L23.4988 10.1943C23.4888 10.2071 23.4988 10.227 23.5145 10.227H25.3899C25.4341 10.227 25.4696 10.2626 25.4696 10.3067V11.7837H25.4711ZM32.9545 11.7837C32.9545 11.8278 32.9189 11.8648 32.8734 11.8648H30.8385C30.8272 11.8648 30.8186 11.8734 30.8186 11.8848V18.3323C30.8186 18.3764 30.783 18.4134 30.7375 18.4134H28.9303C28.8862 18.4134 28.8492 18.3778 28.8492 18.3323V11.8848C28.8492 11.8734 28.8407 11.8648 28.8293 11.8648H26.7944C26.7503 11.8648 26.7133 11.8293 26.7133 11.7837V10.3081C26.7133 10.264 26.7489 10.227 26.7944 10.227H32.8734C32.9175 10.227 32.9545 10.2626 32.9545 10.3081V11.7837ZM40.5917 18.412H38.6123C38.581 18.412 38.5511 18.3935 38.5383 18.3636L37.2007 15.327C37.1978 15.3198 37.1907 15.3156 37.1822 15.3156H36.1946C36.1833 15.3156 36.1747 15.3241 36.1747 15.3355V18.3309C36.1747 18.375 36.1392 18.412 36.0936 18.412H34.2864C34.2423 18.412 34.2053 18.3764 34.2053 18.3309V10.3067C34.2053 10.2626 34.2409 10.2256 34.2864 10.2256H37.2903C39.1772 10.2256 40.3867 11.0922 40.3867 12.7997C40.3867 13.8599 39.9186 14.5799 39.1004 14.9627C39.0904 14.9669 39.0861 14.9797 39.0904 14.9897L40.6642 18.2967C40.6898 18.3508 40.65 18.412 40.5917 18.412ZM48.0225 14.9598C48.0225 17.4031 46.6578 18.5301 44.7951 18.5301C42.9325 18.5301 41.5678 17.4031 41.5678 14.9598V13.6791C41.5678 11.2117 42.9325 10.1089 44.7951 10.1089C46.6578 10.1089 48.0225 11.2117 48.0225 13.6791V14.9598ZM52.3227 15.6471H51.2284C51.2171 15.6471 51.2085 15.6557 51.2085 15.667V18.3309C51.2085 18.375 51.1729 18.412 51.1274 18.412H49.3202C49.2761 18.412 49.2391 18.3764 49.2391 18.3309V10.3067C49.2391 10.2626 49.2747 10.2256 49.3202 10.2256H52.3241C54.211 10.2256 55.4205 11.0566 55.4205 12.8823C55.4205 14.708 54.2224 15.6457 52.3241 15.6457L52.3227 15.6471ZM63.0178 14.9598C63.0178 17.4031 61.6532 18.5301 59.7905 18.5301C57.9278 18.5301 56.5632 17.4031 56.5632 14.9598V13.6791C56.5632 11.2117 57.9278 10.1089 59.7905 10.1089C61.6532 10.1089 63.0178 11.2117 63.0178 13.6791V14.9598ZM69.4298 18.3309C69.4298 18.375 69.3942 18.412 69.3487 18.412H64.3384C64.2943 18.412 64.2573 18.3764 64.2573 18.3309V10.3067C64.2573 10.2626 64.2928 10.2256 64.3384 10.2256H66.1456C66.1897 10.2256 66.2267 10.2611 66.2267 10.3067V16.7542C66.2267 16.7656 66.2352 16.7741 66.2466 16.7741H69.3487C69.3928 16.7741 69.4298 16.8097 69.4298 16.8552V18.3309ZM75.8574 11.7823C75.8574 11.8264 75.8218 11.8634 75.7763 11.8634H72.6742C72.6628 11.8634 72.6543 11.872 72.6543 11.8833V13.3376C72.6543 13.349 72.6628 13.3576 72.6742 13.3576H75.4205C75.4647 13.3576 75.5017 13.3931 75.5017 13.4387V14.9143C75.5017 14.9584 75.4661 14.9954 75.4205 14.9954H72.6742C72.6628 14.9954 72.6543 15.0039 72.6543 15.0153V16.7542C72.6543 16.7656 72.6628 16.7741 72.6742 16.7741H75.7763C75.8204 16.7741 75.8574 16.8097 75.8574 16.8552V18.3309C75.8574 18.375 75.8218 18.412 75.7763 18.412H70.766C70.7219 18.412 70.6849 18.3764 70.6849 18.3309V10.3067C70.6849 10.2626 70.7204 10.2256 70.766 10.2256H75.7763C75.8204 10.2256 75.8574 10.2611 75.8574 10.3067V11.7823Z" fill="black"/>
</svg>
