<svg xmlns="http://www.w3.org/2000/svg" viewBox="4 1 446 425.2" width="64" height="64">
	<path fill="#666" d="M389.5 4.6H64.9C39.2 4.6 18 25.8 18 51.5v324.6c0 25.7 21.2 46.9 46.9 46.9h324.6c25.7 0 46.9-21.2 46.9-46.9V51.5c-.1-25.7-21.3-46.9-46.9-46.9zm-42.4 265.5c0 3.9-3.4 5.6-7.3 7.3-15.6 6.7-32.3 12.8-50.2 12.8-25.1 0-36.8-15.6-67-15.6-21.8 0-44.6 7.8-63 16.2-1.1.6-2.2.6-3.4 1.1v42.4c0 1.7 0 3.4-.6 4.5v1.1c-2.2 7.8-9.5 13.4-17.8 13.4-10.6 0-19-8.4-19-19V130.1c-7.3-5.6-12.2-14.5-12.2-24.6 0-17.3 13.9-31.3 31.3-31.3 17.3 0 31.3 13.9 31.3 31.3 0 10.1-4.5 19-12.2 24.6v17.3c1.7-.6 3.4-1.1 5-2.2 17.3-7.3 37.9-13.4 57.4-13.4 21.2 0 37.9 5.6 56.9 12.8 3.9 1.7 7.8 2.2 12.2 2.2 21.2 0 44.6-15 50.2-15 4.5 0 8.4 3.4 8.4 7.3v131z"/>
</svg>
