<svg width="64" height="64" version="1.1" viewBox="-5 -10 64 64" xmlns="http://www.w3.org/2000/svg">
	<path d="m41.9-4c-.0455-.000176-.091.00177-.136.00579-.0028.000254-.0049.00167-.0077.00196z" fill="#666"/>
	<path transform="matrix(.984 0 0 .982 44.2 -33.9)" d="m-2.38 30.5c-.0463-.000179-.0926.0018-.139.0059-.0028.000259-.005.0017-.0078.002zm-.17.0176c-.977.106-1.78.797-2.13 1.51-.355.717-.418 1.45-.289 2.16l-.0234-.268v40.2c-2.65-2.64-5.3-5.3-7.99-7.92-.0378-.0372-.0776-.0724-.119-.105-1.98-1.55-4.97.445-4.31 2.87.0066.0236.0138.047.0215.0703.545 1.67 1.82 2.25 2.11 2.62.0354.0438.0732.0855.113.125 3.72 3.67 7.4 7.4 11.2 11.1.0728.0711.153.135.238.189.335.214.719.408 1.3.455.58.0473 1.52-.266 1.95-.965l-.246.303c4.53-4.29 8.91-8.48 13.1-12.8.0493-.0501.095-.104.137-.16 1.51-2.04-.625-5.03-3.04-4.23-.0376.0122-.0748.0259-.111.041-1.5.633-2.09 1.77-2.52 2.12-.0359.0296-.0705.0609-.104.0938-2.07 2.06-4.15 4.12-6.22 6.18-.002-13.7.0089-27.3-.0078-41 1.49e-6-.0443-.00197-.0886-.0059-.133-.141-1.55-1.49-2.66-3.05-2.47zm-30.7.084c-.708.116-1.5.539-1.96 1.3l.227-.289c-4.1 4.1-8.27 8.16-12.4 12.3-.0485.0496-.0936.102-.135.158-1.51 2.04.625 5.03 3.04 4.23.0376-.0122.0748-.0259.111-.041 1.5-.633 2.09-1.77 2.52-2.12.0359-.0296.0705-.0609.104-.0938 2.07-2.06 4.15-4.12 6.22-6.18.002 13.7-.0089 27.3.0078 41-4.8e-5.0267.000619.0534.002.0801.139 2.55 3.74 3.47 5.06 1.27.0122-.0199.0239-.0401.0352-.0606.42-.776.441-1.55.426-2.11-.0152-.567-.0515-.991-.0273-1.21.0055-.0539.0081-.108.0078-.162v-38.8c2.65 2.64 5.3 5.3 7.99 7.92.0372.0365.0764.0711.117.104 1.98 1.55 4.97-.442 4.31-2.86-.0066-.0243-.0137-.0484-.0215-.0723-.545-1.67-1.82-2.25-2.11-2.62-.0354-.0438-.0732-.0855-.113-.125-3.71-3.67-7.4-7.4-11.2-11.1-.161-.0598-.33-.0915-.502-.0938l.188-.111c-.621-.347-1.29-.454-2-.338z" fill="#666" stop-color="#000000" stroke-linecap="round" stroke-linejoin="round"/>
</svg>
