<svg xmlns="http://www.w3.org/2000/svg" viewBox="0 0 64 64" width="64" height="64">
  <path fill="#1d83d4" d="M58.97 63.17c-1.43 0-2.69-.91-3.13-2.26l-1.6-4.87h-7.99l-1.48 4.82a3.317 3.317 0 0 1-3.16 2.3 3.2 3.2 0 0 1-1.02-.16c-1.72-.52-2.7-2.37-2.17-4.13l6.74-21.36c.44-1.36 1.73-2.31 3.14-2.31h3.59c1.42 0 2.71.93 3.13 2.27l7.09 21.35c.57 1.75-.37 3.62-2.09 4.18-.34.11-.69.17-1.05.17Z"/>
  <path fill="#666" d="M13.7 19.2c4.78-7.03 13.1-10.8 21.54-9.76 12.22 1.5 20.97 12.46 19.83 24.64h6.85c.05-.69.08-1.38.08-2.07.13-11.81-6.8-22.56-17.62-27.32C29.47-1.87 12.06 4.9 5.5 19.81l7.2-.1c.5 0 .7-.1 1-.5ZM35 54.53c-1.73.19-3.5.19-5.3-.03-6.8-.9-12.1-4.2-16-9.8-.2-.3-.4-.4-.8-.4H5.5a29.61 29.61 0 0 0 26.85 17.25c.89 0 1.78-.04 2.65-.12v-6.9Z"/>
  <path fill="#1d83d4" d="M16.2 27.7h12.1q.9 0 .9-.8v-4.4c0-.3.2-.8.4-1 .3-.3.7 0 1.1.2l12.8 9.4c.9.6.9 1.1 0 1.8l-12.8 9.4c-.3.2-.7.5-1.1.2l-.5-1V37c0-.6-.2-.7-.7-.7H3.7c-1-.1-1.7-.7-1.7-1.7v-5.2c0-1 .7-1.7 1.9-1.7h12.3Z"/>
</svg>
