<svg xmlns="http://www.w3.org/2000/svg" viewBox="0 0 64 64">
  <path fill="#fff" d="M11.2 9.4H24v12.8H11.2zM37.5 6h20.6v20.6H37.5z"/>
  <path fill="#666" d="M28.7 8.7c.6 2.4.6 7.3.6 7.3s0 5-.6 7.3c-.3 1.3-1.3 2.3-2.6 2.7-2.2.7-10.1.7-10.1.7s-7.9 0-10.1-.6c-1.3-.4-2.2-1.4-2.6-2.7-.6-2.4-.6-7.4-.6-7.4s0-5 .6-7.3C3.6 7.4 4.6 6.3 5.9 6 8.1 5.3 16 5.3 16 5.3s7.9 0 10.1.6c1.3.4 2.3 1.5 2.6 2.8zm-15.4 12l8-4.7-8-4.7v9.4z"/>
  <path fill="#fff" d="M9.9 38.8h15.6V60H9.9zM39.3 39.8h18.8V60H39.3z"/>
  <path fill="#fff" d="M38.2 6.2h6.1v6.1h-6.1zM21.1 38.3h4.3v4.3h-4.3z"/>
  <path fill="#666" d="M56.4 24.5h-3.6v-5.6c0-1.3 0-3-1.9-3s-2.1 1.4-2.1 2.9v5.7h-3.6V13h3.4v1.6c.5-.9 1.6-1.8 3.4-1.8 3.6 0 4.3 2.4 4.3 5.5l.1 6.2zM41.3 11.4c-1.1 0-2.1-.9-2.1-2.1 0-1.1.9-2.1 2.1-2.1 1.1 0 2.1.9 2.1 2.1s-.9 2.1-2.1 2.1zm1.8 13.1h-3.6V13h3.6v11.5zM58.2 4H37.8c-1 0-1.8.8-1.8 1.7v20.5c0 1 .8 1.7 1.8 1.7h20.5c1 0 1.8-.8 1.8-1.7V5.7C60 4.8 59.2 4 58.2 4z"/>
  <path fill="#666" d="M16 34.5c3.6 0 4.1 0 5.5.1 1.4.1 2.4.3 3.2.6.9.3 1.6.8 2.4 1.5.7.7 1.2 1.5 1.5 2.4.3.8.6 1.8.6 3.2.1 1.4.1 1.9.1 5.5s0 4.1-.1 5.5c-.1 1.4-.3 2.4-.6 3.2-.3.9-.9 1.7-1.5 2.4-.7.7-1.5 1.2-2.4 1.5-.8.3-1.8.6-3.2.6-1.4.1-1.9.1-5.5.1s-4.1 0-5.5-.1c-1.4-.1-2.4-.3-3.2-.6-.9-.3-1.7-.9-2.4-1.5-.7-.7-1.2-1.5-1.5-2.4-.3-.8-.6-1.8-.6-3.2-.1-1.4-.1-1.9-.1-5.5s0-4.1.1-5.5.2-2.3.6-3.2c.3-.9.9-1.7 1.5-2.4.7-.7 1.5-1.2 2.4-1.5.9-.3 1.8-.6 3.2-.6 1.4-.1 1.9-.1 5.5-.1zm0 6.7c-3.7 0-6.7 3-6.7 6.7s3 6.7 6.7 6.7 6.7-3 6.7-6.7-3-6.7-6.7-6.7zm8.7-.4c0-.9-.7-1.7-1.7-1.7-.9 0-1.7.7-1.7 1.7s.7 1.7 1.7 1.7c.9 0 1.7-.7 1.7-1.7zm-8.7 3c2.2 0 4 1.8 4 4s-1.8 4-4 4-4-1.8-4-4 1.8-4 4-4z"/>
  <path fill="#666" d="M52.5 60v-9.3h3.1l.5-3.6h-3.6v-2.3c0-1 .3-1.8 1.8-1.8h1.9v-3.2c-.9-.1-1.9-.1-2.8-.1-2.8 0-4.6 1.7-4.6 4.8v2.7h-3.1v3.6h3.1V60H37.3c-.7 0-1.3-.6-1.3-1.3V37.3c0-.7.6-1.3 1.3-1.3h21.3c.7 0 1.3.6 1.3 1.3v21.3c0 .7-.6 1.3-1.3 1.3h-6.1z" />
</svg>
