<svg xmlns="http://www.w3.org/2000/svg" viewBox="0 0 64 64" width="64" height="64">
  <path fill="#666" d="M32 8l28.9 48.9L3 57"/>
  <path fill="#fff" d="M32 17.3c10 0 18.3 7.5 20 17.3C50.2 44.5 41.9 52 32 52s-18.3-7.5-20-17.3c1.7-9.9 10-17.4 20-17.4z" />
  <path fill="#888" d="M31.6 20.9c8.4 0 15.4 6 16.8 14-1.5 8-8.5 14-16.8 14s-15.4-6-16.8-14c1.5-8 8.4-14 16.8-14zm0 24.9c6.5 0 12.2-4.5 13.6-10.9-1.7-7.5-9.3-12.3-16.8-10.5-5.2 1.2-9.3 5.3-10.5 10.5 1.5 6.3 7.2 10.9 13.7 10.9z" />
  <path fill="#314654" d="M31.6 26.9c4.4 0 8 3.6 8 8s-3.6 8-8 8-8-3.6-8-8c0-.8.1-1.6.4-2.4.9 2.1 3.3 2.9 5.3 2.1 1.4-.6 2.4-2.1 2.4-3.7s-.9-3-2.4-3.7c.7-.2 1.5-.3 2.3-.3z" />
</svg>
