<svg xmlns="http://www.w3.org/2000/svg" width="512" height="512" viewBox="0 0 512 512">
	<style type="text/css">
		.st0{fill:#FFD800;}
		.st1{fill:#F0A424;}
	</style>
	<path class="st0" d="M241.9,282.8v-83.4c-26.4,1.2-51.2,11.4-70.8,29.3l59,59C233.7,285.2,237.7,283.6,241.9,282.8z"/>
	<path class="st0" d="M222.9,328.7c-2.3-3.3-4-7.1-4.8-11.1h-83.5c1.3,26.2,11.6,50.7,29.3,70.1L222.9,328.7z"/>
	<path class="st0" d="M241.9,340.7c-4.2-0.7-8.2-2.4-11.8-4.9l-59,59c19.5,17.9,44.3,28.1,70.8,29.3V340.7z"/>
	<path class="st0" d="M134.6,307.4h83.3c0.7-4.5,2.4-8.7,5-12.4l-59-59C145.9,255.6,135.6,280.7,134.6,307.4z"/>
	<path class="st0" d="M252.1,282.8c4.2,0.7,8.2,2.4,11.8,4.9l59-59c-19.5-17.9-44.3-28.1-70.8-29.3V282.8z"/>
	<path class="st0" d="M330.1,235.9l-59,59c2.6,3.7,4.3,7.9,5,12.4h83.3C358.4,280.7,348.1,255.6,330.1,235.9z"/>
	<path class="st0" d="M257.2,447.3c28.5-1.3,55.3-12.3,76.3-31.6L257.2,337V447.3z"/>
	<path class="st0" d="M271.1,328.7l59,59c17.7-19.4,28-43.9,29.3-70.1h-83.5C275,321.6,273.4,325.3,271.1,328.7z"/>
	<path class="st1" d="M247,140.3c-94.7,0-171.5,76.8-171.5,171.5c0,93,74.1,168.7,166.4,171.4l-0.1-22.5
		c-37.8-1.3-73.4-16.8-100.2-43.6c-28.2-28.2-43.7-65.6-43.7-105.4s15.5-77.3,43.7-105.4c28.2-28.2,65.6-43.7,105.4-43.7
		c39.8,0,77.3,15.5,105.4,43.7c28.2,28.2,43.7,65.6,43.7,105.4c0,37.9-14.2,74-40.1,101.7l0,0c0,0,15.7,16,15.7,16
		c29-30.7,46.8-72.1,46.8-117.7C418.5,217.1,341.7,140.3,247,140.3z"/>
	<path class="st1" d="M361.1,443.6c-28.3,26.4-65.2,41.6-103.9,43l-0.1,24.4c46.8-1.4,89.2-20.1,121-50L361.1,443.6z"/>
	<path class="st0" d="M353.1,410.6c25.1-26.9,38.9-62,38.9-98.8c0-38.7-15.1-75.1-42.5-102.5c-27.4-27.4-63.8-42.5-102.5-42.5
		s-75.1,15.1-102.5,42.5c-27.4,27.4-42.5,63.8-42.5,102.5s15.1,75.1,42.5,102.5c26.1,26.1,60.7,41.1,97.4,42.4v-22.3
		c-30.9-1.3-59.7-13.9-81.7-35.8c-23.2-23.2-35.9-54-35.9-86.8s12.8-63.6,35.9-86.8c23.2-23.2,54-35.9,86.8-35.9
		c32.8,0,63.6,12.8,86.8,35.9s35.9,54,35.9,86.8c0,31.1-11.5,60.4-32.4,83.1L353.1,410.6z"/>
	<path class="st0" d="M358.4,440.6l-17.1-17.1c-23.1,21.3-52.6,33.6-84.1,34.8v24.2C294.9,481.2,330.8,466.3,358.4,440.6z"/>
	<path class="st0" d="M354.5,412.1"/>
	<path class="st0" d="M354.5,412.1"/>
	<path class="st0" d="M147.7,160.3c-0.1-6.4-0.1-13.1-0.1-20c0-57.6,46.9-104.5,104.5-104.5s104.5,46.9,104.5,104.5
		c0,9.5-0.1,18.5-0.3,27.1c13.4,10.2,25.4,22.2,35.5,35.6c1-18,1.5-38.7,1.5-62.7C393.4,62.2,330.1-1,252.1-1S110.8,62.2,110.8,140.3
		c0,18.9,0.3,35.9,0.9,51.1C122.3,179.5,134.4,169,147.7,160.3z"/>
</svg>