<svg xmlns="http://www.w3.org/2000/svg" viewBox="0 0 64 64" width="64" height="64">
  <path fill="#fff" transform="rotate(-30 25.77221633 16.39695398)" d="M19.5 6.1h12.6v20.6H19.5z"/>
  <ellipse fill="#fff" cx="16.3" cy="48.2" rx="9.1" ry="7.6"/>
  <path d="M29.8 51.7c.2-.9.3-1.8.3-2.7 0-1-.1-1.9-.3-2.8l21-12.1-2.7-4.6-20.5 11.8c-2.4-3.4-6.4-5.6-10.9-5.6-2.6 0-5.1.8-7.1 2.1-.6-1.5-.9-3.1-.9-4.7 0-6 4-11.1 9.5-12.8l4.9 8.5c.7 1.3 2.4 1.7 3.6 1l3.5-2 2.7 4.6 4.6-2.7-2.7-4.7 3.5-2c1.3-.7 1.7-2.4 1-3.6l-8.7-15c-1.5-2.6-4.7-3.4-7.3-2l-6.9 4c-2.6 1.5-3.4 4.7-2 7.3l1 1.8c-7 2.7-12 9.5-12 17.5 0 3.2.8 6.1 2.2 8.7-1.4 2.1-2.2 4.6-2.2 7.3 0 3 1 5.8 2.7 8h45.3-24c1.2-1.5 2-3.4 2.4-5.3zM26 7l7.3 12.7-6.9 4L19.1 11 26 7zm-1.7 44.7H9.2c-.3-.8-.5-1.7-.5-2.7 0-4.4 3.6-8 8-8s8 3.6 8 8c0 .9-.1 1.8-.4 2.7z" fill="#666"/>
  <path fill="#1d83d4" d="M39.7 51.2l17-16.2 4.6 4.8L40 61 27.3 48.3l4.9-4.9 7.5 7.8z" />
</svg>