<svg xmlns="http://www.w3.org/2000/svg" viewBox="0 0 64 64" width="64" height="64">
  <path fill="#1d83d4" d="M32 3.1l25 14.5v28.9L32 60.9 7 46.5v-29L32 3.1z" />
  <path fill="#fff" d="M21 17.3c3.1-1.1 6.5.5 7.6 3.6.5 1.3.5 2.7 0 4L47 43.4 43.4 47 25 28.6c-3.1 1.1-6.5-.5-7.6-3.6-.5-1.3-.5-2.7 0-4l3.8 3.8c1 1 2.6 1 3.6.1 1-1 1-2.6.1-3.6l-.1-.1-3.8-3.9zm17.6 3.3l5.4-3 2.4 2.4-3 5.4-3 .6-3.6 3.6-2.4-2.4 3.6-3.6.6-3zm-12 13.2l3.6 3.6-8.4 8.4c-1 1-2.6 1-3.6 0-.9-.9-1-2.4-.2-3.4l.2-.2 8.4-8.4z" />
</svg>
