<svg xmlns="http://www.w3.org/2000/svg" viewBox="0 0 64 64" width="64" height="64">
  <path fill="#666" d="M3.7 5.4c0-1.2 1-2.2 2.2-2.2h39.8c1.2 0 2.2 1 2.2 2.2v35.4c0 1.2-1 2.2-2.2 2.2H29.3l-8.7-8.6H3.7"/>
  <path fill="#fff" d="M11 8.7c0-.9.7-1.6 1.6-1.6h29.7c.9 0 1.6.7 1.6 1.6v26.4c0 .9-.7 1.6-1.6 1.6H30.2l-6.5-6.5-12.7.1"/>
  <path fill="#fff" d="M30.3 34h23v23h-23z"/>
  <path fill="#fff" d="M11 12.6h36.9V43H11z" />
  <path fill="#888" d="M17.9 26.3V17h30v-5.3l-16.9.1-8.7-8.7H5.9c-1.2 0-2.2.9-2.2 2.2v35.5c0 1.2.9 2.2 2.2 2.2h12V26.3z"/>
  <path fill="#1d83d4" d="M51.3 30.1h9.6V34h-3.8v24.9c0 1.1-.9 1.9-1.9 1.9H28.3c-1.1 0-1.9-.9-1.9-1.9V34h-3.8v-3.8h9.6v-5.8c0-1.1.9-1.9 1.9-1.9h15.3c1.1 0 1.9.9 1.9 1.9v5.7zm2 3.9h-23v23h23V34zM36 39.7h3.8v11.5H36V39.7zm7.7 0h3.8v11.5h-3.8V39.7zM36 26.3v3.8h11.5v-3.8H36z" />
</svg>