<svg xmlns="http://www.w3.org/2000/svg" viewBox="0 0 64 64" width="64" height="64">
  <path fill="#666" d="M49.4 51.1c0-6.1-4.9-11-10.9-11H25.4c-6 0-10.9 4.9-10.9 10.9V56.4c4.9 3.5 11 5.6 17.5 5.6s12.6-2.1 17.5-5.6l-.1-5.3z"/>
  <path fill="#1d83d4" d="M17 22.7c0-3.2 1-6.1 2.7-8.6-1.6-.7-3.4-1.1-5.2-1.1-7.2 0-13.1 6-13.1 13.3 0 7.2 5.9 13.1 13.1 13.1 3.7 0 7-1.6 9.4-4.1C19.8 32.6 17 28 17 22.7z" />
  <path fill="#666" d="M32 35.8c-7.2 0-13.1-5.9-13.1-13.1S24.8 9.5 32 9.5s13.1 5.9 13.1 13.1S39.2 35.8 32 35.8z"/>
</svg>
