<svg version="1.1" xmlns="http://www.w3.org/2000/svg" xmlns:xlink="http://www.w3.org/1999/xlink" x="0px" y="0px"
	 viewBox="0 0 64 64" style="enable-background:new 0 0 64 64;" xml:space="preserve">
<style type="text/css">
	.st0{fill:url(#XMLID_2_);}
	.st1{fill:#FFFFFF;}
</style>
<g id="Calque_1">
	<linearGradient id="XMLID_2_" gradientUnits="userSpaceOnUse" x1="32" y1="0.7902" x2="32" y2="62.4782">
		<stop  offset="0" style="stop-color:#0D7CFF"/>
		<stop  offset="1" style="stop-color:#57B8FF"/>
	</linearGradient>
	<rect id="XMLID_1439_" y="0" class="st0" width="64" height="64"/>
</g>
<g id="Capa_1">
	<path class="st1" d="M21.3,17.6c4.3,3.2,9,9.8,10.7,13.4c1.7-3.5,6.4-10.1,10.7-13.4c3.1-2.3,8.2-4.1,8.2,1.6c0,1.2-0.7,9.7-1,11
		c-1.3,4.8-6.2,6-10.6,5.3c7.6,1.3,9.6,5.6,5.4,9.9c-8,8.2-11.4-2-12.3-4.7c-0.2-0.5-0.2-0.7-0.2-0.5c0-0.2-0.1,0-0.2,0.5
		c-0.9,2.6-4.4,12.8-12.3,4.7c-4.2-4.3-2.2-8.6,5.4-9.9c-4.4,0.7-9.3-0.5-10.6-5.3c-0.4-1.4-1-9.9-1-11
		C13.2,13.5,18.2,15.3,21.3,17.6L21.3,17.6z"/>
</g>
</svg>
