<svg version="1.1"  xmlns="http://www.w3.org/2000/svg" xmlns:xlink="http://www.w3.org/1999/xlink" x="0px" y="0px"
	 viewBox="0 0 64 64" style="enable-background:new 0 0 64 64;" xml:space="preserve">
<style type="text/css">
	.st0{fill:#E64D87;}
	.st1{fill:#FFFFFF;}
</style>
<rect class="st0" width="64" height="64"/>
<path class="st1" d="M32,8C18.7,8,8,18.7,8,32s10.8,24,24,24s24-10.8,24-24S45.3,8,32,8z M48.2,19.7c2.5,3.3,4.1,7.4,4.2,11.9
	c-4.1-0.8-8.9-1.2-14-0.1c-0.6-1.4-1.2-2.8-1.9-4.2C42.4,24.7,46.2,21.6,48.2,19.7z M45.6,17c-1.7,1.7-5.3,4.6-11,6.9
	c-2.2-4-4.7-7.9-7.4-11.6c1.5-0.4,3.1-0.6,4.8-0.6C37.2,11.7,42,13.7,45.6,17z M23.5,13.5c2.8,3.7,5.4,7.6,7.6,11.6
	c-5,1.6-11.2,2.6-18.9,2.4C13.6,21.3,17.9,16.2,23.5,13.5z M11.7,32c0-0.3,0-0.6,0-0.8c1,0,2,0.1,3,0.1c7.3,0,13.3-1.1,18.2-2.7
	c0.6,1.3,1.2,2.6,1.8,3.9c-5.8,1.9-11.8,5.9-17.6,13.4C13.7,42.1,11.7,37.3,11.7,32z M19.8,48.2c5.4-7,11-10.7,16.3-12.4
	c1.9,5,3.3,10,4,14.8c-2.5,1.1-5.3,1.7-8.2,1.7C27.4,52.3,23.2,50.8,19.8,48.2z M43.6,48.7c-0.8-4.5-2.1-9.1-3.9-13.8
	c4.4-0.8,8.5-0.4,12.3,0.4C51.1,40.8,48,45.6,43.6,48.7z"/>
</svg>
