<svg version="1.1"  xmlns="http://www.w3.org/2000/svg" xmlns:xlink="http://www.w3.org/1999/xlink" x="0px" y="0px"
	 viewBox="0 0 64 64" style="enable-background:new 0 0 64 64;" xml:space="preserve">
<style type="text/css">
	.st0{fill:url(#XMLID_2_);}
	.st1{fill:#FFFFFF;}
</style>
<g id="XMLID_1346_">
	
		<radialGradient id="XMLID_2_" cx="5.5989" cy="-805.0143" r="92.9729" gradientTransform="matrix(1.2749 0 0 -1.2755 -8.7968 -962.563)" gradientUnits="userSpaceOnUse">
		<stop  offset="0" style="stop-color:#F5EC53"/>
		<stop  offset="0.2412" style="stop-color:#E48244"/>
		<stop  offset="0.3974" style="stop-color:#D15767"/>
		<stop  offset="0.4888" style="stop-color:#C84278"/>
		<stop  offset="1" style="stop-color:#192CFA"/>
	</radialGradient>
	<rect id="XMLID_1418_" x="0" y="0" class="st0" width="64" height="64"/>
	<g id="XMLID_1347_">
		<path id="XMLID_1352_" class="st1" d="M32,17.5c4.7,0,5.4,0,7,0c1.7,0,2.5,0.4,3.2,0.6c0.9,0.3,1.5,0.6,1.9,1.3
			c0.6,0.6,1,1.3,1.3,1.9c0.3,0.6,0.4,1.5,0.6,3.2c0,1.9,0,2.3,0,7s0,5.4,0,7c0,1.7-0.4,2.5-0.6,3.2c-0.3,0.9-0.6,1.5-1.3,1.9
			c-0.6,0.6-1.3,1-1.9,1.3c-0.6,0.3-1.5,0.4-3.2,0.6c-1.9,0-2.3,0.3-7,0.3s-5.4,0-7-0.3c-1.7,0-2.5-0.4-3.2-0.6
			c-0.9-0.3-1.5-0.6-1.9-1.3c-0.6-0.6-1-1.3-1.3-1.9c-0.3-0.6-0.4-1.5-0.6-3.2c0-1.9,0-2.3,0-7s0-5.4,0-7s0.4-2.5,0.6-3.2
			c0.3-0.9,0.6-1.5,1.3-1.9c0.6-0.6,1.3-1,1.9-1.3c0.6-0.3,1.5-0.4,3.2-0.6C26.6,17.7,27.3,17.5,32,17.5 M32,14.5
			c-4.7,0-5.4,0-7.3,0.3c-1.9,0-3.2,0.4-4.3,0.9c-1,0.4-2.2,1-3.2,1.9c-0.9,0.9-1.5,1.9-1.9,2.9c-0.4,1-0.6,2.3-0.9,4.3
			c0,1.9,0,2.5,0,7.3c0,4.7,0,5.4,0,7.3c0,1.9,0.4,3.2,0.9,4.3c0.4,1,1,2.2,1.9,3.2c1,1,1.9,1.5,3.2,1.9c1,0.4,2.3,0.6,4.3,0.9
			c1.9,0,2.5,0.3,7.3,0.3s5.4,0,7.3-0.3c1.9,0,3.2-0.4,4.3-0.9c1-0.4,2.2-1,3.2-1.9c1-1,1.5-1.9,1.9-3.2c0.4-1,0.6-2.3,0.9-4.3
			c0-1.9,0-2.5,0-7.3s0-5.4,0-7.3s-0.4-3.2-0.9-4.3c-0.4-1-1-2.2-1.9-3.2c-1-1-1.9-1.5-3.2-1.9c-1-0.4-2.3-0.6-4.3-0.9
			C37.4,14.5,36.7,14.5,32,14.5"/>
		<path id="XMLID_1349_" class="st1" d="M32,23.1c-5,0-8.9,4.1-8.9,8.9s4.1,8.9,8.9,8.9s8.9-4.1,8.9-8.9S37,23.1,32,23.1 M32,37.7
			c-3.2,0-5.7-2.5-5.7-5.7s2.5-5.7,5.7-5.7s5.7,2.5,5.7,5.7S35.2,37.7,32,37.7"/>
		<path id="XMLID_1348_" class="st1" d="M43.6,22.6c0,1-0.9,2.2-2.2,2.2c-1,0-2.2-0.9-2.2-2.2s0.9-2.2,2.2-2.2
			C42.5,20.4,43.6,21.5,43.6,22.6"/>
	</g>
</g>
</svg>
