<svg version="1.1"  xmlns="http://www.w3.org/2000/svg" xmlns:xlink="http://www.w3.org/1999/xlink" x="0px" y="0px"
	 viewBox="0 0 64 64" style="enable-background:new 0 0 64 64;" xml:space="preserve">
<style type="text/css">
	.st0{fill:#03B804;}
</style>
<path class="st0" d="M64,0H0v64h64V0z M32,12c12.5,0,22.7,8.1,22.7,18.1c0,4-1.6,7.6-4.8,11.2l0,0c-4.8,5.5-15.3,12-17.9,13.1
	c-2.4,1.1-2-0.7-2-1.2c0-0.4,0.3-1.9,0.3-1.9c0.1-0.5,0.1-1.5-0.1-2c-0.3-0.7-1.2-0.9-2-1.1C17.3,46.7,9.3,39.2,9.3,30.1
	C9.3,20.1,19.5,12,32,12z M18.7,24.9c-0.7,0-1.2,0.5-1.2,1.2v10.1h5.7c0.7,0,1.2-0.5,1.2-1.2c0-0.7-0.5-1.2-1.2-1.2h-3.3v-7.7
	C19.9,25.5,19.3,24.9,18.7,24.9z M26.5,24.9c-0.7,0-1.2,0.5-1.2,1.2v8.9c0,0.7,0.5,1.2,1.2,1.2s1.2-0.5,1.2-1.2v-8.9
	C27.7,25.5,27.2,24.9,26.5,24.9z M30.7,24.9c-0.1,0-0.3,0-0.4,0c-0.5,0.1-0.8,0.7-0.8,1.1v8.9c0,0.7,0.5,1.2,1.2,1.2
	c0.7,0,1.2-0.5,1.2-1.2v-5.5l4.7,6.3c0.3,0.3,0.5,0.5,0.9,0.5c0.1,0,0.3,0,0.4,0c0.5-0.1,0.8-0.7,0.8-1.1v-8.9
	c0-0.7-0.5-1.2-1.2-1.2c-0.7,0-1.2,0.5-1.2,1.2v5.5l-4.7-6.4C31.5,25.1,31.1,24.9,30.7,24.9z M41.5,24.9c-0.7,0-1.2,0.5-1.2,1.2l0,0
	v4.4l0,0v5.6H46c0.7,0,1.2-0.5,1.2-1.2s-0.5-1.2-1.2-1.2h-3.3v-2.1H46c0.7,0,1.2-0.5,1.2-1.2c0-0.7-0.5-1.2-1.2-1.2l0,0h-3.3v-2.1
	H46c0.7,0,1.2-0.5,1.2-1.2c0-0.7-0.5-1.2-1.2-1.2h-4.5V24.9z"/>
</svg>
