<svg xmlns="http://www.w3.org/2000/svg" viewBox="0 0 64 64" width="64px" height="64px">
<style type="text/css">
	.st0{fill-rule:evenodd;clip-rule:evenodd;fill:url(#SVGID_1_);}
</style>
<linearGradient id="SVGID_1_" gradientUnits="userSpaceOnUse" x1="13.1474" y1="45.5449" x2="43.5589" y2="23.6147">
	<stop  offset="0" style="stop-color:#324666"/>
	<stop  offset="1" style="stop-color:#1C2D47"/>
</linearGradient>
<path class="st0" d="M56.6,22.1c0-2.2-0.9-4.3-2.4-5.8c-1.5-1.5-3.6-2.4-5.8-2.4c-8.7,0-24.1,0-32.8,0c-2.2,0-4.3,0.9-5.8,2.4
	s-2.4,3.6-2.4,5.8c0,5.7,0,14,0,19.7c0,2.2,0.9,4.3,2.4,5.8s3.6,2.4,5.8,2.4c8.7,0,24.1,0,32.8,0c2.2,0,4.3-0.9,5.8-2.4
	c1.5-1.5,2.4-3.6,2.4-5.8C56.6,36.1,56.6,27.9,56.6,22.1z M13,21.8c0,0,8.4,6.9,13.8,11.3c3,2.5,7.4,2.5,10.4,0
	C42.5,28.8,51,21.7,51,21.7c0.7-0.6,0.8-1.6,0.2-2.3c-0.6-0.7-1.6-0.8-2.3-0.2c0,0-8.4,7-13.8,11.4c-1.8,1.5-4.5,1.5-6.3,0
	L15.1,19.3c-0.7-0.6-1.7-0.5-2.3,0.2C12.3,20.2,12.3,21.2,13,21.8L13,21.8z"/>
<g id="Icon">
</g>
</svg>
