<svg xmlns="http://www.w3.org/2000/svg" viewBox="0 0 512 512"><defs><linearGradient id="a" x1="256" x2="256" y1="512" y2="4.54" gradientUnits="userSpaceOnUse"><stop offset="0" stop-color="#6364ff"/><stop offset="1" stop-color="#563acc"/></linearGradient></defs><g image-rendering="optimizeQuality" shape-rendering="geometricPrecision" text-rendering="geometricPrecision"><path d="M0 0h512v512H0z" style="fill:url(#a)"/><path d="M399.68 170c-4.46-33.17-33.37-59.31-67.64-64.37-5.78-.86-27.68-3.97-78.43-3.97h-.38c-50.76 0-61.65 3.11-67.43 3.97-33.31 4.92-63.74 28.41-71.12 61.97-3.55 16.53-3.93 34.85-3.27 51.66.94 24.1 1.12 48.17 3.31 72.17a338 338 0 0 0 7.9 47.34c7.02 28.76 35.42 52.7 63.25 62.46a169.67 169.67 0 0 0 92.53 4.88c3.37-.78 6.71-1.7 10.01-2.73 7.46-2.37 16.21-5.02 22.64-9.68a.69.69 0 0 0 .29-.56v-23.26a.683.683 0 0 0-.84-.66c-19.67 4.7-39.82 7.05-60.05 7.02-34.8 0-44.16-16.51-46.84-23.39a72.4 72.4 0 0 1-4.07-18.44c-.01-.22.08-.42.25-.56.17-.13.39-.18.59-.13 19.34 4.67 39.17 7.02 59.06 7.02 4.79 0 9.56 0 14.34-.13 20.01-.56 41.1-1.58 60.79-5.43.49-.1.98-.18 1.4-.31 31.05-5.96 60.61-24.68 63.61-72.07.11-1.87.39-19.54.39-21.48.01-6.58 2.12-46.68-.31-71.32Zm-49.97 37.26v82.4h-32.65v-79.97c0-16.84-7.02-25.42-21.29-25.42-15.69 0-23.55 10.16-23.55 30.22v43.78h-32.46v-43.78c0-20.06-7.87-30.22-23.56-30.22-14.19 0-21.27 8.59-21.27 25.42v79.97h-32.64v-82.4c0-16.84 4.3-30.21 12.9-40.13 8.87-9.89 20.5-14.97 34.94-14.97 16.71 0 29.34 6.43 37.76 19.26l8.13 13.64 8.14-13.64c8.42-12.84 21.05-19.26 37.73-19.26 14.43 0 26.06 5.08 34.96 14.97 8.59 9.91 12.88 23.28 12.87 40.13Z" style="fill:#fff"/></g></svg>