<svg version="1.1"  xmlns="http://www.w3.org/2000/svg" xmlns:xlink="http://www.w3.org/1999/xlink" x="0px" y="0px"
	 viewBox="0 0 64 64" style="enable-background:new 0 0 64 64;" xml:space="preserve">
<style type="text/css">
	.st0{fill:none;enable-background:new    ;}
	.st1{fill:#FFFFFF;}
</style>
<path class="st0" d="M0,0"/>
<rect width="64" height="64"/>
<path class="st1" d="M15,23.5c-3.1,0-5.7,2.6-5.7,5.7s2.6,5.7,5.7,5.7c3.1,0,5.7-2.6,5.7-5.7S18.1,23.5,15,23.5z M30.4,21.1
	c-3.6,0-6.5,2.9-6.5,6.5s2.9,6.5,6.5,6.5s6.5-2.9,6.5-6.5S33.9,21.1,30.4,21.1z M47.4,17.8c-4,0-7.3,3.3-7.3,7.3s3.3,7.3,7.3,7.3
	s7.3-3.3,7.3-7.3S51.4,17.8,47.4,17.8z M21.5,46.2h-13v-4c0-3.6,2.9-6.5,6.5-6.5s6.5,2.9,6.5,6.5V46.2z M37.7,46.2H23.1v-4
	c0-4,3.3-7.3,7.3-7.3s7.3,3.3,7.3,7.3V46.2z M55.5,46.2H39.3v-4c0-4.5,3.6-8.1,8.1-8.1s8.1,3.6,8.1,8.1V46.2z"/>
</svg>
