<svg version="1.1"  xmlns="http://www.w3.org/2000/svg" xmlns:xlink="http://www.w3.org/1999/xlink" x="0px" y="0px"
	 viewBox="0 0 64 64" style="enable-background:new 0 0 64 64;" xml:space="preserve">
<style type="text/css">
	.st0{fill:#FF7701;}
</style>
<path class="st0" d="M64,0H0v64h64V0z M24.3,13.5c11.3-8.6,24.2,4.3,15.6,15.6c0,0.1-0.1,0.1-0.1,0.1c-11.3,8.6-24.2-4.3-15.6-15.6
	C24.2,13.6,24.2,13.5,24.3,13.5z M32,16c-2.9,0-5.3,2.4-5.3,5.3s2.4,5.3,5.3,5.3s5.3-2.4,5.3-5.3S34.9,16,32,16z M22.6,33.3
	c0.5,0,1,0.1,1.5,0.4c0.1,0.1,3.5,2.2,7.9,2.2s7.8-2.2,7.9-2.2c1.2-0.8,2.9-0.5,3.7,0.8c0.8,1.2,0.5,2.9-0.7,3.7
	c-0.2,0.1-3.1,2-7.4,2.8l8.7,8.7c0.1,2.4-1.3,3.6-2.8,3.6c-0.7,0-1.4-0.3-1.9-0.8L32,45.1l-8.4,8.4c-3.6,0.2-4.5-3-2.9-4.7l7.8-7.8
	c-4.3-0.8-7.2-2.7-7.4-2.8c-1.2-0.8-1.6-2.5-0.7-3.7C21,33.8,21.8,33.3,22.6,33.3z"/>
</svg>
