<svg version="1.1"  xmlns="http://www.w3.org/2000/svg" xmlns:xlink="http://www.w3.org/1999/xlink" x="0px" y="0px"
	 viewBox="0 0 64 64" style="enable-background:new 0 0 64 64;" xml:space="preserve">
<style type="text/css">
	.st0{fill:#117BB8;}
	.st1{fill:#FFFFFF;}
	.st2{fill:#CD2129;}
</style>
<g id="XMLID_1433_">
	<path id="XMLID_1439_" class="st0" d="M32,63.9L32,63.9C14.4,63.9,0.1,49.6,0.1,32l0,0C0.1,14.4,14.4,0.1,32,0.1l0,0
		c17.6,0,31.9,14.3,31.9,31.9l0,0C63.9,49.6,49.6,63.9,32,63.9z"/>
	<g id="XMLID_1434_">
		<g id="XMLID_1436_">
			<rect id="XMLID_1438_" x="17.6" y="24.7" class="st1" width="6.6" height="21.3"/>
			<ellipse id="XMLID_1437_" class="st1" cx="20.9" cy="18.2" rx="3.8" ry="3.8"/>
		</g>
		<path id="XMLID_1435_" class="st1" d="M34.8,34.9c0-2.9,1.3-4.7,4.1-4.7c2.6,0,3.6,1.9,3.6,4.7c0,2.8,0,11.1,0,11.1h6.6
			c0,0,0-7.7,0-13.6s-3.2-8.5-7.7-8.5s-6.4,3.6-6.4,3.6v-2.9h-6.4v21.3h6.4C34.8,46.3,34.8,38.4,34.8,34.9z"/>
	</g>
</g>
<g id="XMLID_1341_">
	<rect id="XMLID_1343_" class="st2" width="64" height="64"/>
	<path id="XMLID_1342_" class="st1" d="M21.8,34.9c0.4,0.3,0.9,0,1-0.6c0-0.4,0.4-1.3,0.4-1.7c0.3-0.6,0-0.6-0.3-1.3
		c-0.9-1-1.5-2.3-1.5-4.2c0-5.5,4.1-10.5,10.6-10.5c5.7,0,9.2,3.6,9.2,8.3c0,6.1-2.8,11.5-6.8,11.5c-2.3,0-4.1-1.9-3.4-4.2
		c0.6-2.8,1.9-5.7,1.9-7.7c0-1.7-0.9-3.2-2.9-3.2c-2.3,0-4.2,2.3-4.2,5.5c0,2.2,0.6,3.4,0.6,3.4s-2.3,9.9-2.8,11.9
		c-0.9,3.6-0.3,7.9,0,8.3c0,0.3,0.4,0.3,0.4,0.3c0.3-0.3,2.9-3.6,4.1-7.3c0.3-1,1.5-6,1.5-6c0.9,1.5,2.9,2.8,5.4,2.8
		c7,0,11.7-6.4,11.7-14.9c0-6.4-5.5-12.5-13.8-12.5c-10.5,0-15.6,7.4-15.6,13.6C17.3,30.3,18.9,33.7,21.8,34.9z"/>
</g>
</svg>
