<svg version="1.1"  xmlns="http://www.w3.org/2000/svg" xmlns:xlink="http://www.w3.org/1999/xlink" x="0px" y="0px"
	 viewBox="0 0 64 64" style="enable-background:new 0 0 64 64;" xml:space="preserve">
<style type="text/css">
	.st0{fill:url(#SVGID_1_);}
</style>
<g id="Shopicon">
	<g>
		
			<linearGradient id="SVGID_1_" gradientUnits="userSpaceOnUse" x1="7" y1="74" x2="57" y2="74" gradientTransform="matrix(1 0 0 1 0 -42)">
			<stop  offset="0" style="stop-color:#324666"/>
			<stop  offset="1" style="stop-color:#1C2D47"/>
		</linearGradient>
		<path class="st0" d="M50.2,22H47V10.2C47,8.4,45.6,7,43.8,7H20.2C18.4,7,17,8.4,17,10.2V22h-3.2C10,22,7,25.1,7,28.8v15.5
			C7,45.8,8.2,47,9.7,47H17v7c0,1.7,1.3,3,3,3h24c1.7,0,3-1.3,3-3v-7h7.3c1.5,0,2.7-1.2,2.7-2.7V28.8C57,25.1,53.9,22,50.2,22z
			 M22,52V37h20v15H22z M52.2,29.1c0.1,1.5-1.2,2.8-2.7,2.7c-1.2-0.1-2.3-1.1-2.3-2.3c-0.1-1.5,1.2-2.8,2.7-2.7
			C51.1,26.9,52.1,27.9,52.2,29.1z M22,12h20v10H22V12z"/>
	</g>
</g>
</svg>
