<svg version="1.1" xmlns="http://www.w3.org/2000/svg" xmlns:xlink="http://www.w3.org/1999/xlink" x="0px" y="0px"
	 viewBox="0 0 64 64" style="enable-background:new 0 0 64 64;" xml:space="preserve">
<style type="text/css">
	.st0{fill:#3E49FF;}
	.st1{fill:#FFFFFF;}
</style>
<rect id="XMLID_1439_" y="0" class="st0" width="64" height="64"/>
<g>
	<path class="st1" d="M32,14.9c0.9,0,1.8,0.1,2.6,0.2l-0.2,1.6c-0.8-0.1-1.6-0.2-2.4-0.2c-0.8,0-1.6,0.1-2.4,0.2l-0.2-1.6
		C30.2,15,31.1,14.9,32,14.9z"/>
	<path class="st1" d="M36.1,15.4L35.7,17c1.6,0.4,3,1,4.4,1.8l0.8-1.4C39.4,16.5,37.8,15.8,36.1,15.4z"/>
	<path class="st1" d="M42.1,18.2l-0.9,1.3c1.3,0.9,2.4,2.1,3.3,3.3l1.3-0.9C44.7,20.5,43.5,19.3,42.1,18.2z"/>
	<path class="st1" d="M46.6,23.1L45.2,24c0.8,1.3,1.4,2.8,1.8,4.4l1.6-0.4C48.2,26.2,47.5,24.6,46.6,23.1z"/>
	<path class="st1" d="M48.9,29.4l-1.6,0.2c0.1,0.8,0.2,1.6,0.2,2.4c0,0.8-0.1,1.6-0.2,2.4l1.6,0.2c0.1-0.8,0.2-1.7,0.2-2.6
		C49.1,31.1,49,30.2,48.9,29.4z"/>
	<path class="st1" d="M45.2,40c0.8-1.3,1.4-2.8,1.8-4.4l1.6,0.4c-0.4,1.7-1.1,3.3-2,4.8L45.2,40z"/>
	<path class="st1" d="M44.5,41.1l1.3,0.9c-1,1.4-2.3,2.7-3.7,3.7l-0.9-1.3C42.4,43.5,43.5,42.4,44.5,41.1z"/>
	<path class="st1" d="M40,45.2l0.8,1.4c-1.5,0.9-3.1,1.6-4.8,2L35.7,47C37.2,46.7,38.7,46,40,45.2L40,45.2z"/>
	<path class="st1" d="M34.4,47.3l0.2,1.6c-0.8,0.1-1.7,0.2-2.6,0.2c-0.9,0-1.8-0.1-2.6-0.2l0.2-1.6c0.8,0.1,1.6,0.2,2.4,0.2
		C32.8,47.5,33.6,47.4,34.4,47.3z"/>
	<path class="st1" d="M28.3,47l-0.4,1.6c-1.3-0.3-2.5-0.8-3.7-1.4l-1.6,0.4L22.3,46l2.2-0.5l0.5,0.3C26,46.3,27.2,46.7,28.3,47
		L28.3,47z"/>
	<path class="st1" d="M20.9,46.4l0.4,1.6l-2.8,0.6c-1.8,0.4-3.5-1.2-3.1-3.1l0.6-2.8l1.6,0.4L17,45.8c-0.2,0.7,0.5,1.3,1.2,1.2
		L20.9,46.4z"/>
	<path class="st1" d="M18,41.7l-1.6-0.4l0.4-1.6c-0.6-1.2-1.1-2.4-1.4-3.7l1.6-0.4c0.3,1.2,0.7,2.3,1.2,3.3l0.3,0.5L18,41.7z"/>
	<path class="st1" d="M16.7,34.4l-1.6,0.2c-0.1-0.8-0.2-1.7-0.2-2.6c0-0.9,0.1-1.8,0.2-2.6l1.6,0.2c-0.1,0.8-0.2,1.6-0.2,2.4
		C16.5,32.8,16.6,33.6,16.7,34.4z"/>
	<path class="st1" d="M17,28.3l-1.6-0.4c0.4-1.7,1.1-3.3,2-4.8l1.4,0.8C18,25.3,17.3,26.8,17,28.3z"/>
	<path class="st1" d="M19.5,22.9l-1.3-0.9c1-1.4,2.3-2.7,3.7-3.7l0.9,1.3C21.6,20.5,20.5,21.6,19.5,22.9z"/>
	<path class="st1" d="M24,18.8l-0.8-1.4c1.5-0.9,3.1-1.6,4.8-2l0.4,1.6C26.8,17.3,25.3,18,24,18.8z"/>
	<path class="st1" d="M45.9,32c0,7.7-6.2,13.9-13.9,13.9c-2.4,0-4.7-0.6-6.7-1.7c-0.2-0.1-0.4-0.1-0.6-0.1l-6.2,1.4l1.4-6.2
		c0-0.2,0-0.4-0.1-0.6c-1.1-2-1.7-4.3-1.7-6.7c0-7.7,6.2-13.9,13.9-13.9C39.7,18.1,45.9,24.3,45.9,32L45.9,32z"/>
</g>
</svg>
