<svg version="1.1"  xmlns="http://www.w3.org/2000/svg" xmlns:xlink="http://www.w3.org/1999/xlink" x="0px" y="0px"
	 viewBox="0 0 64 64" style="enable-background:new 0 0 64 64;" xml:space="preserve">
<style type="text/css">
	.st0{fill:#FFFFFF;}
	.st1{fill:#EC1655;}
	.st2{fill:#0CBAC6;}
</style>
<g>
	<g>
		<rect x="0" y="0" width="64" height="64"/>
		<g>
			<g>
				<path class="st0" d="M23.5,44.9c0,0,0.1,0.1,0.1,0.1c0.4,0.3,0.6,0.6,1,0.9c1.1,0.8,2.2,1.3,3.6,1.4c3.2,0.2,6-2.2,6.4-5.4
					c0-0.2,0-0.3,0-0.5c0-9.6,0-19.2,0-28.7c0-0.6,0-0.6,0.6-0.6c1.5,0,2.9,0,4.4,0c0.1,0,0.3,0,0.4,0.1c0,0,0,0,0,0
					c0.1,0.1,0.1,0.2,0.1,0.3c0.6,2.6,1.9,4.6,4,6.2c0.1,0.1,0.2,0.2,0.4,0.3c0.1,0.1,0.2,0.2,0.3,0.2c0.3,0.2,0.6,0.5,0.9,0.8
					c1.2,1,2.5,1.7,4,2c0.1,0,0.3,0,0.4,0.2c0,0,0,0,0,0c0.1,0.1,0.1,0.2,0.1,0.3c0,1.7,0,3.4,0,5.1c0,0.4-0.1,0.4-0.4,0.4
					c-1.2,0-2.5-0.2-3.7-0.4c-2.1-0.5-4-1.3-5.7-2.5c-0.1-0.1-0.2-0.2-0.3-0.1c-0.1,0.1-0.1,0.2-0.1,0.3c0,4.8,0,9.5,0,14.3
					c0,3.3-1.1,6.3-3.3,8.8c-2.3,2.7-5.2,4.3-8.8,4.7c-2.7,0.3-5.3-0.2-7.7-1.4c-0.4-0.2-0.8-0.4-1.1-0.7c-0.1-0.1-0.2-0.2-0.3-0.3
					c-0.8-0.7-1.4-1.6-2-2.5c-0.8-1.4-1.4-3-1.7-4.6c-0.2-0.9-0.2-1.9-0.2-2.8c0.2-3,1.2-5.8,3.2-8.1c1.6-2,3.7-3.3,6.1-4.2
					c1-0.3,2.1-0.6,3.1-0.6c0.2,0,0.4-0.1,0.6,0c0.1,0,0.2,0,0.3,0.1c0,0,0,0,0,0c0.1,0.1,0,0.2,0,0.3c0,1.7,0,3.4,0,5.1
					c0,0.1,0,0.1,0,0.2c0,0.2-0.1,0.2-0.3,0.2c-0.5-0.1-1-0.2-1.4-0.2c-0.8,0-1.5,0.1-2.2,0.3c-2.4,0.9-3.8,2.6-4.1,5
					c-0.3,2.4,0.7,4.4,2.7,5.8C23.1,44.6,23.3,44.7,23.5,44.9z"/>
				<path class="st1" d="M19,50.8c0.1,0,0.1,0,0.2,0.1c1.5,0.9,3.2,1.5,5,1.8c0.9,0.1,1.8,0.2,2.7,0.2c3-0.2,5.7-1.2,8-3.1
					c2.2-1.9,3.7-4.2,4.5-7c0.2-0.9,0.4-1.8,0.4-2.7c0-0.5,0-1.1,0-1.6c0-4.5,0-9.1,0-13.6c0-0.1,0-0.2,0-0.3c0.1,0,0.2,0.1,0.2,0.1
					c1.6,1.1,3.4,1.9,5.2,2.4c1,0.3,2.1,0.5,3.2,0.6c0.4,0,0.9,0,1.3,0.1c0.2,0,0.2,0,0.2-0.2c0-0.2,0-0.4,0-0.6c0-1.5,0-3.1,0-4.6
					c0-0.1,0-0.2,0-0.3c0.4,0,0.8,0.1,1.2,0.2c0.3,0,0.5,0,0.8,0c0.1,0,0.2,0,0.2,0.2c0,0.1,0,0.1,0,0.2c0,2.2,0,4.4,0,6.7
					c0,0,0,0.1,0,0.1c0,0.2,0,0.2-0.2,0.2c-0.7,0-1.4,0-2.1-0.1c-1.4-0.2-2.8-0.5-4.1-1c-1.3-0.5-2.5-1.1-3.6-1.9
					c-0.1,0-0.1-0.1-0.2-0.2c0,0.1,0,0.2,0,0.3c0,4.8,0,9.7,0,14.5c0,2.6-0.7,5-2,7.2c-1.7,2.6-4,4.5-6.9,5.6
					c-1.8,0.6-3.6,0.9-5.5,0.8c-3.2-0.2-6-1.5-8.3-3.6C19.1,51,19.1,50.9,19,50.8z"/>
				<path class="st2" d="M39.9,12c-0.1,0-0.2,0-0.3,0c-1.6,0-3.1,0-4.7,0c-0.4,0-0.4,0-0.4,0.4c0,9.5,0,19.1,0,28.6
					c0,0.7,0,1.3-0.3,1.9c-0.7,2.2-2.2,3.7-4.5,4.2c-2.5,0.6-4.5-0.2-6.2-2.1c0,0,0-0.1-0.1-0.1c0.5,0.2,0.9,0.4,1.5,0.5
					c1.6,0.3,3.1,0.1,4.5-0.8c1.6-1,2.5-2.4,2.9-4.3c0.1-0.3,0.1-0.7,0.1-1.1c0-9.5,0-19.1,0-28.6c0-0.4-0.1-0.4,0.4-0.4
					c2.2,0,4.4,0,6.6,0c0.1,0,0.1,0,0.2,0c0.2,0,0.2,0,0.2,0.2C39.8,11,39.8,11.5,39.9,12z"/>
				<path class="st2" d="M28.1,27.7c-1.3,0-2.7,0.3-3.9,0.7c-1.8,0.6-3.5,1.6-4.9,2.9c-1.9,1.7-3.2,3.8-3.9,6.3
					c-0.2,0.9-0.4,1.8-0.5,2.7c0,0.5,0,1.1,0,1.6c0.1,1.5,0.4,3,1,4.4c0.6,1.6,1.5,3,2.7,4.2c0,0,0,0.1,0.1,0.1
					c-0.3-0.1-0.5-0.3-0.7-0.5c-2.2-1.7-3.7-3.9-4.6-6.6c-0.3-0.9-0.5-1.9-0.6-2.8c-0.1-0.7-0.1-1.4,0-2.1c0.1-1.6,0.5-3.2,1.2-4.6
					c0.7-1.5,1.6-2.9,2.9-4.1c1.4-1.4,3-2.4,4.9-3.1c1.2-0.4,2.4-0.7,3.6-0.8c0.9-0.1,1.8,0,2.7,0.1c0.1,0,0.2,0,0.2,0.2
					C28.1,26.7,28.1,27.2,28.1,27.7z"/>
				<path class="st1" d="M23.5,44.9c-0.5-0.2-1-0.6-1.4-1c-1.1-1-1.7-2.3-1.9-3.8c-0.3-3.1,1.6-5.8,4.3-6.6c1.2-0.4,2.3-0.4,3.5-0.1
					c0.1,0,0.1,0,0.2,0c0-0.1,0-0.2,0-0.3c0-1.7,0-3.5,0-5.2c0-0.1,0-0.2,0-0.3c0.7,0,1.3,0,2,0.1c0.1,0,0.1,0.1,0.1,0.2
					c0,0.1,0,0.1,0,0.2c0,2.3,0,4.6,0,6.9c0,0.1,0,0.2,0,0.3c-0.3-0.1-0.6-0.1-0.9-0.2c-1.8-0.2-3.4,0.2-4.8,1.3
					c-1.2,1-2,2.2-2.2,3.8c-0.3,1.6,0.1,3.2,1,4.5C23.4,44.7,23.4,44.8,23.5,44.9z"/>
				<path class="st1" d="M44.5,18.8c-0.7-0.4-1.3-0.9-1.8-1.4c-1.4-1.5-2.4-3.2-2.7-5.3c0,0,0,0,0-0.1c0.6,0,1.2,0,1.9,0
					c0.1,0,0.2,0,0.1,0.2c0,0,0,0.1,0,0.1c0,1.7,0.5,3.3,1.3,4.8c0.3,0.5,0.7,1,1.1,1.5C44.4,18.7,44.5,18.8,44.5,18.8z"/>
				<path class="st2" d="M50,22c-1.8-0.4-3.3-1.2-4.7-2.4c-0.2-0.2-0.4-0.4-0.6-0.6c0.1,0,0.1,0,0.2,0.1c1.1,0.6,2.2,1,3.4,1.2
					c0.5,0.1,1,0.1,1.4,0.1c0.2,0,0.2,0,0.2,0.2C50,21.1,50,21.6,50,22z"/>
			</g>
		</g>
	</g>
</g>
</svg>
