<svg version="1.1"  xmlns="http://www.w3.org/2000/svg" xmlns:xlink="http://www.w3.org/1999/xlink" x="0px" y="0px"
	 viewBox="0 0 64 64" style="enable-background:new 0 0 64 64;" xml:space="preserve">
<style type="text/css">
	.st0{fill:#36465D;}
	.st1{fill:#FFFFFF;}
</style>
<g id="XMLID_1283_">
	<rect id="XMLID_1285_" y="0" class="st0" width="64" height="64"/>
	<path id="XMLID_1284_" class="st1" d="M24.7,41.6c0,1.5,0.3,2.9,0.4,3.8c0.3,0.9,0.9,1.9,1.9,2.6c0.9,0.6,2.2,1.3,3.2,1.9
		c1.3,0.4,2.8,0.6,4.2,0.6c1.3,0,2.8-0.3,4.1-0.4c1-0.3,2.8-0.9,4.2-1.5v-6c-1.9,1-3.6,1.9-5.5,1.9c-1,0-2.2-0.3-2.8-0.6
		c-0.6-0.4-1-0.9-1-1.3c-0.1-0.6-0.1-2-0.1-4v-9.3h8.6v-5.8h-8.6V14h-5.1c-0.3,1.9-0.6,3.5-1.3,4.5c-0.6,1-1.3,2.3-2.6,3.2
		c-0.9,0.9-2.3,1.5-3.6,2.2v5.1h4.1v12.7H24.7z"/>
</g>
</svg>
