<svg version="1.1"  xmlns="http://www.w3.org/2000/svg" xmlns:xlink="http://www.w3.org/1999/xlink" x="0px" y="0px"
	 viewBox="0 0 64 64" style="enable-background:new 0 0 64 64;" xml:space="preserve">
<style type="text/css">
	.st0{fill:#E7162F;}
	.st1{fill:#FFFFFF;}
</style>
<rect class="st0" width="64" height="64"/>
<path class="st1" d="M44.4,11.1c-1.1-0.1-2.3,0-3.4,0.3c-1,0.2-1.7,1.3-1.5,2.3s1.2,1.7,2.3,1.5c3.2-0.7,6.6,0.3,9,2.9
	c2.3,2.6,3,6.2,2,9.3c-0.3,1,0.2,2.1,1.2,2.4s2.1-0.2,2.4-1.2c1.4-4.4,0.6-9.4-2.7-13.1C51.2,12.8,47.8,11.3,44.4,11.1z M27.1,16.9
	c-3.5,0.4-8.4,3.1-12.7,7.5C9.7,29.1,7,34.2,7,38.5c0,8.3,10.6,13.4,21,13.4c13.6,0,22.7-8,22.7-14.3c0-3.8-3.2-6-6.1-6.9
	c-0.7-0.2-1.2-0.3-0.8-1.2c0.8-2,0.9-3.8,0.1-5.1c-1.6-2.3-6.1-2.2-11.2-0.1c0,0-1.6,0.8-1.2-0.5c0.8-2.5,0.6-4.7-0.6-5.9
	C30,17.1,28.7,16.7,27.1,16.9z M44,17.9c-0.6,0-1.1,0-1.6,0.1c-0.9,0.2-1.5,1.1-1.3,2s1.1,1.4,2,1.2c1.1-0.2,2.3,0.1,3.1,1
	s1,2,0.7,3.1c-0.3,0.9,0.2,1.8,1,2.1c0.9,0.3,1.8-0.2,2.1-1c0.7-2.1,0.2-4.6-1.4-6.4C47.3,18.8,45.7,18,44,17.9z M29.1,29
	c6.9,0.2,12.5,3.7,13,8.5C42.6,43,36.3,48.1,28,49c-8.3,0.8-15.5-3-16-8.5s5.8-10.6,14.1-11.4C27.1,29,28.1,29,29.1,29z M25.8,33.1
	c-3,0.3-5.8,2-7.1,4.7c-1.7,3.6-0.1,7.6,3.9,8.9c4.1,1.3,9-0.7,10.7-4.6c1.7-3.8-0.4-7.6-4.5-8.7C27.8,33.1,26.8,33,25.8,33.1z
	 M27.7,37.7c0.1,0,0.2,0,0.3,0.1c0.5,0.2,0.7,0.7,0.5,1.2c-0.3,0.5-0.9,0.7-1.4,0.5s-0.7-0.8-0.4-1.2C26.9,37.9,27.3,37.7,27.7,37.7
	z M23.9,38.9c0.3,0,0.7,0.1,1,0.2c1.3,0.6,1.7,2.1,0.9,3.3c-0.8,1.3-2.5,1.9-3.8,1.3c-1.3-0.6-1.6-2.1-0.8-3.3
	C21.8,39.4,22.8,38.8,23.9,38.9z"/>
</svg>
