<svg version="1.1"  xmlns="http://www.w3.org/2000/svg" xmlns:xlink="http://www.w3.org/1999/xlink" x="0px" y="0px"
	 viewBox="0 0 64 64" style="enable-background:new 0 0 64 64;" xml:space="preserve">
<style type="text/css">
	.st0{fill:#25D366;}
	.st1{fill:#FEFEFE;}
</style>
<g>
	<rect x="0" y="0.1" class="st0" width="64.1" height="64.1"/>
	<path class="st1" d="M38.2,41.6c-8.1,0-15-6.7-15-15c0-2.2,1.7-3.8,3.8-3.8c0.3,0,0.4,0,0.6,0c0.4,0,0.9,0.3,1.3,0.4c0,0,0,0,0,0.3
		l0.9,5.5v0.3c-0.4,0.4-1,0.9-1.7,1h-0.4l0.3,0.3c1,2.8,3.5,5.1,6.2,6.2l0.3,0.3v-0.4c0.3-0.6,0.6-1.3,1-1.7c0,0,0,0,0.3,0l0,0
		l5.5,0.9h0.3c0.3,0.4,0.4,0.9,0.4,1.3c0,0.3,0,0.4,0,0.6C42,39.8,40.3,41.6,38.2,41.6L38.2,41.6"/>
	<path class="st1" d="M25.6,46.7l-7.7,0.9l2.3-5.1l-0.4-0.6c0,0,0,0,0-0.3c-1.9-2.8-2.9-6-2.9-9.4c0-9,7.3-16,16-16
		c8.3,0,15.4,6.4,16,14.7c0,0.4,0,0.9,0,1.3c0,0.3,0,0.3,0,0.4C48.7,40,43.5,46.3,36.4,48c-0.6,0.3-1,0.3-1.7,0.3
		c-0.6,0-1.3,0-1.7,0c-2.2,0-4.2-0.4-6.2-1.3c-0.3,0-0.4-0.3-0.6-0.3H25.6z M52.8,30.4c-0.4-4.9-2.8-9.6-6.4-13.1S37.8,12,32.6,12
		c-11.2,0-20.3,9-20.3,20.3c0,3.6,1,7.4,2.9,10.5l-4.2,9.7L25,50.9c2.3,1,4.9,1.5,7.7,1.5c0.6,0,1.5,0,2.2-0.3
		c0.6,0,1.3-0.3,1.9-0.3c9.4-1.9,16-10.3,16.3-19.6v-0.3C52.9,31.5,52.9,30.8,52.8,30.4"/>
</g>
</svg>
