<?xml version="1.0" encoding="UTF-8" standalone="no"?>
<svg
   xmlns:dc="http://purl.org/dc/elements/1.1/"
   xmlns:cc="http://creativecommons.org/ns#"
   xmlns:rdf="http://www.w3.org/1999/02/22-rdf-syntax-ns#"
   xmlns:svg="http://www.w3.org/2000/svg"
   xmlns="http://www.w3.org/2000/svg"
   xmlns:sodipodi="http://sodipodi.sourceforge.net/DTD/sodipodi-0.dtd"
   xmlns:inkscape="http://www.inkscape.org/namespaces/inkscape"
   viewBox="0 0 64 64"
   width="64"
   height="64"
   version="1.1"
   id="svg8"
   sodipodi:docname="login_oauth2-xx.svg"
   inkscape:version="0.92.4 (5da689c313, 2019-01-14)">
  <metadata
     id="metadata14">
    <rdf:RDF>
      <cc:Work
         rdf:about="">
        <dc:format>image/svg+xml</dc:format>
        <dc:type
           rdf:resource="http://purl.org/dc/dcmitype/StillImage" />
        <dc:title />
      </cc:Work>
    </rdf:RDF>
  </metadata>
  <defs
     id="defs12" />
  <sodipodi:namedview
     pagecolor="#ffffff"
     bordercolor="#666666"
     borderopacity="1"
     objecttolerance="10"
     gridtolerance="10"
     guidetolerance="10"
     inkscape:pageopacity="0"
     inkscape:pageshadow="2"
     inkscape:window-width="2880"
     inkscape:window-height="1659"
     id="namedview10"
     showgrid="false"
     inkscape:zoom="17.73881"
     inkscape:cx="45.474023"
     inkscape:cy="20.782992"
     inkscape:window-x="-13"
     inkscape:window-y="-13"
     inkscape:window-maximized="1"
     inkscape:current-layer="svg8" />
  <path
     fill="#666"
     d="M13.7 19.2c4.78-7.03 13.1-10.8 21.54-9.76 12.22 1.5 20.97 12.46 19.83 24.64h6.85c.05-.69.08-1.38.08-2.07.13-11.81-6.8-22.56-17.62-27.32C29.47-1.87 12.06 4.9 5.5 19.81l7.2-.1c.5 0 .7-.1 1-.5ZM35 54.53c-1.73.19-3.5.19-5.3-.03-6.8-.9-12.1-4.2-16-9.8-.2-.3-.4-.4-.8-.4H5.5a29.61 29.61 0 0 0 26.85 17.25c.89 0 1.78-.04 2.65-.12v-6.9Z"
     id="path4" />
  <path
     d="M16.2 27.7h12.1q.9 0 .9-.8v-4.4c0-.3.2-.8.4-1 .3-.3.7 0 1.1.2l12.8 9.4c.9.6.9 1.1 0 1.8l-12.8 9.4c-.3.2-.7.5-1.1.2l-.5-1V37c0-.6-.2-.7-.7-.7H3.7c-1-.1-1.7-.7-1.7-1.7v-5.2c0-1 .7-1.7 1.9-1.7h12.3Z"
     id="path6"
     fill="#1d83d4" />
  <g
     id="g826"
     transform="matrix(0.57122021,0,0,0.52880581,30.831547,29.770268)"
     style="fill:#1d83d4;fill-opacity:1;stroke-width:1.81949186">
    <path
       id="path4-9"
       d="m 14.5,56.4 c 4.9,3.5 11,5.6 17.5,5.6 6.5,0 12.6,-2.1 17.5,-5.6 v -5.3 h -35 z"
       inkscape:connector-curvature="0"
       style="fill:#1d83d4;fill-opacity:1;stroke-width:2.12274027" />
    <path
       id="path6-7"
       d="m 49.5,55.4 h -35 V 51 c 0,-6 4.9,-10.9 10.9,-10.9 h 13.1 c 6,0 10.9,4.9 10.9,10.9 v 4.4 z"
       inkscape:connector-curvature="0"
       style="fill:#1d83d4;fill-opacity:1;stroke-width:2.12274027" />
    <path
       id="path8"
       d="m 32,35.8 c -7.2,0 -13.1,-5.9 -13.1,-13.1 0,-7.2 5.9,-13.2 13.1,-13.2 7.2,0 13.1,5.9 13.1,13.1 0,7.2 -5.9,13.2 -13.1,13.2 z"
       inkscape:connector-curvature="0"
       style="fill:#1d83d4;fill-opacity:1;stroke-width:2.12274027" />
  </g>
</svg>
