<svg xmlns="http://www.w3.org/2000/svg" viewBox="0 0 64 64" width="64" height="64">
  <path fill="#1d83d4" d="M35.5 50c-3 0-5.5-2.5-5.5-5.5v-1c0-3 2.5-5.5 5.5-5.5H39v-3.5c0-3 2.5-5.5 5.5-5.5h1c3 0 5.5 2.5 5.5 5.5v3.4l3.9-3.9c5.7-6.3 5.5-16-.7-22.2-6-6.2-15.9-6.3-22.2-.7-6.3-5.7-16-5.3-22.2.7-6.2 6.2-6.4 15.9-.7 22.3L32 56.9l6.9-6.9h-3.4z" />
  <path fill="#666" d="M45 32c1.7 0 3 1.3 3 3v18c0 1.6-1.3 3-3 3-1.6 0-3-1.3-3-3V35c0-1.7 1.3-3 3-3z"/>
  <path fill="#666" d="M33 44c0-1.7 1.3-3 3-3h18c1.6 0 3 1.3 3 3 0 1.6-1.3 3-3 3H36c-1.7 0-3-1.3-3-3z"/>
</svg>