<svg xmlns="http://www.w3.org/2000/svg" viewBox="0 0 64 64" width="64" height="64">
  <path fill="#666" d="M54 52V9c0-1.1-.9-2-2-2H12c-1.1 0-2 .9-2 2v43H4v7h56v-7h-6z"/>
  <path fill="#fff" d="M28.8 31.4c-.9-3.7-4.7-3.3-5.3-5.8-.4-1.7.7-3.1 2.5-3.5 1.2-.3 2.4.1 3.2 1l.1.1v.2c.2.2.3.4.4.3.1 0 .2-.3.2-.5.6-4.9-3.8-8.8-8.6-7.6-3.7 1-6 4.7-5.1 8.5 1.2 5 6 5.9 8.5 7.1 1.4.7 1.6 2.7.3 3.6-.2.1-.5.3-.7.3h-.1c-.2.1-.3 0-.3.1s.1.1.2.2c2.4 1 5-1 4.6-3.6.1-.1.1-.3.1-.4z"/>
  <path d="M27 42c0 3 3 6 7 6m7-6c0 3-3 6-7 6" style="fill:#fff;stroke:#fff;stroke-width:4"/>
  <path fill="#fff" d="M46.8 31.4c-.9-3.7-4.7-3.3-5.3-5.8-.4-1.7.7-3.1 2.5-3.5 1.2-.3 2.4.1 3.2 1l.1.1v.2c.2.2.3.4.4.3.1 0 .2-.3.2-.5.6-4.9-3.8-8.8-8.6-7.6-3.7 1-6 4.7-5.1 8.5 1.2 5 6 5.9 8.5 7.1 1.4.7 1.6 2.7.3 3.6-.2.1-.5.3-.7.3h-.1c-.2.1-.3 0-.3.1s.1.1.2.2c2.4 1 5-1 4.6-3.6.1-.1.1-.3.1-.4z"/>
</svg>