<svg xmlns="http://www.w3.org/2000/svg" viewBox="0 0 64 64" width="64" height="64">
  <path  fill="#fff" d="M34.1 5.9l5.7 16.6c.3.6.9 1 1.5 1.1l17.7.2c1.9.3 2.7 2.6 1.3 4L46.2 38.4c-.5.5-.7 1.1-.6 1.8l5.1 16.4c.3 1.9-1.7 3.4-3.4 2.5l-14.4-9.8c-.6-.3-1.3-.3-1.9 0l-14.4 9.8c-1.7.9-3.8-.6-3.4-2.5l5.1-16.4c.1-.6-.1-1.3-.6-1.8l-14-10.6c-1.4-1.3-.6-3.7 1.3-4l17.6-.1c.7-.1 1.2-.5 1.5-1.1L29.8 6c1-1.8 3.5-1.8 4.3-.1z"
  stroke="#fff" stroke-width="6" />
  <path  fill="#666" d="M34.1 5.9l5.7 16.6c.3.6.9 1 1.5 1.1l17.7.2c1.9.3 2.7 2.6 1.3 4L46.2 38.4c-.5.5-.7 1.1-.6 1.8l5.1 16.4c.3 1.9-1.7 3.4-3.4 2.5l-14.4-9.8c-.6-.3-1.3-.3-1.9 0l-14.4 9.8c-1.7.9-3.8-.6-3.4-2.5l5.1-16.4c.1-.6-.1-1.3-.6-1.8l-14-10.6c-1.4-1.3-.6-3.7 1.3-4l17.6-.1c.7-.1 1.2-.5 1.5-1.1L29.8 6c1-1.8 3.5-1.8 4.3-.1z"/>
</svg>
