<svg xmlns="http://www.w3.org/2000/svg" preserveAspectRatio="xMidYMid" viewBox="-13 -7.5 282 160" width="282" height="160">
  <defs>
    <linearGradient x1="49.7%" y1="-27.7%" x2="49.7%" y2="100.1%" id="a">
      <stop stop-color="#F6871F" offset="0%"/>
      <stop stop-color="#F57E20" offset="23.9%"/>
      <stop stop-color="#F36621" offset="62.6%"/>
      <stop stop-color="#F04923" offset="100%"/>
    </linearGradient>
    <linearGradient x1="50.2%" y1="-25%" x2="50.2%" y2="100.2%" id="b">
      <stop stop-color="#F6871F" offset="0%"/>
      <stop stop-color="#F57E20" offset="23.9%"/>
      <stop stop-color="#F36621" offset="62.6%"/>
      <stop stop-color="#F04923" offset="100%"/>
    </linearGradient>
    <linearGradient x1="-.8%" y1="-10780.9%" x2="-.8%" y2="-2032%" id="c">
      <stop stop-color="#F6871F" offset="0%"/>
      <stop stop-color="#F57E20" offset="23.9%"/>
      <stop stop-color="#F36621" offset="62.6%"/>
      <stop stop-color="#F04923" offset="100%"/>
    </linearGradient>
    <linearGradient x1="50%" y1="-26.2%" x2="50%" y2="100.3%" id="d">
      <stop stop-color="#F6871F" offset="0%"/>
      <stop stop-color="#F57E20" offset="23.9%"/>
      <stop stop-color="#F36621" offset="62.6%"/>
      <stop stop-color="#F04923" offset="100%"/>
    </linearGradient>
    <linearGradient x1="49.9%" y1="-23.2%" x2="49.9%" y2="100.2%" id="e">
      <stop stop-color="#F6871F" offset="0%"/>
      <stop stop-color="#F57E20" offset="23.9%"/>
      <stop stop-color="#F36621" offset="62.6%"/>
      <stop stop-color="#F04923" offset="100%"/>
    </linearGradient>
    <linearGradient x1="49.5%" y1="-89.8%" x2="49.5%" y2="101.5%" id="f">
      <stop stop-color="#F6871F" offset="0%"/>
      <stop stop-color="#F57E20" offset="23.9%"/>
      <stop stop-color="#F36621" offset="62.6%"/>
      <stop stop-color="#F04923" offset="100%"/>
    </linearGradient>
    <linearGradient x1="50.2%" y1="-13.8%" x2="50.2%" y2="100.2%" id="g">
      <stop stop-color="#F6871F" offset="0%"/>
      <stop stop-color="#F57E20" offset="23.9%"/>
      <stop stop-color="#F36621" offset="62.6%"/>
      <stop stop-color="#F04923" offset="100%"/>
    </linearGradient>
    <linearGradient x1="49.7%" y1="-95.2%" x2="49.7%" y2="100.8%" id="h">
      <stop stop-color="#F6871F" offset="0%"/>
      <stop stop-color="#F57E20" offset="23.9%"/>
      <stop stop-color="#F36621" offset="62.6%"/>
      <stop stop-color="#F04923" offset="100%"/>
    </linearGradient>
    <linearGradient x1="49.6%" y1="-51.1%" x2="49.6%" y2="100.4%" id="i">
      <stop stop-color="#F6871F" offset="0%"/>
      <stop stop-color="#F57E20" offset="23.9%"/>
      <stop stop-color="#F36621" offset="62.6%"/>
      <stop stop-color="#F04923" offset="100%"/>
    </linearGradient>
    <linearGradient x1="50.4%" y1="-33.2%" x2="50.4%" y2="100.1%" id="j">
      <stop stop-color="#F6871F" offset="0%"/>
      <stop stop-color="#F57E20" offset="23.9%"/>
      <stop stop-color="#F36621" offset="62.6%"/>
      <stop stop-color="#F04923" offset="100%"/>
    </linearGradient>
    <linearGradient x1="50%" y1="-7.1%" x2="50%" y2="100.2%" id="k">
      <stop stop-color="#F6871F" offset="0%"/>
      <stop stop-color="#F57E20" offset="23.9%"/>
      <stop stop-color="#F36621" offset="62.6%"/>
      <stop stop-color="#F04923" offset="100%"/>
    </linearGradient>
    <linearGradient x1="50.3%" y1="-220.2%" x2="50.3%" y2="147.9%" id="l">
      <stop stop-color="#F6871F" offset="0%"/>
      <stop stop-color="#F57E20" offset="23.9%"/>
      <stop stop-color="#F36621" offset="62.6%"/>
      <stop stop-color="#F04923" offset="100%"/>
    </linearGradient>
    <linearGradient x1="49.2%" y1="-121.5%" x2="49.2%" y2="112.6%" id="m">
      <stop stop-color="#F6871F" offset="0%"/>
      <stop stop-color="#F57E20" offset="23.9%"/>
      <stop stop-color="#F36621" offset="62.6%"/>
      <stop stop-color="#F04923" offset="100%"/>
    </linearGradient>
    <linearGradient x1="50.4%" y1="-94.5%" x2="50.4%" y2="103.3%" id="n">
      <stop stop-color="#F6871F" offset="0%"/>
      <stop stop-color="#F57E20" offset="23.9%"/>
      <stop stop-color="#F36621" offset="62.6%"/>
      <stop stop-color="#F04923" offset="100%"/>
    </linearGradient>
    <linearGradient x1="49.9%" y1="0%" x2="49.9%" y2="100%" id="o">
      <stop stop-color="#F7941E" offset="0%"/>
      <stop stop-color="#F68B1F" offset="0%"/>
      <stop stop-color="#F6871F" offset="0%"/>
      <stop stop-color="#F57E20" offset="24%"/>
      <stop stop-color="#F36621" offset="63.1%"/>
      <stop stop-color="#F04923" offset="100%"/>
    </linearGradient>
  </defs>
  <path d="M110 81.5 108.5 27a3 3 0 0 0-3-3 3 3 0 0 0-3 3l-1.4 54.5 1.4 26.2a3 3 0 0 0 3 3 3 3 0 0 0 3-3l1.5-26.2Z" fill="url(#a)"/>
  <path d="m99.2 81.5-1.7-56.6a2.8 2.8 0 1 0-5.6 0l-1.5 56.5 1.5 26.4a2.8 2.8 0 1 0 5.6 0l1.7-26.3Z" fill="url(#b)"/>
  <circle fill="url(#c)" cx="119.4" cy="107.4" r="-.1"/>
  <path d="M76 25.3c-.1-1.3-1-2.4-2.4-2.4-1.3 0-2.3 1-2.4 2.4l-1.7 56 1.7 26.9c0 1.3 1.1 2.3 2.4 2.3 1.3 0 2.3-1 2.4-2.4l2-26.8-2-56Z" fill="url(#d)"/>
  <path d="M86.8 23.4c0-1.4-1.2-2.6-2.6-2.6a2.6 2.6 0 0 0-2.6 2.6l-1.6 58 1.6 26.6c0 1.4 1.2 2.6 2.6 2.6 1.4 0 2.5-1.1 2.6-2.6l1.8-26.6-1.8-58Z" fill="url(#e)"/>
  <path d="M32.5 109.9c.8 0 1.4-.6 1.5-1.5l2.6-27-2.6-28c-.1-.7-.7-1.4-1.5-1.4s-1.4.6-1.5 1.5l-2.3 27.9 2.3 27c0 .9.7 1.5 1.5 1.5Z" fill="url(#f)"/>
  <path d="m120.8 81.5-1.4-64.8c0-1-.6-2-1.5-2.7-.5-.3-1-.6-1.8-.6a4 4 0 0 0-1.7.5c-1 .6-1.5 1.6-1.5 2.7v.6l-1.2 64.2 1.2 26c0 .8.3 1.5.8 2 .6.7 1.5 1.2 2.4 1.2 1 0 1.7-.4 2.3-1 .6-.5 1-1.3 1-2.2l.1-2.6 1.3-23.3Z" fill="url(#g)"/>
  <path d="M44.3 55.5c0-1-.8-1.7-1.7-1.7-.9 0-1.7.7-1.7 1.7l-2 25.9 2 27.2c.1 1 .8 1.7 1.7 1.7 1 0 1.7-.7 1.7-1.7l2.4-27.2-2.4-26Z" fill="url(#h)"/>
  <path d="M52.9 37.4c-1 0-1.9.8-1.9 1.8l-2 42.2 2 27.2c.1 1 .9 1.9 1.9 1.9 1 0 1.9-.8 1.9-2L57 81.5l-2.3-42.2a2 2 0 0 0-2-1.8Z" fill="url(#i)"/>
  <path d="m65.2 108.6 2.1-27.1-2-51.8a2.2 2.2 0 0 0-4.4 0l-2 51.8 2 27c0 1.3 1 2.2 2.2 2.2 1.1 0 2-1 2.1-2.1Z" fill="url(#j)"/>
  <path d="M128.7 7.9a3.4 3.4 0 0 0-4 .3c-.8.6-1.3 1.6-1.3 2.7v.4L122 81.6l.7 13 .7 12.6c0 1.9 1.6 3.4 3.5 3.4s3.4-1.6 3.5-3.5l1.5-25.6-1.5-70.6a3.7 3.7 0 0 0-1.7-3Z" fill="url(#k)"/>
  <path d="M2.9 96.3c.5 0 .9-.4 1-1l2.2-14-2.2-14c-.1-.7-.5-1-1-1a1 1 0 0 0-1 1L0 81.2l1.9 14c0 .6.5 1 1 1Z" fill="url(#l)"/>
  <path d="M12.4 104.8c.4 0 1-.4 1-1l3-22.4-3-23c0-.5-.5-1-1-1s-1 .5-1.1 1l-2.5 23 2.5 22.4c0 .6.5 1 1 1Z" fill="url(#m)"/>
  <path d="M22.3 108.9c.7 0 1.2-.5 1.3-1.3l2.7-26.2-2.7-27.2c0-.7-.6-1.3-1.3-1.3-.7 0-1.2.5-1.3 1.3l-2.4 27.2 2.4 26.2c.1.7.6 1.3 1.3 1.3Z" fill="url(#n)"/>
  <path d="M223.6 48a33 33 0 0 0-12.1 2.4 55.4 55.4 0 0 0-75.1-46.6c-2.4.9-3 1.9-3 3.7V107c0 1.9 1.5 3.4 3.4 3.6h87a31.2 31.2 0 1 0-.2-62.6Z" fill="url(#o)"/>
  <path d="M25 129.5c-3.7-.9-4.7-1.3-4.7-2.8 0-1 .8-2 3.3-2 2.1 0 3.8.8 5.3 2.3l3.4-3.3a11.2 11.2 0 0 0-8.5-3.7c-4.6 0-8.3 2.6-8.3 6.8 0 4.6 3 6 7.3 6.9 4.4 1 5.2 1.7 5.2 3.2 0 1.8-1.3 2.5-4 2.5-2.3 0-4.4-.8-6-2.7l-3.5 3c1.8 2.5 5.2 4.1 9 4.1 6.4 0 9-3 9-7.3.3-5-3.8-6.2-7.5-7Zm21.4-9.4c-6.4 0-10 5-10 12s3.7 12 10 12 10-5 10-12-3.7-12-10-12Zm0 19.3c-3.8 0-5.3-3.2-5.3-7.4s1.6-7.4 5.3-7.4c3.8 0 5.3 3.2 5.3 7.4s-1.6 7.4-5.3 7.4Zm28.8-6c0 3.8-1.8 6-4.8 6s-4.8-2.3-4.8-6v-13H61v13c0 6.9 3.7 10.6 9.3 10.6 5.9 0 9.4-3.8 9.4-10.5v-13H75v13h.2Zm24.6-3.1.1 5-1.6-2.5-8.3-12.3h-4.4v23.2H90V128.4c.2.6 1 1.8 1.5 2.6l8.5 12.6h4.2v-23.2h-4.6v9.9h.1Zm17.8-9.9h-7.2v23.2h6.8c6 0 11.9-3.4 11.9-11.5 0-8.6-4.9-11.7-11.5-11.7Zm-.4 18.8H115V125h2.4c5 0 7 2.4 7 7 0 4.3-2.3 7.2-7.2 7.2Zm26.2-14.5c2.1 0 3.4 1 4.3 2.5l4.3-2c-1.5-3-4-5.2-8.5-5.2-6 0-10.2 5-10.2 12 0 7.3 4 12 10.1 12 4.2 0 7-2 8.6-5.3l-3.9-2.3c-1.2 2-2.5 3-4.6 3-3.4 0-5.4-3.2-5.4-7.4 0-4.3 2-7.3 5.3-7.3Zm17.3-4.3H156v23.2h14v-4.5h-9.3v-18.7Zm21.5-.3c-6.4 0-10 5-10 12s3.7 12 10 12c6.4 0 10-5 10-12s-3.6-12-10-12Zm0 19.3c-3.8 0-5.3-3.2-5.3-7.4s1.6-7.4 5.3-7.4c3.8 0 5.3 3.2 5.3 7.4s-1.5 7.4-5.3 7.4Zm28.8-6c0 3.8-1.8 6-4.8 6s-4.8-2.3-4.8-6v-13h-4.7v13c0 6.9 3.8 10.6 9.4 10.6 5.9 0 9.4-3.8 9.4-10.5v-13h-4.7v13h.2Zm17.7-13h-7.3v23.2h7c5.9 0 11.8-3.4 11.8-11.5 0-8.6-5-11.7-11.5-11.7Zm-.4 18.8h-2.2V125h2.5c4.9 0 6.9 2.4 6.9 7 0 4.3-2.3 7.2-7.2 7.2Z" fill="#F04923"/>
</svg>
